<svg xmlns="http://www.w3.org/2000/svg" xmlns:xlink="http://www.w3.org/1999/xlink" width="500" zoomAndPan="magnify" viewBox="0 0 375 374.999991" height="500" preserveAspectRatio="xMidYMid meet" version="1.0"><defs><g/></defs><g fill="#726962" fill-opacity="1"><g transform="translate(114.642958, 44.302932)"><g><path d="M 8.734375 -6.484375 C 8.460938 -6.484375 8.195312 -6.578125 7.9375 -6.765625 C 7.675781 -6.960938 7.546875 -7.1875 7.546875 -7.4375 C 7.546875 -7.664062 7.671875 -7.867188 7.921875 -8.046875 C 8.179688 -8.234375 8.425781 -8.328125 8.65625 -8.328125 C 8.976562 -8.328125 9.257812 -8.222656 9.5 -8.015625 C 9.75 -7.816406 9.875 -7.585938 9.875 -7.328125 C 9.875 -6.765625 9.492188 -6.484375 8.734375 -6.484375 Z M 4.546875 5.96875 C 1.359375 5.96875 -0.234375 5.050781 -0.234375 3.21875 C -0.234375 2.382812 -0.0351562 1.707031 0.359375 1.1875 C 0.753906 0.664062 1.320312 0.179688 2.0625 -0.265625 C 2.8125 -0.722656 3.71875 -1.253906 4.78125 -1.859375 C 6.125 -2.628906 7.046875 -3.484375 7.546875 -4.421875 C 7.722656 -4.753906 7.867188 -4.921875 7.984375 -4.921875 C 8.117188 -4.921875 8.1875 -4.796875 8.1875 -4.546875 C 8.1875 -4.460938 8.179688 -4.394531 8.171875 -4.34375 C 8.160156 -4.300781 8.144531 -4.257812 8.125 -4.21875 C 7.644531 -3.21875 6.796875 -2.320312 5.578125 -1.53125 C 4.773438 -1.03125 4.039062 -0.550781 3.375 -0.09375 C 2.707031 0.351562 2.175781 0.800781 1.78125 1.25 C 1.382812 1.707031 1.1875 2.195312 1.1875 2.71875 C 1.1875 3.164062 1.363281 3.539062 1.71875 3.84375 C 2.070312 4.15625 2.53125 4.390625 3.09375 4.546875 C 3.65625 4.703125 4.21875 4.78125 4.78125 4.78125 C 5.894531 4.78125 6.890625 4.535156 7.765625 4.046875 C 8.648438 3.566406 9.15625 2.828125 9.28125 1.828125 C 9.320312 1.578125 9.222656 1.335938 8.984375 1.109375 C 8.742188 0.890625 8.453125 0.78125 8.109375 0.78125 C 7.566406 0.78125 7.015625 1.070312 6.453125 1.65625 C 6.316406 1.789062 6.226562 1.789062 6.1875 1.65625 C 6.132812 1.5 6.175781 1.351562 6.3125 1.21875 C 6.945312 0.5625 7.628906 0.234375 8.359375 0.234375 C 8.847656 0.234375 9.25 0.382812 9.5625 0.6875 C 9.882812 1 10.023438 1.394531 9.984375 1.875 C 9.910156 2.726562 9.597656 3.460938 9.046875 4.078125 C 8.492188 4.691406 7.816406 5.160156 7.015625 5.484375 C 6.210938 5.804688 5.390625 5.96875 4.546875 5.96875 Z M 4.546875 5.96875 "/></g></g></g><g fill="#726962" fill-opacity="1"><g transform="translate(126.245298, 44.302932)"><g><path d="M 7.609375 1.875 C 5.472656 1.875 3.816406 1.304688 2.640625 0.171875 C 1.472656 -0.960938 0.890625 -2.4375 0.890625 -4.25 C 0.890625 -5.914062 1.300781 -7.535156 2.125 -9.109375 C 2.945312 -10.691406 3.984375 -12.148438 5.234375 -13.484375 C 6.253906 -14.566406 7.425781 -15.503906 8.75 -16.296875 C 10.070312 -17.085938 11.460938 -17.703125 12.921875 -18.140625 C 14.378906 -18.585938 15.800781 -18.8125 17.1875 -18.8125 C 18.289062 -18.8125 19.285156 -18.660156 20.171875 -18.359375 C 21.054688 -18.054688 21.757812 -17.585938 22.28125 -16.953125 C 22.800781 -16.316406 23.0625 -15.488281 23.0625 -14.46875 C 23.0625 -13.5625 22.84375 -12.71875 22.40625 -11.9375 C 21.976562 -11.15625 21.398438 -10.472656 20.671875 -9.890625 C 19.953125 -9.316406 19.15625 -8.863281 18.28125 -8.53125 C 17.414062 -8.207031 16.539062 -8.046875 15.65625 -8.046875 C 14.5 -8.046875 13.523438 -8.3125 12.734375 -8.84375 C 11.941406 -9.375 11.546875 -10.046875 11.546875 -10.859375 C 11.546875 -11.898438 12.210938 -12.921875 13.546875 -13.921875 C 13.773438 -14.085938 13.957031 -14.171875 14.09375 -14.171875 C 14.1875 -14.171875 14.234375 -14.132812 14.234375 -14.0625 C 14.234375 -13.875 14.082031 -13.71875 13.78125 -13.59375 C 12.695312 -12.726562 12.15625 -11.851562 12.15625 -10.96875 C 12.15625 -10.332031 12.441406 -9.796875 13.015625 -9.359375 C 13.597656 -8.921875 14.320312 -8.703125 15.1875 -8.703125 C 15.957031 -8.703125 16.734375 -8.863281 17.515625 -9.1875 C 18.296875 -9.519531 19.015625 -9.96875 19.671875 -10.53125 C 20.328125 -11.09375 20.851562 -11.722656 21.25 -12.421875 C 21.644531 -13.128906 21.84375 -13.867188 21.84375 -14.640625 C 21.84375 -15.890625 21.414062 -16.804688 20.5625 -17.390625 C 19.71875 -17.972656 18.640625 -18.265625 17.328125 -18.265625 C 15.847656 -18.265625 14.378906 -17.984375 12.921875 -17.421875 C 11.460938 -16.859375 10.097656 -16.082031 8.828125 -15.09375 C 7.554688 -14.113281 6.414062 -12.988281 5.40625 -11.71875 C 3.40625 -9.1875 2.40625 -6.8125 2.40625 -4.59375 C 2.40625 -3.414062 2.671875 -2.414062 3.203125 -1.59375 C 3.742188 -0.78125 4.492188 -0.164062 5.453125 0.25 C 6.410156 0.675781 7.503906 0.890625 8.734375 0.890625 C 10.566406 0.890625 12.34375 0.492188 14.0625 -0.296875 C 15.78125 -1.097656 17.25 -2.175781 18.46875 -3.53125 C 18.789062 -3.875 19.03125 -4.046875 19.1875 -4.046875 C 19.300781 -4.046875 19.359375 -3.960938 19.359375 -3.796875 C 19.359375 -3.554688 19.253906 -3.332031 19.046875 -3.125 C 18.390625 -2.425781 17.609375 -1.78125 16.703125 -1.1875 C 15.796875 -0.59375 14.820312 -0.0664062 13.78125 0.390625 C 12.75 0.859375 11.703125 1.222656 10.640625 1.484375 C 9.585938 1.742188 8.578125 1.875 7.609375 1.875 Z M 7.609375 1.875 "/></g></g></g><g fill="#726962" fill-opacity="1"><g transform="translate(147.251041, 44.302932)"><g><path d="M 1.25 0.0625 C 0.757812 0.0625 0.378906 -0.160156 0.109375 -0.609375 C -0.160156 -1.066406 -0.296875 -1.507812 -0.296875 -1.9375 C -0.296875 -3.09375 0.546875 -4.710938 2.234375 -6.796875 C 3.929688 -8.898438 5.300781 -9.953125 6.34375 -9.953125 C 7.320312 -9.953125 7.8125 -9.429688 7.8125 -8.390625 C 7.8125 -8.234375 7.796875 -8.066406 7.765625 -7.890625 C 7.734375 -7.722656 7.703125 -7.539062 7.671875 -7.34375 C 7.703125 -7.289062 7.796875 -7.265625 7.953125 -7.265625 C 8.472656 -7.265625 9.09375 -7.445312 9.8125 -7.8125 C 9.789062 -7.488281 9.03125 -7.015625 7.53125 -6.390625 C 7.738281 -5.753906 7.097656 -4.539062 5.609375 -2.75 C 4.085938 -0.875 2.785156 0.0625 1.703125 0.0625 Z M 1.765625 -0.8125 C 2.597656 -0.8125 3.660156 -1.570312 4.953125 -3.09375 C 6.203125 -4.582031 6.828125 -5.65625 6.828125 -6.3125 C 6.515625 -6.476562 6.128906 -6.921875 5.671875 -7.640625 C 5.015625 -7.640625 4.066406 -6.847656 2.828125 -5.265625 C 1.617188 -3.722656 1.035156 -2.535156 1.078125 -1.703125 C 1.085938 -1.109375 1.316406 -0.8125 1.765625 -0.8125 Z M 5.90625 -10.96875 C 5.769531 -10.925781 5.703125 -10.984375 5.703125 -11.140625 C 5.703125 -11.210938 5.738281 -11.28125 5.8125 -11.34375 L 8.625 -13.59375 C 8.832031 -13.769531 8.992188 -13.859375 9.109375 -13.859375 C 9.210938 -13.859375 9.332031 -13.785156 9.46875 -13.640625 C 9.613281 -13.492188 9.6875 -13.351562 9.6875 -13.21875 C 9.6875 -13.101562 9.644531 -13 9.5625 -12.90625 C 9.476562 -12.820312 9.394531 -12.742188 9.3125 -12.671875 C 9.21875 -12.578125 9.039062 -12.441406 8.78125 -12.265625 C 8.519531 -12.085938 8.171875 -11.894531 7.734375 -11.6875 C 7.210938 -11.4375 6.804688 -11.257812 6.515625 -11.15625 C 6.222656 -11.0625 6.019531 -11 5.90625 -10.96875 Z M 5.90625 -10.96875 "/></g></g></g><g fill="#726962" fill-opacity="1"><g transform="translate(155.381358, 44.302932)"><g><path d="M 6.828125 0.0625 C 6.367188 0.0625 6.140625 -0.195312 6.140625 -0.71875 C 6.347656 -1.800781 6.78125 -3.019531 7.4375 -4.375 C 7.75 -5.03125 8.0625 -5.675781 8.375 -6.3125 C 8.695312 -6.945312 9.007812 -7.59375 9.3125 -8.25 C 8.601562 -7.769531 7.890625 -7.234375 7.171875 -6.640625 C 6.460938 -6.054688 5.769531 -5.394531 5.09375 -4.65625 C 4.300781 -3.8125 3.382812 -2.722656 2.34375 -1.390625 C 1.59375 -0.441406 1.160156 0.03125 1.046875 0.03125 C 0.773438 0.03125 0.550781 -0.09375 0.375 -0.34375 C 0.195312 -0.59375 0.109375 -0.804688 0.109375 -0.984375 C 0.109375 -1.234375 0.332031 -1.878906 0.78125 -2.921875 C 0.914062 -3.253906 1.054688 -3.578125 1.203125 -3.890625 C 1.347656 -4.210938 1.488281 -4.523438 1.625 -4.828125 L -0.109375 -3.015625 C -0.148438 -2.972656 -0.265625 -2.851562 -0.453125 -2.65625 C -0.648438 -2.46875 -0.804688 -2.375 -0.921875 -2.375 C -1.023438 -2.375 -1.078125 -2.441406 -1.078125 -2.578125 C -1.078125 -2.617188 -1.0625 -2.671875 -1.03125 -2.734375 C -1 -2.796875 -0.9375 -2.878906 -0.84375 -2.984375 C -0.550781 -3.273438 -0.253906 -3.582031 0.046875 -3.90625 C 0.359375 -4.238281 0.679688 -4.613281 1.015625 -5.03125 C 1.265625 -5.363281 1.625 -5.851562 2.09375 -6.5 C 2.570312 -7.144531 3.15625 -7.957031 3.84375 -8.9375 C 4.0625 -9.226562 4.363281 -9.375 4.75 -9.375 C 5.132812 -9.375 5.328125 -9.191406 5.328125 -8.828125 C 5.328125 -8.691406 4.832031 -7.796875 3.84375 -6.140625 C 3.34375 -5.242188 2.941406 -4.515625 2.640625 -3.953125 C 2.347656 -3.398438 2.160156 -2.988281 2.078125 -2.71875 C 2.503906 -3.1875 3.007812 -3.707031 3.59375 -4.28125 C 4.1875 -4.863281 4.867188 -5.507812 5.640625 -6.21875 C 8.015625 -8.414062 9.578125 -9.515625 10.328125 -9.515625 C 10.546875 -9.515625 10.753906 -9.445312 10.953125 -9.3125 C 11.148438 -9.175781 11.25 -9.003906 11.25 -8.796875 C 11.25 -8.703125 10.875 -8 10.125 -6.6875 C 9.394531 -5.351562 8.988281 -4.5625 8.90625 -4.3125 C 11.050781 -6.101562 12.125 -7.007812 12.125 -7.03125 C 13.9375 -8.4375 15.238281 -9.140625 16.03125 -9.140625 C 16.257812 -9.140625 16.472656 -9.066406 16.671875 -8.921875 C 16.878906 -8.773438 16.984375 -8.609375 16.984375 -8.421875 C 16.984375 -8.378906 16.367188 -7.566406 15.140625 -5.984375 C 13.859375 -4.390625 13.144531 -3.078125 13 -2.046875 C 12.914062 -1.359375 13.269531 -1.015625 14.0625 -1.015625 C 14.539062 -1.015625 15.210938 -1.320312 16.078125 -1.9375 C 16.953125 -2.550781 17.863281 -3.398438 18.8125 -4.484375 C 18.925781 -4.617188 19.050781 -4.75 19.1875 -4.875 C 19.320312 -5 19.4375 -5.0625 19.53125 -5.0625 C 19.644531 -5.0625 19.703125 -5.015625 19.703125 -4.921875 C 19.703125 -4.785156 19.617188 -4.628906 19.453125 -4.453125 C 18.941406 -3.859375 18.34375 -3.242188 17.65625 -2.609375 C 16.976562 -1.972656 16.300781 -1.4375 15.625 -1 C 14.945312 -0.5625 14.347656 -0.34375 13.828125 -0.34375 C 12.515625 -0.34375 11.859375 -0.953125 11.859375 -2.171875 C 11.859375 -2.597656 11.972656 -3.09375 12.203125 -3.65625 C 12.441406 -4.226562 12.675781 -4.742188 12.90625 -5.203125 C 13.46875 -6.285156 14.078125 -7.242188 14.734375 -8.078125 C 14.109375 -7.765625 13.460938 -7.359375 12.796875 -6.859375 C 12.140625 -6.359375 11.453125 -5.769531 10.734375 -5.09375 C 9.078125 -3.46875 7.941406 -1.828125 7.328125 -0.171875 C 7.222656 -0.015625 7.054688 0.0625 6.828125 0.0625 Z M 6.828125 0.0625 "/></g></g></g><g fill="#726962" fill-opacity="1"><g transform="translate(173.638414, 44.302932)"><g><path d="M 1.25 0.0625 C 0.757812 0.0625 0.378906 -0.160156 0.109375 -0.609375 C -0.160156 -1.066406 -0.296875 -1.507812 -0.296875 -1.9375 C -0.296875 -3.09375 0.546875 -4.710938 2.234375 -6.796875 C 3.929688 -8.898438 5.300781 -9.953125 6.34375 -9.953125 C 7.320312 -9.953125 7.8125 -9.429688 7.8125 -8.390625 C 7.8125 -8.234375 7.796875 -8.066406 7.765625 -7.890625 C 7.734375 -7.722656 7.703125 -7.539062 7.671875 -7.34375 C 7.703125 -7.289062 7.796875 -7.265625 7.953125 -7.265625 C 8.472656 -7.265625 9.09375 -7.445312 9.8125 -7.8125 C 9.789062 -7.488281 9.03125 -7.015625 7.53125 -6.390625 C 7.738281 -5.753906 7.097656 -4.539062 5.609375 -2.75 C 4.085938 -0.875 2.785156 0.0625 1.703125 0.0625 Z M 1.765625 -0.8125 C 2.597656 -0.8125 3.660156 -1.570312 4.953125 -3.09375 C 6.203125 -4.582031 6.828125 -5.65625 6.828125 -6.3125 C 6.515625 -6.476562 6.128906 -6.921875 5.671875 -7.640625 C 5.015625 -7.640625 4.066406 -6.847656 2.828125 -5.265625 C 1.617188 -3.722656 1.035156 -2.535156 1.078125 -1.703125 C 1.085938 -1.109375 1.316406 -0.8125 1.765625 -0.8125 Z M 1.765625 -0.8125 "/></g></g></g><g fill="#726962" fill-opacity="1"><g transform="translate(181.768732, 44.302932)"><g/></g></g><g fill="#726962" fill-opacity="1"><g transform="translate(187.497575, 44.302932)"><g><path d="M 2.203125 0.0625 C 1.640625 0.0625 1.113281 -0.078125 0.625 -0.359375 C 0.144531 -0.640625 -0.09375 -1.109375 -0.09375 -1.765625 C -0.09375 -2.671875 0.226562 -3.75 0.875 -5 C 1.53125 -6.257812 2.269531 -7.5625 3.09375 -8.90625 C 5.351562 -12.570312 6.957031 -14.40625 7.90625 -14.40625 C 8.09375 -14.40625 8.285156 -14.332031 8.484375 -14.1875 C 8.691406 -14.050781 8.804688 -13.894531 8.828125 -13.71875 L 6.796875 -11 C 6.003906 -9.9375 5.289062 -8.957031 4.65625 -8.0625 C 4.019531 -7.164062 3.472656 -6.359375 3.015625 -5.640625 C 2.773438 -5.273438 2.507812 -4.859375 2.21875 -4.390625 C 1.9375 -3.929688 1.679688 -3.457031 1.453125 -2.96875 C 1.234375 -2.476562 1.125 -1.976562 1.125 -1.46875 C 1.125 -1.238281 1.191406 -1.03125 1.328125 -0.84375 C 1.460938 -0.664062 1.703125 -0.578125 2.046875 -0.578125 C 2.671875 -0.578125 3.484375 -0.910156 4.484375 -1.578125 C 5.484375 -2.242188 6.476562 -3.164062 7.46875 -4.34375 C 7.5625 -4.457031 7.664062 -4.5625 7.78125 -4.65625 C 7.894531 -4.75 7.992188 -4.796875 8.078125 -4.796875 C 8.171875 -4.796875 8.21875 -4.738281 8.21875 -4.625 C 8.21875 -4.570312 8.15625 -4.460938 8.03125 -4.296875 C 7.90625 -4.128906 7.800781 -4 7.71875 -3.90625 L 7.03125 -3.125 C 6.644531 -2.695312 6.1875 -2.234375 5.65625 -1.734375 C 5.125 -1.234375 4.5625 -0.804688 3.96875 -0.453125 C 3.382812 -0.109375 2.796875 0.0625 2.203125 0.0625 Z M 2.203125 0.0625 "/></g></g></g><g fill="#726962" fill-opacity="1"><g transform="translate(194.528424, 44.302932)"><g><path d="M 2.203125 0.0625 C 1.640625 0.0625 1.113281 -0.078125 0.625 -0.359375 C 0.144531 -0.640625 -0.09375 -1.109375 -0.09375 -1.765625 C -0.09375 -2.671875 0.226562 -3.75 0.875 -5 C 1.53125 -6.257812 2.269531 -7.5625 3.09375 -8.90625 C 5.351562 -12.570312 6.957031 -14.40625 7.90625 -14.40625 C 8.09375 -14.40625 8.285156 -14.332031 8.484375 -14.1875 C 8.691406 -14.050781 8.804688 -13.894531 8.828125 -13.71875 L 6.796875 -11 C 6.003906 -9.9375 5.289062 -8.957031 4.65625 -8.0625 C 4.019531 -7.164062 3.472656 -6.359375 3.015625 -5.640625 C 2.773438 -5.273438 2.507812 -4.859375 2.21875 -4.390625 C 1.9375 -3.929688 1.679688 -3.457031 1.453125 -2.96875 C 1.234375 -2.476562 1.125 -1.976562 1.125 -1.46875 C 1.125 -1.238281 1.191406 -1.03125 1.328125 -0.84375 C 1.460938 -0.664062 1.703125 -0.578125 2.046875 -0.578125 C 2.671875 -0.578125 3.484375 -0.910156 4.484375 -1.578125 C 5.484375 -2.242188 6.476562 -3.164062 7.46875 -4.34375 C 7.5625 -4.457031 7.664062 -4.5625 7.78125 -4.65625 C 7.894531 -4.75 7.992188 -4.796875 8.078125 -4.796875 C 8.171875 -4.796875 8.21875 -4.738281 8.21875 -4.625 C 8.21875 -4.570312 8.15625 -4.460938 8.03125 -4.296875 C 7.90625 -4.128906 7.800781 -4 7.71875 -3.90625 L 7.03125 -3.125 C 6.644531 -2.695312 6.1875 -2.234375 5.65625 -1.734375 C 5.125 -1.234375 4.5625 -0.804688 3.96875 -0.453125 C 3.382812 -0.109375 2.796875 0.0625 2.203125 0.0625 Z M 2.203125 0.0625 "/></g></g></g><g fill="#726962" fill-opacity="1"><g transform="translate(201.559273, 44.302932)"><g><path d="M 1.46875 0.375 C 0.851562 0.375 0.296875 0.175781 -0.203125 -0.21875 C -0.703125 -0.613281 -0.953125 -1.140625 -0.953125 -1.796875 C -0.953125 -3.160156 -0.113281 -4.722656 1.5625 -6.484375 C 3.28125 -8.253906 4.8125 -9.140625 6.15625 -9.140625 C 6.601562 -9.140625 6.96875 -9.019531 7.25 -8.78125 C 7.53125 -8.539062 7.671875 -8.25 7.671875 -7.90625 C 7.671875 -6.820312 6.8125 -5.757812 5.09375 -4.71875 C 3.570312 -3.789062 2.289062 -3.328125 1.25 -3.328125 C 1.09375 -3.328125 0.957031 -3.347656 0.84375 -3.390625 C 0.550781 -2.867188 0.40625 -2.316406 0.40625 -1.734375 C 0.40625 -0.734375 0.878906 -0.234375 1.828125 -0.234375 C 2.785156 -0.234375 4.03125 -0.878906 5.5625 -2.171875 C 6.738281 -3.117188 7.738281 -4.125 8.5625 -5.1875 C 8.738281 -5.414062 8.894531 -5.53125 9.03125 -5.53125 C 9.144531 -5.53125 9.203125 -5.472656 9.203125 -5.359375 C 9.203125 -5.242188 9.125 -5.078125 8.96875 -4.859375 C 8.425781 -4.148438 7.847656 -3.492188 7.234375 -2.890625 C 6.617188 -2.296875 5.953125 -1.75 5.234375 -1.25 C 3.753906 -0.164062 2.5 0.375 1.46875 0.375 Z M 1.65625 -3.96875 C 2.382812 -3.96875 3.335938 -4.332031 4.515625 -5.0625 C 4.898438 -5.332031 5.28125 -5.632812 5.65625 -5.96875 C 6.03125 -6.3125 6.335938 -6.65625 6.578125 -7 C 6.816406 -7.351562 6.9375 -7.660156 6.9375 -7.921875 C 6.9375 -8.179688 6.738281 -8.3125 6.34375 -8.3125 C 5.757812 -8.3125 4.945312 -7.875 3.90625 -7 C 3.40625 -6.570312 2.921875 -6.109375 2.453125 -5.609375 C 1.992188 -5.109375 1.597656 -4.578125 1.265625 -4.015625 C 1.390625 -3.984375 1.519531 -3.96875 1.65625 -3.96875 Z M 1.65625 -3.96875 "/></g></g></g><g fill="#726962" fill-opacity="1"><g transform="translate(208.995185, 44.302932)"><g><path d="M -0.3125 5.9375 C -0.894531 5.9375 -1.390625 5.691406 -1.796875 5.203125 C -2.203125 4.722656 -2.414062 4.203125 -2.4375 3.640625 C -2.375 3.410156 -2.285156 3.296875 -2.171875 3.296875 C -2.054688 3.296875 -1.988281 3.445312 -1.96875 3.75 C -1.945312 4.050781 -1.789062 4.34375 -1.5 4.625 C -1.21875 4.914062 -0.941406 5.0625 -0.671875 5.0625 C 0.453125 5.0625 1.628906 4.335938 2.859375 2.890625 C 3.304688 2.367188 3.765625 1.753906 4.234375 1.046875 C 4.710938 0.347656 5.171875 -0.441406 5.609375 -1.328125 L 7.0625 -4.203125 L 4.890625 -2 C 4.210938 -1.320312 3.628906 -0.816406 3.140625 -0.484375 C 2.648438 -0.160156 2.269531 0 2 0 C 1.53125 0 1.0625 -0.164062 0.59375 -0.5 C 0.132812 -0.84375 -0.117188 -1.234375 -0.171875 -1.671875 C -0.367188 -3.160156 0.566406 -4.925781 2.640625 -6.96875 C 4.703125 -9 6.539062 -10.015625 8.15625 -10.015625 C 8.601562 -10.015625 8.953125 -9.90625 9.203125 -9.6875 C 9.335938 -9.570312 9.4375 -9.398438 9.5 -9.171875 C 9.570312 -8.941406 9.628906 -8.828125 9.671875 -8.828125 C 9.742188 -8.828125 9.804688 -8.835938 9.859375 -8.859375 C 9.921875 -8.890625 9.988281 -8.90625 10.0625 -8.90625 C 10.320312 -8.90625 10.53125 -8.816406 10.6875 -8.640625 C 10.851562 -8.472656 10.910156 -8.300781 10.859375 -8.125 C 10.835938 -7.957031 10.554688 -7.4375 10.015625 -6.5625 C 9.660156 -5.988281 9.257812 -5.289062 8.8125 -4.46875 C 8.375 -3.644531 7.910156 -2.796875 7.421875 -1.921875 C 6.929688 -1.046875 6.453125 -0.226562 5.984375 0.53125 C 5.523438 1.289062 5.113281 1.914062 4.75 2.40625 C 2.96875 4.757812 1.28125 5.9375 -0.3125 5.9375 Z M 1.734375 -0.671875 C 2.859375 -0.671875 4.382812 -1.894531 6.3125 -4.34375 L 9.375 -8.5625 C 9.257812 -8.832031 9.019531 -8.96875 8.65625 -8.96875 C 7.457031 -8.96875 5.851562 -8.023438 3.84375 -6.140625 C 1.757812 -4.171875 0.828125 -2.578125 1.046875 -1.359375 C 1.140625 -0.898438 1.367188 -0.671875 1.734375 -0.671875 Z M 1.734375 -0.671875 "/></g></g></g><g fill="#726962" fill-opacity="1"><g transform="translate(219.700595, 44.302932)"><g><path d="M 1.9375 0.140625 C 1.476562 0.140625 1.015625 -0.0195312 0.546875 -0.34375 C 0.0859375 -0.675781 -0.171875 -1.0625 -0.234375 -1.5 C -0.421875 -2.988281 0.515625 -4.753906 2.578125 -6.796875 C 4.617188 -8.847656 6.460938 -9.875 8.109375 -9.875 C 8.546875 -9.875 8.890625 -9.765625 9.140625 -9.546875 C 9.273438 -9.410156 9.375 -9.226562 9.4375 -9 C 9.507812 -8.769531 9.566406 -8.65625 9.609375 -8.65625 C 9.679688 -8.65625 9.742188 -8.664062 9.796875 -8.6875 C 9.859375 -8.71875 9.929688 -8.734375 10.015625 -8.734375 C 10.242188 -8.734375 10.441406 -8.644531 10.609375 -8.46875 C 10.785156 -8.300781 10.882812 -8.148438 10.90625 -8.015625 C 10.925781 -7.972656 10.3125 -7.019531 9.0625 -5.15625 C 7.800781 -3.320312 7.226562 -2.078125 7.34375 -1.421875 C 7.445312 -0.972656 7.660156 -0.75 7.984375 -0.75 C 8.984375 -0.75 10.816406 -2.410156 13.484375 -5.734375 C 13.546875 -5.804688 13.601562 -5.84375 13.65625 -5.84375 C 13.75 -5.84375 13.796875 -5.773438 13.796875 -5.640625 C 13.796875 -5.484375 13.710938 -5.289062 13.546875 -5.0625 C 11.097656 -1.757812 9.21875 -0.109375 7.90625 -0.109375 C 7.726562 -0.109375 7.5625 -0.140625 7.40625 -0.203125 C 6.5625 -0.523438 6.140625 -1.160156 6.140625 -2.109375 C 6.140625 -2.441406 6.175781 -2.769531 6.25 -3.09375 L 4.453125 -1.359375 C 3.910156 -0.816406 3.421875 -0.429688 2.984375 -0.203125 C 2.554688 0.0234375 2.207031 0.140625 1.9375 0.140625 Z M 1.671875 -0.484375 C 2.796875 -0.484375 4.320312 -1.710938 6.25 -4.171875 L 9.3125 -8.390625 C 9.164062 -8.660156 8.914062 -8.796875 8.5625 -8.796875 C 7.382812 -8.796875 5.796875 -7.851562 3.796875 -5.96875 C 1.710938 -4.03125 0.773438 -2.4375 0.984375 -1.1875 C 1.078125 -0.71875 1.304688 -0.484375 1.671875 -0.484375 Z M 1.671875 -0.484375 "/></g></g></g><g fill="#726962" fill-opacity="1"><g transform="translate(231.621206, 44.302932)"><g><path d="M 5.90625 0.140625 C 5.070312 0.140625 4.5 -0.0703125 4.1875 -0.5 C 3.882812 -0.9375 3.734375 -1.519531 3.734375 -2.25 C 3.734375 -3.0625 3.984375 -4.03125 4.484375 -5.15625 C 4.679688 -5.59375 4.882812 -5.988281 5.09375 -6.34375 C 5.300781 -6.707031 5.523438 -7.039062 5.765625 -7.34375 C 5.679688 -7.332031 5.609375 -7.328125 5.546875 -7.328125 C 5.492188 -7.328125 5.4375 -7.328125 5.375 -7.328125 C 4.914062 -7.328125 4.53125 -7.65625 4.21875 -8.3125 L 2.078125 -5.53125 C 0.941406 -4.039062 0.25 -3.296875 0 -3.296875 C -0.09375 -3.296875 -0.140625 -3.335938 -0.140625 -3.421875 C -0.140625 -3.515625 -0.09375 -3.640625 0 -3.796875 C 0.0625 -3.910156 0.175781 -4.0625 0.34375 -4.25 C 1.082031 -5.101562 1.757812 -5.941406 2.375 -6.765625 C 2.988281 -7.597656 3.5 -8.410156 3.90625 -9.203125 C 4.351562 -10.878906 4.910156 -11.71875 5.578125 -11.71875 C 6.023438 -11.71875 6.25 -11.515625 6.25 -11.109375 C 6.25 -10.742188 6.007812 -10.265625 5.53125 -9.671875 C 5.0625 -9.066406 4.828125 -8.753906 4.828125 -8.734375 C 4.828125 -8.328125 5.128906 -8.125 5.734375 -8.125 C 6.078125 -8.125 6.460938 -8.25 6.890625 -8.5 L 7.640625 -8.96875 C 7.679688 -8.988281 7.738281 -9 7.8125 -9 C 8.039062 -9 8.242188 -8.898438 8.421875 -8.703125 C 8.597656 -8.515625 8.65625 -8.34375 8.59375 -8.1875 L 6.59375 -5.671875 C 5.363281 -4.085938 4.75 -2.816406 4.75 -1.859375 C 4.75 -0.984375 5.171875 -0.546875 6.015625 -0.546875 C 6.597656 -0.546875 7.222656 -0.71875 7.890625 -1.0625 C 8.554688 -1.414062 9.203125 -1.847656 9.828125 -2.359375 C 10.453125 -2.867188 10.976562 -3.363281 11.40625 -3.84375 L 12.09375 -4.65625 C 12.132812 -4.695312 12.179688 -4.742188 12.234375 -4.796875 C 12.296875 -4.859375 12.347656 -4.890625 12.390625 -4.890625 C 12.523438 -4.890625 12.59375 -4.820312 12.59375 -4.6875 C 12.59375 -4.644531 12.570312 -4.578125 12.53125 -4.484375 C 12.488281 -4.390625 12.421875 -4.285156 12.328125 -4.171875 L 11.40625 -3.125 C 10.957031 -2.625 10.410156 -2.117188 9.765625 -1.609375 C 9.117188 -1.097656 8.453125 -0.675781 7.765625 -0.34375 C 7.085938 -0.0195312 6.46875 0.140625 5.90625 0.140625 Z M 5.90625 0.140625 "/></g></g></g><g fill="#726962" fill-opacity="1"><g transform="translate(243.02102, 44.302932)"><g><path d="M 4.375 -3.265625 C 4.238281 -3.265625 4.171875 -3.390625 4.171875 -3.640625 C 4.171875 -3.722656 4.1875 -3.820312 4.21875 -3.9375 C 4.726562 -4.957031 5.578125 -5.851562 6.765625 -6.625 C 7.671875 -7.226562 8.390625 -7.707031 8.921875 -8.0625 C 9.453125 -8.414062 9.796875 -8.660156 9.953125 -8.796875 C 10.785156 -9.546875 11.203125 -10.238281 11.203125 -10.875 C 11.203125 -11.5 10.84375 -12 10.125 -12.375 C 9.414062 -12.75 8.566406 -12.9375 7.578125 -12.9375 C 6.441406 -12.9375 5.46875 -12.703125 4.65625 -12.234375 C 3.707031 -11.703125 3.175781 -10.953125 3.0625 -9.984375 C 3.03125 -9.734375 3.132812 -9.492188 3.375 -9.265625 C 3.613281 -9.046875 3.90625 -8.9375 4.25 -8.9375 C 4.832031 -8.9375 5.394531 -9.226562 5.9375 -9.8125 C 5.988281 -9.863281 6.035156 -9.890625 6.078125 -9.890625 C 6.148438 -9.890625 6.1875 -9.832031 6.1875 -9.71875 C 6.1875 -9.582031 6.140625 -9.46875 6.046875 -9.375 C 5.453125 -8.71875 4.769531 -8.390625 4 -8.390625 C 3.507812 -8.390625 3.101562 -8.539062 2.78125 -8.84375 C 2.46875 -9.15625 2.332031 -9.554688 2.375 -10.046875 C 2.488281 -11.335938 3.171875 -12.378906 4.421875 -13.171875 C 5.460938 -13.804688 6.59375 -14.125 7.8125 -14.125 C 11.007812 -14.125 12.609375 -13.207031 12.609375 -11.375 C 12.609375 -10.195312 12.085938 -9.203125 11.046875 -8.390625 C 10.816406 -8.210938 9.660156 -7.519531 7.578125 -6.3125 C 6.234375 -5.539062 5.304688 -4.679688 4.796875 -3.734375 C 4.628906 -3.421875 4.488281 -3.265625 4.375 -3.265625 Z M 3.703125 0.140625 C 3.378906 0.140625 3.097656 0.0390625 2.859375 -0.15625 C 2.628906 -0.363281 2.515625 -0.601562 2.515625 -0.875 C 2.515625 -1.40625 2.882812 -1.671875 3.625 -1.671875 C 3.882812 -1.671875 4.148438 -1.578125 4.421875 -1.390625 C 4.691406 -1.210938 4.828125 -0.988281 4.828125 -0.71875 C 4.828125 -0.488281 4.695312 -0.285156 4.4375 -0.109375 C 4.175781 0.0546875 3.929688 0.140625 3.703125 0.140625 Z M 3.703125 0.140625 "/></g></g></g><g fill="#726962" fill-opacity="1"><g transform="translate(254.623417, 44.302932)"><g/></g></g></svg>