<svg xmlns="http://www.w3.org/2000/svg" xmlns:xlink="http://www.w3.org/1999/xlink" width="500" zoomAndPan="magnify" viewBox="0 0 375 374.999991" height="500" preserveAspectRatio="xMidYMid meet" version="1.0"><defs><g/><clipPath id="0f3068ff48"><path d="M 209 69 L 273.238281 69 L 273.238281 177 L 209 177 Z M 209 69 " clip-rule="nonzero"/></clipPath><clipPath id="0b01c1f5d0"><path d="M 101.488281 59.351562 L 208 59.351562 L 208 214.601562 L 101.488281 214.601562 Z M 101.488281 59.351562 " clip-rule="nonzero"/></clipPath></defs><rect x="-37.5" width="450" fill="#ffffff" y="-37.499999" height="449.999989" fill-opacity="1"/><rect x="-37.5" width="450" fill="#faf5f2" y="-37.499999" height="449.999989" fill-opacity="1"/><g clip-path="url(#0f3068ff48)"><path fill="#726962" d="M 264.460938 144.546875 C 265.6875 143.464844 268.429688 141.4375 269.777344 140.535156 C 268.53125 141.59375 265.800781 143.632812 264.460938 144.546875 Z M 267.875 143.175781 C 267.496094 143.53125 267.109375 143.871094 266.703125 144.1875 C 265.90625 144.816406 265.035156 145.339844 264.070312 145.691406 C 264.527344 145.523438 264.9375 145.128906 265.335938 144.855469 C 265.761719 144.558594 266.183594 144.257812 266.59375 143.941406 C 267.007812 143.628906 267.414062 143.304688 267.8125 142.972656 C 268.003906 142.808594 268.179688 142.632812 268.367188 142.46875 C 268.503906 142.355469 269.050781 141.949219 269.449219 141.703125 C 269.171875 142.113281 268.226562 142.84375 267.875 143.175781 Z M 267.695312 140.84375 C 266.457031 141.675781 265.292969 142.625 264.191406 143.65625 C 265.128906 142.378906 266.328125 141.492188 267.695312 140.84375 Z M 263.304688 150.6875 C 262.277344 151.253906 261.292969 151.925781 260.347656 152.671875 C 261.191406 151.703125 262.195312 151.089844 263.304688 150.6875 Z M 264.933594 150.652344 C 263.875 151.40625 261.585938 152.824219 260.46875 153.445312 C 261.515625 152.671875 263.8125 151.265625 264.933594 150.652344 Z M 263.21875 152.660156 C 262.894531 152.917969 262.566406 153.160156 262.222656 153.382812 C 262.066406 153.484375 261.90625 153.582031 261.742188 153.675781 C 261.804688 153.597656 261.820312 153.480469 261.796875 153.382812 C 261.917969 153.308594 262.042969 153.242188 262.164062 153.164062 C 262.511719 152.945312 262.851562 152.71875 263.191406 152.480469 C 263.351562 152.367188 263.503906 152.238281 263.664062 152.121094 C 263.78125 152.039062 264.238281 151.757812 264.570312 151.59375 C 264.316406 151.910156 263.519531 152.417969 263.21875 152.660156 Z M 250.542969 154.199219 C 251.476562 155.996094 251.839844 158.253906 251.867188 160.257812 C 251.453125 158.234375 251.09375 156.191406 250.542969 154.199219 Z M 251.125 159.871094 C 250.316406 158.152344 250.128906 156.320312 250.0625 154.425781 C 250.308594 156.269531 250.75 158.082031 251.214844 159.890625 C 251.1875 159.875 251.15625 159.871094 251.125 159.871094 Z M 249.699219 157.210938 C 249.929688 158.554688 250.378906 159.847656 251.171875 161.003906 C 251.175781 161.019531 251.179688 161.035156 251.183594 161.050781 C 250.195312 159.898438 249.796875 158.59375 249.699219 157.210938 Z M 252.449219 160.445312 C 252.492188 158.921875 252.320312 157.253906 251.84375 155.722656 C 252.589844 157.21875 252.914062 158.820312 252.449219 160.445312 Z M 251.84375 130.945312 C 253.289062 132.410156 254.34375 134.136719 254.597656 136.40625 C 254.132812 134.339844 253.132812 132.542969 251.84375 130.945312 Z M 248.515625 128.703125 C 250.632812 130.707031 252.546875 132.777344 253.59375 135.550781 C 251.996094 133.195312 250.378906 130.84375 248.515625 128.703125 Z M 247.816406 129.003906 C 249.207031 131.125 250.761719 133.125 252.292969 135.140625 C 252.207031 135.082031 252.125 135.015625 252.03125 134.960938 C 251.949219 134.90625 248.660156 131.167969 247.816406 129.003906 Z M 248.222656 131.839844 C 249.414062 133.796875 251.042969 135.5625 252.714844 136.953125 C 250.53125 135.917969 249.121094 134.054688 248.222656 131.839844 Z M 259.195312 101.605469 C 258.046875 103.769531 257.296875 106.152344 257.027344 108.570312 C 256.414062 105.9375 257.527344 103.625 259.195312 101.605469 Z M 260.460938 101.027344 C 260.167969 101.75 259.910156 102.496094 259.640625 103.226562 C 259.136719 104.582031 258.566406 105.898438 257.972656 107.210938 C 258.515625 105.007812 259.328125 102.976562 260.460938 101.027344 Z M 259.1875 106.132812 C 259.996094 104.203125 260.71875 102.238281 261.609375 100.34375 C 260.878906 102.320312 260.128906 104.261719 259.1875 106.132812 Z M 262.4375 100.179688 C 261.878906 103.460938 260.703125 106.601562 258.304688 108.882812 C 260.160156 106.257812 261.445312 103.246094 262.4375 100.179688 Z M 232.808594 100.476562 C 234.984375 99.636719 237.199219 99.214844 239.425781 99.777344 C 237.222656 99.75 234.976562 99.933594 232.808594 100.476562 Z M 237.75 100.722656 C 237.714844 100.746094 235.054688 101.09375 233.714844 101.109375 C 235.1875 100.804688 236.660156 100.585938 238.15625 100.492188 C 238.019531 100.566406 237.882812 100.636719 237.75 100.722656 Z M 231.296875 91.320312 C 233.910156 91.128906 236.4375 91.5625 238.234375 93.582031 C 236.105469 92.402344 233.726562 91.636719 231.296875 91.320312 Z M 228.257812 93.140625 C 231.335938 94.105469 234.53125 94.796875 237.746094 94.808594 C 234.5 95.441406 231.257812 94.582031 228.257812 93.140625 Z M 230.09375 92.015625 C 232.339844 92.222656 234.464844 92.738281 236.574219 93.570312 C 235.164062 93.289062 233.757812 92.992188 232.363281 92.621094 C 231.609375 92.417969 230.851562 92.199219 230.09375 92.015625 Z M 234.992188 93.933594 C 232.925781 93.617188 230.90625 93.105469 228.871094 92.5625 C 230.929688 92.929688 232.949219 93.476562 234.992188 93.933594 Z M 215.582031 79.890625 C 217.246094 79.773438 218.875 79.375 220.363281 78.507812 C 218.871094 79.609375 217.253906 79.9375 215.582031 79.890625 Z M 212.398438 79.152344 C 214.710938 79.074219 217.003906 78.734375 219.296875 78.378906 C 217.066406 79.292969 214.769531 79.300781 212.398438 79.152344 Z M 219.363281 77.730469 C 216.972656 77.976562 214.566406 78.160156 212.191406 78.566406 C 214.386719 77.695312 217.039062 77.53125 219.363281 77.730469 Z M 219.644531 77.082031 C 217.890625 76.855469 215.933594 76.859375 214.109375 77.238281 C 215.925781 76.542969 217.816406 76.355469 219.644531 77.082031 Z M 219.648438 72.230469 C 221.324219 72.980469 222.769531 73.910156 224.207031 74.972656 C 222.617188 74.191406 221.097656 73.3125 219.648438 72.230469 Z M 224.125 75.769531 C 222.289062 75.152344 220.621094 74.238281 219.367188 72.726562 C 220.859375 73.890625 222.46875 74.933594 224.1875 75.742188 C 224.164062 75.75 224.144531 75.757812 224.125 75.769531 Z M 227.203125 70.070312 C 229.113281 70.964844 230.085938 72.644531 230.636719 74.492188 C 229.773438 72.859375 228.601562 71.339844 227.203125 70.070312 Z M 229.433594 73.980469 C 228.796875 73.074219 228.21875 72.148438 227.648438 71.21875 C 228.796875 72.539062 229.722656 73.925781 230.457031 75.449219 C 230.128906 74.953125 229.773438 74.46875 229.433594 73.980469 Z M 227.808594 72.378906 C 228.667969 73.71875 229.589844 75.027344 230.394531 76.394531 C 229.472656 75.074219 228.574219 73.761719 227.808594 72.378906 Z M 226.457031 70.621094 C 227.3125 72.851562 228.648438 74.953125 230.140625 76.921875 C 228.328125 75.089844 226.863281 72.984375 226.457031 70.621094 Z M 244.390625 80.675781 C 245.476562 81.996094 245.957031 83.695312 246.101562 85.464844 C 245.757812 83.796875 245.167969 82.171875 244.390625 80.675781 Z M 243.847656 80.929688 C 244.664062 82.65625 245.171875 84.410156 245.460938 86.25 C 244.886719 84.488281 244.351562 82.714844 243.847656 80.929688 Z M 243.804688 83.246094 C 244.230469 84.820312 244.722656 86.378906 245.28125 87.910156 C 244.609375 86.375 244.089844 84.84375 243.804688 83.246094 Z M 242.96875 82.117188 C 243.027344 83.070312 243.167969 84.015625 243.40625 84.929688 C 243.046875 83.988281 242.941406 83.0625 242.96875 82.117188 Z M 265.789062 108.136719 C 264.089844 109.59375 262.640625 111.316406 261.390625 113.128906 C 262.21875 110.984375 263.84375 109.425781 265.789062 108.136719 Z M 263.238281 112.296875 C 263.203125 112.292969 263.167969 112.292969 263.132812 112.308594 C 262.984375 112.367188 262.84375 112.4375 262.707031 112.507812 C 263.648438 111.339844 264.679688 110.265625 265.777344 109.242188 C 264.992188 110.324219 264.167969 111.339844 263.238281 112.296875 Z M 265.625 122.929688 C 264.375 124.980469 263.070312 127.007812 261.941406 129.121094 C 262.632812 126.914062 264.097656 124.695312 265.625 122.929688 Z M 265.332031 122.367188 C 264.128906 123.664062 262.96875 125.234375 262.144531 126.898438 C 262.742188 125.078125 263.730469 123.460938 265.332031 122.367188 Z M 262.476562 129.257812 C 263.796875 127.363281 264.925781 125.34375 266.039062 123.320312 C 265.355469 125.585938 263.992188 127.433594 262.476562 129.257812 Z M 264.894531 127.082031 C 265.800781 125.683594 266.488281 124.171875 266.765625 122.527344 C 266.652344 124.300781 265.921875 125.765625 264.894531 127.082031 Z M 273.246094 138.648438 C 273.039062 138.4375 272.738281 138.503906 272.535156 138.507812 C 271.925781 138.53125 271.355469 138.675781 270.777344 138.792969 C 270.519531 138.847656 270.261719 138.90625 270.003906 138.96875 C 269.492188 139.097656 268.992188 139.246094 268.496094 139.421875 C 267.515625 139.773438 266.582031 140.226562 265.730469 140.816406 C 264.898438 141.394531 264.152344 142.101562 263.550781 142.96875 C 263.25 143.398438 262.992188 143.867188 262.773438 144.371094 C 262.566406 144.855469 262.308594 145.425781 262.257812 146.011719 C 262.253906 146.066406 262.25 146.136719 262.253906 146.207031 C 261.242188 147.496094 260.382812 148.929688 259.566406 150.320312 C 259.183594 150.976562 258.820312 151.648438 258.46875 152.320312 C 259.742188 146.527344 260.265625 140.578125 260.097656 134.675781 C 260.097656 134.640625 260.09375 134.601562 260.09375 134.566406 C 260.40625 133.890625 260.621094 133.171875 260.925781 132.492188 C 261.089844 132.128906 261.328125 131.761719 261.519531 131.386719 C 264.679688 128.5625 268.039062 125.828125 267.339844 121.210938 C 267.300781 120.957031 267.105469 120.9375 266.828125 121.074219 C 262.558594 122.355469 261.117188 127.125 260.847656 131.164062 C 260.605469 131.542969 260.289062 132.292969 260.136719 132.695312 C 260.09375 132.808594 260.054688 132.910156 260.019531 133.007812 C 259.875 130.097656 259.574219 127.191406 259.109375 124.3125 C 259.027344 123.097656 259.03125 121.878906 259.15625 120.660156 C 259.335938 118.914062 259.703125 116.871094 260.605469 115.230469 C 260.671875 115.242188 260.742188 115.230469 260.816406 115.199219 C 264.195312 113.65625 266.484375 110.234375 268.152344 107.164062 C 268.578125 106.34375 267.910156 106.230469 267.570312 106.382812 C 263.921875 108.003906 260.925781 110.664062 260.378906 114.617188 C 260.367188 114.6875 260.367188 114.75 260.367188 114.804688 C 259.421875 116.40625 259.003906 118.414062 258.792969 120.167969 C 258.726562 120.714844 258.6875 121.261719 258.664062 121.808594 C 258.316406 120.011719 257.90625 118.230469 257.4375 116.460938 C 257.277344 114.429688 257.238281 112.414062 257.292969 110.371094 C 257.359375 110.378906 257.4375 110.367188 257.542969 110.308594 C 258.492188 109.75 259.332031 109.019531 260.035156 108.175781 C 261.351562 106.589844 262.191406 104.65625 262.738281 102.6875 C 262.742188 102.664062 262.75 102.640625 262.757812 102.617188 C 263.136719 101.230469 263.363281 99.824219 263.613281 98.417969 C 263.679688 98.035156 263.960938 96.464844 263.15625 96.71875 C 262.683594 96.867188 262.3125 97.382812 261.945312 97.695312 C 261.375 98.1875 260.808594 98.6875 260.265625 99.210938 C 259.175781 100.257812 258.179688 101.40625 257.414062 102.714844 C 256.148438 104.875 255.777344 107.347656 256.796875 109.632812 C 256.613281 110.777344 256.519531 111.964844 256.5 113.1875 C 254.382812 106.390625 251.484375 99.5625 247.132812 93.707031 C 246.746094 92.601562 246.523438 91.632812 246.367188 90.527344 C 246.535156 90.261719 246.632812 89.796875 246.660156 89.648438 C 246.71875 89.355469 246.765625 89.054688 246.804688 88.757812 C 246.882812 88.128906 246.921875 87.496094 246.914062 86.863281 C 246.90625 85.5625 246.726562 84.257812 246.320312 83.03125 C 246.039062 82.1875 245.648438 81.375 245.101562 80.664062 C 244.640625 80.066406 244.054688 79.625 243.472656 79.144531 C 243.417969 79.101562 243.355469 79.054688 243.285156 79.058594 C 243.183594 79.0625 243.113281 79.160156 243.0625 79.246094 C 242.582031 80.105469 242.449219 81.023438 242.34375 81.953125 C 242.238281 82.921875 242.308594 83.855469 242.597656 84.78125 C 243.046875 86.230469 243.929688 87.484375 244.765625 88.742188 C 244.980469 89.0625 245.191406 89.386719 245.394531 89.714844 C 245.492188 89.871094 245.589844 90.03125 245.679688 90.1875 C 245.6875 90.203125 245.699219 90.226562 245.707031 90.246094 C 245.886719 91.070312 246.101562 91.886719 246.355469 92.691406 C 246.140625 92.421875 245.933594 92.152344 245.714844 91.890625 C 242.410156 87.90625 238.363281 84.621094 234.03125 81.667969 C 233.257812 80.824219 232.550781 79.917969 231.953125 78.921875 C 231.957031 78.839844 231.957031 78.738281 231.953125 78.605469 C 231.953125 78.59375 231.960938 78.582031 231.960938 78.566406 C 231.75 75.070312 230.703125 70.226562 226.210938 69.347656 C 226.164062 69.339844 225.914062 69.253906 225.894531 69.539062 C 225.628906 73.136719 228.675781 76.574219 231.476562 78.929688 C 231.484375 78.9375 231.492188 78.945312 231.5 78.949219 C 231.886719 79.617188 232.324219 80.242188 232.796875 80.835938 C 232.746094 80.800781 232.695312 80.769531 232.640625 80.734375 C 232.015625 80.160156 231.371094 79.601562 230.703125 79.074219 C 229.910156 78.453125 229.09375 77.863281 228.253906 77.308594 C 227.890625 77.066406 227.488281 76.753906 227.0625 76.492188 C 227.019531 76.398438 226.945312 76.289062 226.820312 76.164062 C 224.480469 73.949219 221.519531 71.582031 218.246094 71.09375 C 218 71.058594 217.8125 71.21875 218.0625 71.699219 C 219.316406 74.121094 221.464844 75.585938 223.929688 76.382812 C 223.964844 76.433594 226.808594 76.878906 226.875 76.921875 C 228.34375 77.824219 229.582031 78.800781 231.144531 80.25 C 228.921875 79.367188 223.949219 77.742188 221.53125 77.542969 C 219.679688 75.972656 217.269531 75.714844 214.980469 76.347656 C 213.835938 76.664062 212.746094 77.164062 211.71875 77.757812 C 211.222656 78.046875 210.707031 78.34375 210.285156 78.726562 C 209.144531 79.765625 210.996094 79.988281 211.753906 80.148438 C 212.75 80.359375 213.765625 80.550781 214.78125 80.652344 C 217.464844 80.925781 219.941406 80.21875 221.753906 78.148438 C 225.9375 78.617188 229.761719 80.417969 233.414062 82.535156 C 236.867188 84.957031 240.140625 87.582031 242.996094 90.617188 C 247.269531 95.15625 250.328125 100.601562 252.660156 106.253906 C 248.789062 101.097656 244.171875 96.453125 239.238281 94.015625 C 237.964844 91.859375 235.734375 90.726562 233.234375 90.507812 C 231.730469 90.378906 230.210938 90.523438 228.734375 90.800781 C 228.003906 90.9375 227.277344 91.105469 226.5625 91.300781 C 226.191406 91.398438 225.816406 91.445312 225.4375 91.492188 C 225.042969 91.539062 224.648438 91.582031 224.265625 91.6875 C 224.222656 91.699219 224.167969 91.726562 224.167969 91.773438 C 224.167969 91.804688 224.199219 91.832031 224.230469 91.851562 C 224.484375 92.023438 225.097656 92.355469 225.183594 92.40625 C 229.191406 94.859375 234.699219 97.105469 239.351562 95.007812 C 239.460938 94.960938 239.515625 94.902344 239.546875 94.839844 C 243.214844 97.304688 246.535156 99.992188 249.652344 103.601562 C 249.714844 103.675781 249.773438 103.75 249.835938 103.820312 C 248.84375 103.039062 247.789062 102.339844 246.667969 101.734375 C 245.117188 100.894531 243.234375 100.070312 241.382812 99.914062 C 241.339844 99.878906 241.285156 99.847656 241.222656 99.816406 C 237.683594 97.972656 233.78125 98.878906 230.347656 100.914062 C 230.027344 101.105469 229.730469 101.714844 230.648438 101.84375 C 234.117188 102.257812 238.230469 102.371094 241.445312 100.507812 C 241.511719 100.46875 241.566406 100.414062 241.59375 100.355469 C 243.453125 100.566406 245.332031 101.453125 246.859375 102.316406 C 248.5625 103.28125 250.109375 104.476562 251.480469 105.851562 C 252.234375 106.820312 252.964844 107.8125 253.675781 108.824219 C 254.011719 109.726562 254.332031 110.632812 254.640625 111.539062 C 258.246094 122.179688 259.660156 133.566406 258.472656 144.695312 C 257.96875 142.265625 256.953125 139.964844 255.425781 138.039062 C 255.429688 138.015625 255.4375 138 255.4375 137.976562 C 256.050781 132.128906 251.15625 128.703125 246.84375 125.835938 C 246.800781 125.808594 246.753906 125.777344 246.699219 125.78125 C 246.660156 125.785156 246.621094 125.796875 246.589844 125.8125 C 245.917969 126.160156 246.675781 129.183594 246.761719 129.546875 C 247.105469 130.957031 247.585938 132.339844 248.285156 133.613281 C 249.644531 136.101562 251.867188 137.933594 254.738281 138.269531 C 256.96875 141.097656 258.0625 144.757812 257.984375 148.394531 C 257.707031 150.117188 257.367188 151.828125 256.960938 153.53125 C 255.828125 158.277344 254.160156 162.886719 252.007812 167.296875 C 252.320312 165.625 252.359375 163.941406 252.046875 162.332031 C 252.101562 162.285156 252.148438 162.222656 252.191406 162.132812 C 253.355469 160.46875 253.425781 158.445312 252.746094 156.574219 C 252.402344 155.621094 251.898438 154.726562 251.316406 153.894531 C 251.167969 153.679688 249.929688 151.886719 249.4375 152.078125 C 249.414062 152.085938 249.390625 152.101562 249.371094 152.121094 C 249.34375 152.144531 249.335938 152.183594 249.332031 152.21875 C 248.855469 155.703125 248.414062 159.710938 251.449219 162.125 C 251.992188 164.90625 251.519531 167.71875 250.429688 170.34375 C 249.449219 172.121094 248.386719 173.859375 247.246094 175.5625 C 246.921875 176.039062 247.375 176.3125 247.695312 175.886719 C 251.867188 170.40625 254.890625 164.503906 256.878906 158.238281 C 256.886719 158.261719 256.894531 158.289062 256.902344 158.3125 C 257.519531 157.105469 258.367188 156.046875 259.394531 155.1875 C 259.5625 155.191406 259.730469 155.179688 259.890625 155.167969 C 260.328125 155.125 260.753906 155.03125 261.164062 154.890625 C 262 154.609375 262.773438 154.152344 263.503906 153.621094 C 264.96875 152.554688 266.257812 151.175781 267.675781 150.027344 C 267.707031 150 267.742188 149.972656 267.777344 149.945312 C 267.886719 149.855469 267.890625 149.605469 267.777344 149.441406 C 267.640625 149.246094 267.402344 149.265625 267.246094 149.25 C 266.773438 149.207031 266.324219 149.265625 265.867188 149.304688 C 265.664062 149.320312 265.464844 149.339844 265.261719 149.367188 C 264.855469 149.417969 264.457031 149.492188 264.058594 149.585938 C 263.273438 149.777344 262.511719 150.058594 261.804688 150.460938 C 261.109375 150.855469 260.46875 151.367188 259.921875 152.027344 C 259.652344 152.355469 259.40625 152.71875 259.191406 153.117188 C 258.984375 153.5 258.734375 153.953125 258.636719 154.433594 C 258.609375 154.574219 258.589844 154.800781 258.667969 154.960938 C 258.226562 155.363281 257.824219 155.816406 257.464844 156.304688 C 257.667969 155.582031 257.859375 154.851562 258.042969 154.121094 C 258.625 152.898438 259.253906 151.699219 259.9375 150.527344 C 260.695312 149.230469 261.496094 147.898438 262.421875 146.683594 C 262.425781 146.691406 262.433594 146.703125 262.441406 146.710938 C 262.496094 146.753906 262.566406 146.78125 262.640625 146.792969 C 262.808594 146.828125 263.003906 146.800781 263.125 146.796875 C 263.417969 146.785156 263.703125 146.726562 263.976562 146.667969 C 264.53125 146.546875 265.0625 146.367188 265.566406 146.136719 C 266.601562 145.667969 267.523438 145.003906 268.378906 144.261719 C 270.101562 142.765625 271.550781 140.933594 273.203125 139.351562 C 273.242188 139.316406 273.28125 139.277344 273.320312 139.242188 C 273.449219 139.117188 273.414062 138.824219 273.246094 138.648438 " fill-opacity="1" fill-rule="nonzero"/></g><g clip-path="url(#0b01c1f5d0)"><path fill="#726962" d="M 172.707031 210.964844 C 174.773438 210.335938 176.835938 209.691406 178.820312 208.839844 C 176.871094 209.894531 174.925781 210.796875 172.707031 210.964844 Z M 171.851562 211.484375 C 173.425781 211.574219 174.945312 211.242188 176.394531 210.675781 C 174.996094 211.375 173.515625 211.757812 171.851562 211.484375 Z M 176.683594 208.023438 C 175 208.449219 173.34375 209.21875 171.941406 210.089844 C 173.226562 208.800781 174.894531 208.199219 176.683594 208.023438 Z M 178.78125 208.300781 C 176.628906 208.921875 174.527344 209.730469 172.414062 210.484375 C 174.308594 209.410156 176.613281 208.488281 178.78125 208.300781 Z M 149.109375 211.492188 C 150.460938 210.515625 151.636719 209.320312 152.445312 207.800781 C 151.757812 209.523438 150.554688 210.652344 149.109375 211.492188 Z M 146.011719 212.535156 C 147.933594 211.253906 149.710938 209.757812 151.46875 208.253906 C 150.054688 210.203125 148.105469 211.417969 146.011719 212.535156 Z M 151.1875 207.664062 C 149.28125 209.132812 147.332031 210.554688 145.527344 212.148438 C 146.933594 210.253906 149.105469 208.71875 151.1875 207.664062 Z M 151.085938 206.960938 C 149.472656 207.695312 147.8125 208.726562 146.457031 210.007812 C 147.640625 208.464844 149.148438 207.304688 151.085938 206.960938 Z M 148.558594 203.40625 C 150.574219 203.625 152.640625 203.664062 154.65625 203.390625 C 152.617188 203.914062 150.566406 204.085938 148.558594 203.40625 Z M 153.859375 202.769531 C 152.09375 202.941406 150.335938 202.992188 148.539062 202.835938 C 150.359375 202.589844 152.078125 202.625 153.859375 202.769531 Z M 147.320312 182.902344 C 148.292969 184.273438 148.605469 185.773438 148.59375 187.335938 C 148.460938 185.785156 148.089844 184.273438 147.320312 182.902344 Z M 148.007812 190.320312 C 147.902344 188.167969 147.574219 186.03125 147.226562 183.902344 C 148.054688 185.964844 148.097656 188.109375 148.007812 190.320312 Z M 146.667969 183.847656 C 146.921875 186.078125 147.121094 188.316406 147.511719 190.527344 C 146.722656 188.496094 146.539062 186.023438 146.667969 183.847656 Z M 125.898438 192.898438 C 127.546875 191.957031 129.382812 191.882812 131.265625 192.183594 C 129.445312 192.144531 127.636719 192.429688 125.898438 192.898438 Z M 125.980469 193.492188 C 127.535156 193.113281 129.089844 192.953125 130.671875 192.917969 C 129.132812 193.289062 127.625 193.527344 125.980469 193.492188 Z M 121.414062 185.324219 C 123.730469 185.6875 126.296875 186.523438 128.261719 188.003906 C 126.023438 186.980469 123.707031 186.183594 121.414062 185.324219 Z M 121.347656 186.042969 C 123.515625 186.992188 125.691406 187.925781 127.9375 188.582031 C 125.585938 188.15625 123.339844 187.582031 121.347656 186.042969 Z M 120.273438 185.914062 C 121.554688 187.21875 123.0625 188.050781 124.667969 188.589844 C 123.019531 188.226562 121.507812 187.472656 120.273438 185.914062 Z M 126.664062 186.097656 C 124.953125 185.238281 123.039062 184.746094 121.273438 184.554688 C 123.214844 184.222656 125.027344 184.898438 126.664062 186.097656 Z M 133.363281 187.769531 C 132.300781 187.164062 131.585938 186.304688 130.96875 185.3125 C 132.21875 186.632812 133.625 187.796875 135.15625 188.699219 C 134.546875 188.40625 133.949219 188.101562 133.363281 187.769531 Z M 135.042969 187.585938 C 133.738281 186.707031 132.496094 185.757812 131.292969 184.675781 C 132.667969 185.503906 133.890625 186.488281 135.042969 187.585938 Z M 134.992188 186.429688 C 133.878906 185.492188 132.664062 184.703125 131.398438 184.039062 C 132.859375 184.390625 134 185.285156 134.992188 186.429688 Z M 121.125 166.871094 C 122.539062 167.667969 123.8125 168.660156 125.039062 169.800781 C 123.777344 168.773438 122.472656 167.789062 121.125 166.871094 Z M 123.402344 169.421875 C 121.765625 168.542969 120.28125 167.488281 118.921875 166.148438 C 120.4375 167.210938 121.933594 168.296875 123.402344 169.417969 C 123.402344 169.417969 123.402344 169.421875 123.402344 169.421875 Z M 118.5 166.578125 C 119.660156 167.804688 121 168.898438 122.460938 169.773438 C 120.839844 169.050781 119.390625 168.039062 118.5 166.578125 Z M 122.84375 167.050781 C 122.058594 166.527344 121.214844 166.082031 120.332031 165.710938 C 121.234375 165.996094 122.074219 166.402344 122.84375 167.050781 Z M 108.296875 147.445312 C 110.902344 147.949219 113.285156 148.878906 115.085938 150.769531 C 112.984375 149.410156 110.714844 148.234375 108.296875 147.445312 Z M 108.789062 148.597656 C 110.859375 149.367188 112.84375 150.273438 114.742188 151.445312 C 112.5625 150.730469 110.675781 149.75 108.789062 148.597656 Z M 106.804688 117.378906 C 108.78125 118.09375 110.460938 119.269531 111.445312 121.152344 C 110.167969 119.730469 108.5625 118.359375 106.804688 117.378906 Z M 106.140625 120.589844 C 107.585938 121.664062 109.199219 122.484375 111.027344 122.824219 C 109.027344 122.675781 107.476562 121.808594 106.140625 120.589844 Z M 104.058594 117.742188 C 106.003906 119.304688 108.121094 120.644531 110.242188 121.96875 C 107.773438 121.144531 105.890625 119.53125 104.058594 117.742188 Z M 110.757812 121.488281 C 108.625 120.003906 106.53125 118.457031 104.300781 117.117188 C 106.707031 117.949219 108.996094 119.6875 110.757812 121.488281 Z M 114.867188 117.1875 C 115.710938 118.980469 116.234375 120.761719 116.660156 122.644531 C 115.910156 120.882812 115.289062 119.09375 114.867188 117.1875 Z M 114.285156 117.394531 C 114.714844 119.542969 115.347656 121.679688 116.285156 123.664062 C 115.078125 121.738281 114.242188 119.683594 114.285156 117.394531 Z M 127.546875 87.300781 C 127.648438 89.613281 127.773438 91.929688 128.152344 94.210938 C 127.535156 91.917969 127.089844 89.664062 127.546875 87.300781 Z M 128.765625 94.296875 C 128.695312 91.890625 128.398438 89.496094 128.167969 87.101562 C 128.820312 89.34375 129.1875 91.976562 128.765625 94.296875 Z M 129.691406 92.15625 C 129.699219 90.292969 129.316406 88.375 128.75 86.699219 C 129.824219 88.347656 130.011719 90.238281 129.691406 92.15625 Z M 126.796875 91.234375 C 126.417969 89.605469 126.421875 87.960938 127.207031 86.277344 C 126.652344 87.90625 126.585938 89.582031 126.796875 91.234375 Z M 144.089844 73.714844 C 144.042969 75.398438 144.066406 77.082031 144.148438 78.761719 C 143.960938 77.042969 143.910156 75.378906 144.089844 73.714844 Z M 143.265625 75.25 C 143.199219 74.214844 143.355469 73.269531 143.644531 72.347656 C 143.433594 73.304688 143.300781 74.277344 143.265625 75.25 Z M 144.769531 71.449219 C 145.039062 73.40625 145.015625 75.285156 144.773438 77.183594 C 144.734375 75.273438 144.738281 73.363281 144.769531 71.449219 Z M 145.570312 76.613281 C 145.71875 74.863281 145.628906 73.082031 145.335938 71.367188 C 145.960938 73.003906 145.925781 74.824219 145.570312 76.613281 Z M 149.335938 71.292969 C 149.441406 69.941406 149.910156 68.839844 150.542969 67.785156 C 149.875 69.632812 149.417969 71.574219 149.242188 73.53125 C 149.25 72.78125 149.277344 72.035156 149.335938 71.292969 Z M 150.1875 72.949219 C 150.433594 71.234375 150.769531 69.550781 151.246094 67.859375 C 151.070312 69.621094 150.691406 71.296875 150.1875 72.949219 Z M 151.851562 67.699219 C 152.140625 69.355469 151.8125 70.90625 151.199219 72.410156 C 151.574219 70.871094 151.78125 69.28125 151.851562 67.699219 Z M 166.574219 60.960938 C 165.921875 62.417969 165.109375 63.753906 164.1875 65.042969 C 164.84375 63.601562 165.570312 62.261719 166.574219 60.960938 Z M 167.050781 61.222656 C 166.742188 63.066406 165.703125 64.578125 164.363281 65.921875 C 165.476562 64.484375 166.351562 62.875 167.050781 61.222656 Z M 174.675781 61.355469 C 172.703125 62.570312 170.734375 63.800781 168.929688 65.242188 C 170.632812 63.589844 172.386719 62.105469 174.675781 61.355469 Z M 175.40625 60.5625 C 173.710938 60.871094 172.214844 61.625 170.871094 62.613281 C 172.113281 61.492188 173.554688 60.695312 175.40625 60.5625 Z M 175.785156 62.117188 C 174.867188 63.855469 173.300781 64.9375 171.46875 65.589844 C 173.101562 64.691406 174.597656 63.429688 175.785156 62.117188 Z M 169.148438 65.820312 C 171.21875 64.585938 173.167969 63.167969 175.148438 61.804688 C 173.507812 63.464844 171.382812 65.058594 169.148438 65.820312 Z M 166.277344 70.042969 C 167.34375 69.523438 168.386719 69.421875 169.464844 69.472656 C 167.773438 69.746094 166.101562 70.234375 164.542969 70.964844 C 165.113281 70.640625 165.691406 70.324219 166.277344 70.042969 Z M 165.40625 71.488281 C 166.816406 70.925781 168.234375 70.453125 169.726562 70.089844 C 168.316406 70.734375 166.882812 71.171875 165.40625 71.488281 Z M 166.265625 72.085938 C 167.601562 71.710938 168.890625 71.171875 170.121094 70.523438 C 169 71.503906 167.679688 71.921875 166.265625 72.085938 Z M 154.285156 80.109375 C 153.074219 80.792969 151.925781 81.589844 150.886719 82.511719 C 151.789062 81.410156 152.855469 80.523438 154.285156 80.109375 Z M 150.929688 83.558594 C 151.992188 82.488281 153.136719 81.515625 154.4375 80.671875 C 153.328125 81.734375 152.160156 82.675781 150.929688 83.558594 Z M 152.617188 83.605469 C 152.0625 83.945312 151.488281 84.261719 150.90625 84.566406 C 152.359375 83.648438 153.671875 82.503906 154.816406 81.222656 C 154.277344 82.160156 153.628906 82.984375 152.617188 83.605469 Z M 164.339844 80.570312 C 162.121094 81.503906 159.875 82.382812 157.722656 83.460938 C 159.566406 81.988281 162.058594 81.058594 164.339844 80.570312 Z M 164.417969 79.867188 C 162.671875 80.160156 160.804688 80.738281 159.167969 81.628906 C 160.703125 80.4375 162.457031 79.703125 164.417969 79.867188 Z M 158.089844 83.960938 C 160.277344 83.210938 162.375 82.21875 164.460938 81.210938 C 162.59375 82.738281 160.402344 83.414062 158.089844 83.960938 Z M 165.519531 81.019531 C 164.414062 82.511719 162.964844 83.296875 161.351562 83.738281 C 162.910156 83.140625 164.347656 82.285156 165.519531 81.019531 Z M 160.464844 87.707031 C 158.695312 87.40625 156.867188 87.273438 155.054688 87.4375 C 156.910156 87.035156 158.742188 86.972656 160.464844 87.707031 Z M 155.703125 88.058594 C 157.285156 87.980469 158.847656 88.015625 160.425781 88.25 C 158.792969 88.394531 157.269531 88.28125 155.703125 88.058594 Z M 139.113281 108.273438 C 136.832031 108.804688 134.550781 108.726562 132.488281 107.566406 C 134.542969 108.117188 136.875 108.425781 139.113281 108.273438 Z M 141.605469 106.992188 C 138.855469 107.679688 135.667969 107.445312 132.925781 106.839844 C 135.820312 106.929688 138.714844 107.09375 141.605469 106.992188 Z M 141.453125 106.265625 C 138.691406 105.984375 135.898438 106.019531 133.113281 106.074219 C 135.917969 105.34375 138.65625 105.703125 141.453125 106.265625 Z M 135.578125 104.722656 C 136.3125 104.695312 137.046875 104.75 137.78125 104.871094 C 137.042969 104.824219 136.304688 104.824219 135.570312 104.882812 C 135.582031 104.855469 135.59375 104.824219 135.59375 104.792969 C 135.59375 104.773438 135.589844 104.75 135.578125 104.722656 Z M 134.730469 112.875 C 133.679688 113.136719 130.234375 112.582031 129.609375 112.375 C 131.28125 112.785156 133.015625 112.9375 134.730469 112.875 Z M 134.867188 112.222656 C 133.332031 112.15625 131.847656 111.96875 130.355469 111.691406 C 131.867188 111.71875 133.355469 111.867188 134.867188 112.222656 Z M 135.167969 111.71875 C 133.835938 111.324219 132.464844 111.046875 131.082031 110.9375 C 132.5 110.824219 133.875 110.976562 135.167969 111.71875 Z M 128.480469 130.632812 C 126.976562 132.566406 125.820312 134.78125 125.140625 137.117188 C 124.992188 134.417969 126.488281 132.332031 128.480469 130.632812 Z M 128.636719 132.304688 C 127.90625 133.550781 127.117188 134.75 126.308594 135.941406 C 127.222656 133.863281 128.375 132.003906 129.824219 130.277344 C 129.414062 130.941406 129.03125 131.628906 128.636719 132.304688 Z M 131.078125 129.808594 C 130.015625 131.625 128.9375 133.40625 127.6875 135.085938 C 128.820312 133.328125 129.875 131.515625 131.078125 129.808594 Z M 131.921875 129.789062 C 130.804688 132.921875 129.101562 135.8125 126.347656 137.644531 C 128.625 135.378906 130.410156 132.636719 131.921875 129.789062 Z M 133.84375 138.207031 C 131.921875 139.34375 130.195312 140.789062 128.648438 142.359375 C 129.835938 140.394531 131.707031 139.136719 133.84375 138.207031 Z M 130.613281 141.863281 C 130.578125 141.851562 130.542969 141.847656 130.503906 141.855469 C 130.351562 141.886719 130.199219 141.933594 130.050781 141.976562 C 131.183594 140.988281 132.382812 140.109375 133.644531 139.289062 C 132.679688 140.21875 131.695312 141.078125 130.613281 141.863281 Z M 133.679688 163.230469 C 133.648438 165.4375 133.472656 167.5625 132.914062 169.785156 C 132.933594 167.554688 133.226562 165.394531 133.679688 163.230469 Z M 132.160156 169.714844 C 131.519531 167.183594 132.003906 164.671875 132.964844 162.199219 C 132.34375 164.664062 132.128906 167.210938 132.160156 169.714844 Z M 146.101562 183.597656 C 145.941406 185.242188 145.980469 187.066406 146.335938 188.765625 C 145.707031 187.078125 145.511719 185.316406 146.101562 183.597656 Z M 172.507812 193.230469 C 175.375 194.917969 177.894531 197.132812 179.179688 200.179688 C 177.378906 197.515625 175.023438 195.25 172.507812 193.230469 Z M 172.6875 196.769531 C 174.304688 198.609375 176.269531 200.160156 178.433594 201.269531 C 175.753906 200.90625 173.988281 199.046875 172.6875 196.769531 Z M 174.363281 196.929688 C 175.449219 197.878906 176.480469 198.882812 177.5 199.898438 C 175.628906 198.609375 174.019531 197.132812 172.59375 195.382812 C 173.167969 195.910156 173.773438 196.414062 174.363281 196.929688 Z M 172.367188 194.0625 C 173.953125 195.449219 175.503906 196.839844 176.917969 198.382812 C 175.398438 196.941406 173.820312 195.566406 172.367188 194.0625 Z M 181.136719 192.921875 C 181.894531 195.023438 182.988281 196.988281 184.242188 198.800781 C 182.53125 197.269531 181.648438 195.195312 181.136719 192.921875 Z M 184.121094 196.78125 C 184.101562 196.8125 184.089844 196.84375 184.09375 196.882812 C 184.09375 197.042969 184.113281 197.199219 184.128906 197.351562 C 183.371094 196.058594 182.730469 194.714844 182.164062 193.320312 C 182.894531 194.441406 183.554688 195.570312 184.121094 196.78125 Z M 207.359375 205.617188 C 207.128906 205.617188 206.898438 205.625 206.671875 205.632812 C 205.902344 205.671875 205.140625 205.761719 204.367188 205.796875 C 203.386719 205.84375 202.402344 205.84375 201.421875 205.804688 C 199.078125 205.710938 196.734375 205.386719 194.453125 204.847656 C 193.121094 204.527344 191.722656 204.175781 190.492188 203.558594 C 188.925781 202.773438 187.140625 201.707031 185.929688 200.285156 C 185.964844 200.222656 185.976562 200.152344 185.972656 200.070312 C 185.730469 196.367188 183.339844 193.011719 181.0625 190.363281 C 180.445312 189.675781 180.105469 190.261719 180.125 190.632812 C 180.347656 194.621094 181.769531 198.363281 185.277344 200.273438 C 185.335938 200.308594 185.394531 200.335938 185.445312 200.355469 C 186.609375 201.804688 188.339844 202.90625 189.902344 203.726562 C 191.042969 204.328125 192.234375 204.808594 193.449219 205.199219 C 193.339844 205.183594 193.226562 205.175781 193.117188 205.164062 C 188.382812 204.585938 184.300781 203.324219 180.210938 201.652344 C 180.242188 201.597656 180.257812 201.515625 180.238281 201.398438 C 179.386719 196.371094 174.449219 193.046875 170.179688 191.085938 C 170.09375 191.046875 169.476562 190.722656 169.1875 190.605469 C 169.15625 190.59375 169.117188 190.582031 169.089844 190.601562 C 169.050781 190.625 169.058594 190.683594 169.074219 190.726562 C 169.199219 191.101562 169.382812 191.453125 169.5625 191.808594 C 169.738281 192.148438 169.910156 192.488281 170.03125 192.847656 C 170.269531 193.554688 170.53125 194.25 170.828125 194.929688 C 171.421875 196.3125 172.148438 197.65625 173.09375 198.828125 C 174.667969 200.78125 176.847656 202.003906 179.34375 201.859375 C 183.929688 204.496094 190.050781 205.746094 196.238281 206.140625 C 183.523438 208.300781 167.046875 203.613281 166.832031 203.554688 C 160.527344 201.523438 154.535156 198.558594 149.089844 194.75 C 148.96875 194.367188 148.839844 193.988281 148.742188 193.597656 C 148.652344 193.234375 148.617188 192.828125 148.539062 192.441406 C 149.3125 188.554688 150.292969 184.617188 146.972656 181.597656 C 146.792969 181.433594 146.628906 181.53125 146.492188 181.789062 C 143.929688 185.167969 145.667969 189.519531 147.882812 192.660156 C 147.917969 193.066406 148.109375 193.757812 148.234375 194.152344 C 145.246094 191.992188 142.4375 189.5625 139.832031 186.894531 C 136.371094 182.554688 134.03125 177.402344 133.03125 171.925781 C 135.101562 168.292969 134.984375 163.660156 134.523438 159.746094 C 134.378906 158.703125 133.683594 159.039062 133.46875 159.402344 C 131.144531 163.300781 130.105469 167.734375 132.195312 171.761719 C 132.285156 171.933594 132.375 172.046875 132.464844 172.117188 C 133.226562 176.214844 134.734375 180.128906 136.890625 183.664062 C 135.609375 182.160156 134.382812 180.59375 133.230469 178.957031 C 131.941406 177.121094 128.5 172.328125 126.320312 166.179688 C 125.535156 162.480469 124.777344 158.804688 124.335938 155.101562 C 124.355469 153.179688 124.617188 151.257812 125.148438 149.390625 C 125.625 147.707031 126.339844 145.753906 127.511719 144.296875 C 127.574219 144.316406 127.648438 144.320312 127.726562 144.296875 C 131.320312 143.363281 134.167969 140.390625 136.34375 137.65625 C 136.902344 136.917969 136.265625 136.695312 135.902344 136.785156 C 132.027344 137.75 128.617188 139.851562 127.394531 143.652344 C 127.375 143.71875 127.359375 143.777344 127.351562 143.832031 C 126.144531 145.25 125.386719 147.15625 124.871094 148.84375 C 124.503906 150.0625 124.242188 151.304688 124.089844 152.558594 C 124.082031 152.460938 124.070312 152.367188 124.066406 152.269531 C 123.742188 147.515625 124.21875 143.269531 125.09375 138.9375 C 125.15625 138.957031 125.238281 138.957031 125.347656 138.917969 C 130.128906 137.136719 132.464844 131.664062 133.589844 127.101562 C 133.617188 127.007812 133.816406 126.339844 133.878906 126.039062 C 133.886719 126.003906 133.890625 125.964844 133.867188 125.941406 C 133.835938 125.90625 133.78125 125.925781 133.738281 125.949219 C 133.394531 126.140625 133.082031 126.386719 132.765625 126.632812 C 132.464844 126.863281 132.164062 127.097656 131.832031 127.285156 C 131.1875 127.652344 130.550781 128.042969 129.9375 128.457031 C 128.691406 129.300781 127.507812 130.265625 126.53125 131.414062 C 124.910156 133.324219 124.117188 135.695312 124.726562 138.121094 C 122.371094 144.933594 123.078125 154.070312 124.824219 162.113281 C 122.847656 156.175781 121.640625 149.964844 120.980469 143.578125 C 120.257812 136.550781 119.542969 129.28125 120.488281 122.242188 C 120.671875 120.863281 120.925781 119.496094 121.238281 118.140625 C 122.183594 115.597656 123.890625 113.132812 126.253906 111.957031 C 126.273438 111.996094 126.296875 112.027344 126.316406 112.0625 C 126.445312 112.089844 126.574219 112.125 126.707031 112.152344 C 126.902344 112.222656 127.097656 112.292969 127.292969 112.363281 C 127.8125 112.554688 128.332031 112.746094 128.851562 112.929688 C 129.878906 113.292969 130.917969 113.617188 131.992188 113.773438 C 133.652344 114.019531 135.253906 113.492188 136.789062 112.816406 C 136.929688 112.753906 136.9375 112.566406 136.875 112.429688 C 136.859375 112.382812 136.839844 112.332031 136.796875 112.292969 C 135.265625 110.777344 133.203125 110.269531 131.164062 110.367188 C 130.390625 110.40625 129.621094 110.519531 128.863281 110.683594 C 128.117188 110.847656 127.339844 111.011719 126.640625 111.347656 C 124.570312 112.183594 122.929688 113.941406 121.800781 115.972656 C 123.382812 112.027344 126.410156 108.492188 130.164062 106.574219 C 130.195312 106.609375 130.230469 106.640625 130.273438 106.671875 C 132.164062 108.796875 134.894531 109.542969 137.660156 109.226562 C 139.070312 109.0625 140.449219 108.664062 141.769531 108.144531 C 142.109375 108.007812 144.953125 106.90625 144.851562 106.175781 C 144.847656 106.136719 144.835938 106.101562 144.8125 106.066406 C 144.789062 106.023438 144.738281 106.003906 144.691406 105.984375 C 140.496094 104.359375 135.6875 102.621094 131.632812 104.90625 C 129.398438 105.589844 127.425781 107.046875 125.730469 108.644531 C 124.832031 109.492188 124.019531 110.425781 123.308594 111.417969 C 124.34375 108.734375 125.601562 106.136719 127.035156 103.648438 C 128.4375 101.214844 129.996094 98.910156 131.679688 96.714844 C 132.066406 96.511719 137.003906 91.234375 146.730469 88.855469 C 148.699219 88.371094 150.722656 88.152344 152.746094 88.003906 C 152.800781 88.101562 152.917969 88.195312 153.144531 88.265625 C 155.882812 89.035156 159.179688 89.640625 161.996094 88.546875 C 162.207031 88.464844 162.292969 88.246094 161.90625 87.960938 C 159.289062 86.035156 156.039062 86.273438 153.019531 87.480469 C 152.960938 87.503906 152.898438 87.546875 152.84375 87.597656 C 151.945312 87.660156 151.054688 87.753906 150.152344 87.871094 C 149.578125 87.914062 149.015625 87.972656 148.460938 88.042969 C 151 87.246094 153.488281 86.289062 155.90625 85.164062 C 155.9375 85.167969 155.964844 85.171875 156 85.167969 C 159.289062 85.0625 163.25 84.878906 165.554688 82.183594 C 166.046875 81.605469 166.441406 80.949219 166.753906 80.257812 C 166.867188 80.003906 166.714844 79.851562 166.402344 79.773438 C 163.613281 78.550781 160.730469 79.582031 158.5 81.433594 C 157.78125 82.03125 157.074219 82.699219 156.488281 83.425781 C 156.328125 83.621094 155.675781 84.398438 155.621094 84.847656 C 152.273438 86.398438 148.800781 87.640625 145.226562 88.5625 C 146.449219 87.96875 147.617188 87.289062 148.730469 86.507812 C 148.917969 86.414062 149.101562 86.320312 149.289062 86.230469 C 149.789062 85.988281 150.285156 85.75 150.78125 85.5 C 151.75 85.011719 152.707031 84.484375 153.5625 83.824219 C 154.894531 82.792969 155.621094 81.273438 156.195312 79.699219 C 156.25 79.554688 156.121094 79.417969 155.980469 79.371094 C 155.933594 79.347656 155.882812 79.328125 155.824219 79.328125 C 153.671875 79.382812 151.878906 80.519531 150.535156 82.058594 C 150.027344 82.640625 148.292969 85.339844 148.054688 86.125 C 148.019531 86.246094 147.996094 86.375 148.007812 86.5 C 147.007812 87.171875 145.441406 88.09375 144.054688 88.898438 C 140.082031 89.972656 136.652344 91.765625 133.777344 94.125 C 140.0625 86.714844 147.804688 80.609375 155.855469 75.089844 C 157.484375 74.261719 159.875 73.007812 161.355469 72.363281 C 161.449219 72.441406 161.574219 72.492188 161.695312 72.527344 C 162.484375 72.75 163.332031 72.757812 164.140625 72.769531 C 164.914062 72.78125 165.691406 72.746094 166.457031 72.628906 C 168.476562 72.328125 170.402344 71.429688 171.605469 69.644531 C 171.640625 69.59375 171.652344 69.542969 171.65625 69.492188 C 171.691406 69.347656 171.648438 69.164062 171.496094 69.132812 C 169.859375 68.765625 168.1875 68.5625 166.605469 69.128906 C 165.585938 69.492188 164.625 70.015625 163.691406 70.570312 C 163.214844 70.851562 162.746094 71.140625 162.273438 71.429688 C 162.09375 71.539062 161.917969 71.644531 161.738281 71.75 C 160.480469 72.269531 159.277344 72.886719 158.117188 73.597656 C 158.167969 73.550781 158.222656 73.503906 158.269531 73.457031 C 158.402344 73.371094 164.03125 68.644531 166.851562 66.84375 C 167.257812 67.039062 168.261719 66.90625 168.515625 66.878906 C 169.441406 66.773438 170.386719 66.539062 171.277344 66.257812 C 174.039062 65.375 176.460938 63.503906 176.933594 60.492188 C 177.035156 60.1875 176.988281 59.980469 176.714844 59.9375 C 175.964844 59.828125 175.199219 59.804688 174.445312 59.910156 C 170.933594 60.402344 168.644531 63.640625 166.78125 66.347656 C 166.761719 66.378906 166.75 66.402344 166.734375 66.429688 C 164.328125 67.960938 162.039062 69.65625 159.875 71.503906 C 160.996094 70.292969 162.046875 69.023438 163.035156 67.699219 C 163.109375 67.683594 163.175781 67.652344 163.230469 67.613281 C 165.875 65.722656 167.828125 63.113281 167.613281 59.871094 C 167.582031 59.390625 167.351562 59.347656 167.167969 59.480469 C 164.726562 61.261719 162.589844 67.464844 162.640625 67.5625 C 161.386719 69.238281 160.023438 70.824219 158.550781 72.3125 C 158.449219 72.292969 150.777344 77.238281 147.238281 79.945312 C 147.828125 79.183594 148.339844 78.378906 148.742188 77.511719 C 148.886719 77.464844 149.015625 77.347656 149.125 77.234375 C 149.757812 76.5625 150.21875 75.714844 150.667969 74.914062 C 151.101562 74.140625 151.488281 73.34375 151.796875 72.511719 C 152.613281 70.324219 152.832031 67.90625 151.855469 65.730469 C 151.828125 65.671875 151.789062 65.632812 151.742188 65.601562 C 151.628906 65.488281 151.441406 65.433594 151.328125 65.566406 C 150.109375 67.007812 149.015625 68.578125 148.679688 70.46875 C 148.460938 71.691406 148.417969 72.933594 148.417969 74.171875 C 148.417969 74.800781 148.429688 75.429688 148.4375 76.0625 C 148.441406 76.363281 148.441406 76.667969 148.441406 76.96875 C 147.835938 78.410156 146.886719 79.664062 145.824219 80.832031 C 145.566406 81.121094 145.296875 81.410156 145.023438 81.6875 C 144.75 81.90625 144.476562 82.128906 144.207031 82.351562 C 144.34375 82.074219 144.46875 81.792969 144.570312 81.5 C 144.734375 81.28125 144.875 81.007812 144.925781 80.902344 C 145.0625 80.628906 145.1875 80.351562 145.304688 80.070312 C 145.550781 79.472656 145.757812 78.859375 145.925781 78.238281 C 146.277344 76.953125 146.472656 75.617188 146.441406 74.285156 C 146.417969 73.367188 146.285156 72.445312 145.984375 71.578125 C 145.730469 70.847656 145.320312 70.234375 144.921875 69.578125 C 144.882812 69.519531 144.839844 69.453125 144.773438 69.4375 C 144.679688 69.410156 144.589844 69.484375 144.519531 69.550781 C 143.847656 70.25 143.472656 71.109375 143.121094 71.992188 C 142.753906 72.914062 142.5625 73.851562 142.570312 74.855469 C 142.582031 76.417969 143.039062 77.925781 143.453125 79.417969 C 143.558594 79.800781 143.664062 80.1875 143.757812 80.574219 C 143.804688 80.757812 143.84375 80.941406 143.886719 81.128906 C 143.914062 81.253906 143.914062 81.511719 143.976562 81.640625 C 143.753906 82.195312 143.453125 82.714844 143.078125 83.199219 C 143.050781 83.238281 143.035156 83.273438 143.03125 83.308594 C 142.988281 83.332031 142.945312 83.351562 142.898438 83.371094 C 142.910156 83.382812 142.917969 83.390625 142.925781 83.402344 C 142.941406 83.390625 142.960938 83.386719 142.980469 83.378906 C 137.597656 87.945312 132.714844 93.058594 128.714844 98.878906 C 128.738281 98.714844 128.757812 98.535156 128.785156 98.320312 C 128.835938 97.890625 128.894531 97.070312 128.84375 96.621094 C 130.621094 92.777344 131.582031 87.789062 127.886719 84.90625 C 127.671875 84.667969 127.464844 84.609375 127.296875 84.828125 C 124.230469 88.820312 126.261719 92.691406 128.046875 96.5625 C 128.046875 96.984375 128.101562 97.414062 128.082031 97.820312 C 128.050781 98.585938 127.898438 99.351562 127.875 100.117188 C 124.503906 105.277344 121.84375 110.949219 120.328125 116.929688 C 119.246094 121.210938 118.90625 125.527344 118.929688 129.871094 C 118.753906 129.042969 118.554688 128.21875 118.328125 127.402344 C 118.199219 126.953125 118.089844 126.410156 117.925781 125.898438 C 117.957031 125.792969 117.972656 125.648438 117.957031 125.457031 C 117.605469 121.996094 116.851562 117.972656 114.515625 115.269531 C 114.34375 115.070312 114.078125 115.066406 113.941406 115.640625 C 113.027344 119.492188 114.652344 123.078125 117.1875 125.957031 C 117.261719 126.042969 117.371094 126.113281 117.484375 126.144531 C 117.863281 127.332031 118.191406 128.535156 118.457031 129.753906 C 118.6875 130.804688 118.863281 131.863281 119.003906 132.925781 C 119.007812 133.066406 119.011719 133.207031 119.019531 133.347656 C 117.503906 129.492188 115.582031 125.832031 112.664062 122.859375 C 112.25 120.269531 110.464844 118.363281 108.144531 117.265625 C 106.988281 116.71875 105.742188 116.359375 104.484375 116.121094 C 103.875 116.007812 103.242188 115.886719 102.628906 115.902344 C 102.3125 115.914062 101.859375 116.007812 101.589844 115.804688 C 101.546875 115.851562 101.539062 115.925781 101.558594 116.023438 C 101.734375 116.992188 104.542969 120.226562 104.949219 120.648438 C 106.953125 122.761719 109.472656 123.925781 112.417969 123.511719 C 115.730469 127.078125 117.625 131.609375 119.175781 136.238281 C 119.207031 136.671875 119.234375 137.101562 119.265625 137.535156 C 119.808594 144.976562 120.785156 152.28125 122.738281 159.296875 C 121.132812 156.730469 119.195312 154.375 116.957031 152.308594 C 116.941406 152.195312 116.894531 152.058594 116.796875 151.890625 C 114.503906 147.976562 110.199219 146.492188 105.664062 146.378906 C 105.242188 146.367188 104.585938 146.773438 105.390625 147.453125 C 108.457031 149.929688 112.3125 152.5 116.492188 152.683594 C 119.296875 155.261719 121.640625 158.289062 123.425781 161.625 C 124.265625 164.304688 125.261719 166.9375 126.441406 169.515625 C 126.515625 169.824219 126.585938 170.128906 126.652344 170.4375 C 126.429688 170.160156 126.210938 169.875 125.996094 169.589844 C 125.085938 168.386719 124.191406 167.140625 122.972656 166.238281 C 122.191406 165.660156 121.335938 165.285156 120.382812 165.066406 C 119.46875 164.855469 118.5625 164.683594 117.59375 164.855469 C 117.496094 164.871094 117.378906 164.90625 117.339844 165 C 117.3125 165.066406 117.335938 165.140625 117.363281 165.207031 C 117.621094 165.914062 117.847656 166.613281 118.257812 167.242188 C 118.75 167.996094 119.386719 168.632812 120.089844 169.175781 C 121.117188 169.964844 122.289062 170.5625 123.515625 171 C 124.105469 171.214844 124.71875 171.386719 125.339844 171.519531 C 125.632812 171.582031 125.929688 171.636719 126.226562 171.679688 C 126.414062 171.703125 127.078125 171.792969 127.335938 171.617188 C 127.390625 171.65625 127.449219 171.6875 127.507812 171.726562 C 128.273438 173.238281 129.109375 174.734375 130.023438 176.207031 C 134.257812 183.042969 139.71875 189.113281 146.070312 194.03125 C 144.886719 193.589844 143.65625 193.230469 142.375 192.953125 C 140.921875 192.167969 139.269531 191.273438 138.210938 190.605469 C 138.214844 190.46875 138.175781 190.328125 138.132812 190.199219 C 137.828125 189.347656 137.3125 188.59375 136.832031 187.867188 C 136.367188 187.167969 135.863281 186.503906 135.304688 185.902344 C 133.835938 184.308594 131.945312 183.195312 129.792969 183.300781 C 129.734375 183.304688 129.6875 183.328125 129.644531 183.359375 C 129.507812 183.421875 129.390625 183.582031 129.457031 183.734375 C 130.164062 185.429688 131.023438 187.050781 132.441406 188.082031 C 133.351562 188.746094 134.351562 189.25 135.359375 189.714844 C 135.875 189.953125 136.394531 190.179688 136.910156 190.40625 C 137.105469 190.492188 137.296875 190.582031 137.492188 190.667969 C 138.667969 191.445312 139.894531 192.105469 141.164062 192.664062 C 137.519531 191.925781 133.953125 190.820312 130.476562 189.367188 C 130.382812 188.878906 129.667969 188.074219 129.488281 187.867188 C 128.839844 187.113281 128.082031 186.429688 127.308594 185.828125 C 124.925781 183.957031 121.960938 183.039062 119.285156 184.605469 C 118.984375 184.714844 118.84375 184.894531 118.980469 185.164062 C 119.347656 185.90625 119.800781 186.601562 120.34375 187.199219 C 122.875 189.992188 126.839844 189.890625 130.125 189.753906 C 130.164062 189.753906 130.191406 189.75 130.222656 189.742188 C 132.734375 190.800781 135.304688 191.660156 137.910156 192.34375 C 137.34375 192.3125 136.773438 192.285156 136.183594 192.28125 C 135.285156 192.222656 134.386719 192.191406 133.484375 192.191406 C 133.425781 192.136719 133.363281 192.097656 133.300781 192.074219 C 130.183594 190.976562 126.921875 190.960938 124.480469 193.292969 C 124.121094 193.636719 124.226562 193.867188 124.445312 193.941406 C 127.347656 194.933594 130.582031 194.007812 133.242188 192.949219 C 133.464844 192.855469 133.570312 192.742188 133.617188 192.628906 C 134.636719 192.632812 135.652344 192.675781 136.667969 192.753906 C 136.71875 192.757812 136.769531 192.761719 136.820312 192.765625 C 137.824219 192.847656 138.828125 192.964844 139.828125 193.121094 C 144.59375 193.925781 152.609375 198.566406 152.648438 198.511719 C 154.105469 199.378906 155.59375 200.195312 157.121094 200.941406 C 158.507812 201.621094 159.914062 202.25 161.339844 202.828125 C 160.40625 202.726562 159.46875 202.65625 158.527344 202.628906 C 158.089844 202.617188 157.582031 202.5625 157.085938 202.5625 C 157 202.503906 156.878906 202.453125 156.707031 202.414062 C 153.550781 201.757812 149.785156 201.300781 146.746094 202.609375 C 146.519531 202.707031 146.445312 202.941406 146.910156 203.21875 C 150.058594 205.101562 153.679688 204.667969 156.933594 203.230469 C 157.027344 203.191406 157.121094 203.113281 157.179688 203.023438 C 158.335938 203.015625 159.488281 203.066406 160.636719 203.167969 C 161.4375 203.242188 162.230469 203.355469 163.019531 203.484375 C 163.214844 203.558594 163.410156 203.632812 163.605469 203.703125 C 159.902344 203.980469 156.261719 204.667969 152.933594 206.363281 C 150.53125 206.003906 148.347656 207.050781 146.730469 208.792969 C 145.921875 209.664062 145.261719 210.664062 144.699219 211.707031 C 144.429688 212.214844 144.144531 212.738281 143.988281 213.285156 C 143.90625 213.566406 143.863281 213.996094 143.613281 214.175781 C 143.640625 214.226562 143.703125 214.253906 143.796875 214.265625 C 144.699219 214.378906 148.339844 212.796875 148.828125 212.558594 C 151.253906 211.378906 152.984375 209.476562 153.441406 206.761719 C 157.203125 204.980469 161.355469 204.496094 165.53125 204.367188 C 170.65625 206.058594 175.972656 207.128906 181.34375 207.554688 C 181.160156 207.597656 180.992188 207.648438 180.859375 207.695312 C 177.066406 207.089844 172.394531 207.445312 170.492188 211.234375 C 170.316406 211.472656 170.300781 211.660156 170.53125 211.75 C 174.703125 213.402344 177.804688 210.785156 180.957031 208.382812 C 181.335938 208.28125 181.714844 208.136719 182.082031 208.054688 C 182.746094 207.914062 183.429688 207.859375 184.089844 207.714844 C 184.703125 207.738281 185.3125 207.746094 185.921875 207.738281 C 188.128906 207.726562 190.335938 207.585938 192.535156 207.417969 C 195.105469 207.226562 197.667969 206.984375 200.234375 206.734375 C 201.550781 206.605469 202.871094 206.476562 204.1875 206.34375 C 204.984375 206.265625 207.089844 206.035156 207.328125 205.9375 C 207.394531 205.910156 207.496094 205.910156 207.519531 205.824219 C 207.550781 205.726562 207.449219 205.617188 207.359375 205.617188 " fill-opacity="1" fill-rule="nonzero"/></g><path fill="#726962" d="M 212.273438 141.226562 C 211.113281 142.28125 209.703125 143.121094 208.335938 143.710938 C 209.96875 143.453125 211.253906 142.503906 212.273438 141.226562 Z M 213.089844 139.441406 C 211.546875 140.753906 209.886719 141.917969 208.261719 143.121094 C 210.027344 142.265625 211.875 141.011719 213.089844 139.441406 Z M 212.6875 139.109375 C 210.910156 140.015625 209.253906 141.003906 208.03125 142.621094 C 209.535156 141.382812 211.050781 140.15625 212.6875 139.109375 Z M 207.664062 142.117188 C 207.699219 142.121094 207.730469 142.125 207.757812 142.132812 C 208.398438 141.265625 209.191406 140.546875 210.070312 139.9375 C 209.109375 140.46875 208.273438 141.15625 207.664062 142.117188 Z M 212.40625 130.421875 C 210.972656 132.800781 209.273438 135.011719 207.5625 137.207031 C 209.828125 135.402344 211.179688 132.996094 212.40625 130.421875 Z M 211.320312 134.199219 C 210.222656 135.875 208.851562 137.347656 207.070312 138.40625 C 209.101562 137.484375 210.394531 135.980469 211.320312 134.199219 Z M 206.839844 136.902344 C 208.5 134.535156 210.097656 132.117188 211.914062 129.863281 C 209.71875 131.65625 207.992188 134.34375 206.839844 136.902344 Z M 205.992188 136.816406 C 206.78125 134.839844 207.933594 132.792969 209.398438 131.09375 C 207.605469 132.601562 206.300781 134.472656 205.992188 136.816406 Z M 205.273438 111.074219 C 205.347656 111.195312 205.421875 111.316406 205.488281 111.445312 C 207.695312 115.515625 204.414062 120.796875 201.378906 123.769531 C 204.859375 122.777344 207.84375 121.074219 208.539062 116.957031 C 209 114.21875 208.011719 111.828125 205.273438 111.074219 Z M 202.214844 138.167969 C 201.546875 139.230469 200.78125 140.234375 199.945312 141.1875 C 200.996094 140.367188 201.703125 139.335938 202.214844 138.167969 Z M 199.664062 140.261719 C 199.691406 140.265625 199.71875 140.269531 199.746094 140.28125 C 200.636719 139.089844 201.824219 137.351562 202.414062 136.410156 C 201.714844 137.289062 200.488281 139.03125 199.664062 140.261719 Z M 198.242188 141.347656 C 198.367188 140.957031 198.6875 140.601562 198.910156 140.261719 C 199.144531 139.894531 199.386719 139.535156 199.640625 139.179688 C 199.890625 138.824219 200.152344 138.472656 200.421875 138.128906 C 200.550781 137.964844 200.695312 137.808594 200.828125 137.648438 C 200.921875 137.53125 201.246094 137.0625 201.441406 136.71875 C 201.105469 136.964844 200.515625 137.777344 200.25 138.082031 C 199.960938 138.410156 199.683594 138.742188 199.429688 139.09375 C 198.925781 139.78125 198.507812 140.527344 198.242188 141.347656 Z M 193.941406 131.214844 C 189.980469 123.707031 191.589844 112.414062 200.671875 109.71875 C 200.949219 109.636719 201.230469 109.566406 201.515625 109.511719 C 197.941406 108.480469 193.820312 110.96875 191.710938 113.863281 C 189.253906 117.242188 188.566406 121.683594 190.101562 125.59375 C 190.949219 127.746094 192.316406 129.597656 193.941406 131.214844 Z M 195.449219 148.921875 C 193.25 153.453125 190.042969 157.703125 185.484375 159.933594 C 182.109375 161.582031 177.222656 161.902344 174.339844 159.511719 C 176.707031 164.289062 182.558594 165.960938 187.167969 163.039062 C 191.894531 160.042969 193.921875 154.351562 195.449219 148.921875 Z M 206.035156 139.617188 C 203.519531 142.710938 200.238281 144.542969 196.738281 145.207031 C 200.214844 145.785156 204.105469 146.105469 206.421875 143.570312 C 207.285156 139.839844 211.039062 138.574219 214.34375 137.550781 C 214.375 137.542969 214.410156 137.53125 214.445312 137.542969 C 214.472656 137.554688 214.492188 137.570312 214.511719 137.585938 C 214.886719 137.945312 213.804688 139.78125 213.675781 140.003906 C 213.179688 140.863281 212.59375 141.679688 211.890625 142.378906 C 210.511719 143.753906 208.691406 144.527344 206.734375 144.179688 C 206.707031 144.179688 206.6875 144.175781 206.660156 144.171875 C 204.585938 146.25 201.332031 146.9375 198.4375 146.6875 C 197.957031 146.644531 197.476562 146.582031 197 146.511719 C 195.40625 152.921875 193.324219 159.722656 187.859375 163.605469 C 184.039062 166.320312 179.34375 166.207031 175.738281 163.515625 C 171.546875 160.386719 170.957031 154.71875 172.390625 149.574219 C 175.195312 139.511719 184.894531 131.859375 194.457031 133.046875 C 191.386719 130.375 188.902344 127.042969 188.386719 122.90625 C 187.820312 118.402344 189.796875 113.683594 193.324219 110.847656 C 196.019531 108.683594 200.570312 107.417969 203.570312 109.34375 C 205.046875 109.386719 206.511719 109.792969 207.71875 110.632812 C 209.871094 112.128906 210.089844 114.605469 209.601562 117 C 208.507812 122.367188 204.027344 124.0625 199.171875 125.019531 C 198.691406 125.113281 198.558594 124.433594 199.019531 124.339844 C 199.464844 124.246094 199.902344 124.144531 200.339844 124.039062 C 200.34375 124.039062 200.34375 124.035156 200.347656 124.03125 C 203.285156 121.277344 207.785156 114.429688 203.886719 110.84375 C 201.804688 110.699219 199.726562 111.410156 198.089844 112.71875 C 191.777344 117.769531 192.054688 127.808594 197.125 133.5625 C 197.324219 133.789062 197.304688 134.050781 197.179688 134.253906 C 197.066406 134.503906 196.796875 134.714844 196.472656 134.683594 C 190.488281 134.15625 184.476562 135.546875 179.808594 140.101562 C 175.890625 143.925781 172.636719 150.214844 173.328125 155.984375 C 175.898438 161.820312 183.023438 160.816406 187.472656 157.652344 C 191.398438 154.863281 193.84375 150.601562 195.828125 146.320312 C 194.207031 146.039062 192.59375 145.703125 190.945312 145.605469 C 187.628906 145.410156 184.996094 146.308594 182.761719 148.796875 C 182.578125 149 182.261719 148.8125 182.425781 148.566406 C 185.019531 144.648438 188.917969 143.980469 193.3125 144.621094 C 194.789062 144.265625 196.160156 143.5625 197.355469 142.582031 C 197.355469 142.582031 197.351562 142.582031 197.351562 142.582031 C 197.320312 142.441406 197.335938 142.273438 197.335938 142.171875 C 197.339844 141.929688 197.378906 141.6875 197.421875 141.453125 C 197.507812 140.984375 197.644531 140.535156 197.824219 140.101562 C 198.1875 139.222656 198.71875 138.429688 199.320312 137.6875 C 200.527344 136.199219 202.027344 134.929688 203.3125 133.5 C 203.339844 133.464844 203.371094 133.429688 203.402344 133.398438 C 203.5 133.285156 203.75 133.304688 203.902344 133.445312 C 204.082031 133.609375 204.039062 133.867188 204.039062 134.035156 C 204.035156 134.550781 203.929688 135.035156 203.847656 135.523438 C 203.8125 135.742188 203.769531 135.957031 203.722656 136.171875 C 203.628906 136.609375 203.519531 137.035156 203.382812 137.453125 C 203.117188 138.289062 202.761719 139.085938 202.289062 139.816406 C 201.828125 140.53125 201.253906 141.179688 200.542969 141.710938 C 200.1875 141.972656 199.804688 142.207031 199.386719 142.402344 C 198.988281 142.589844 198.519531 142.816406 198.03125 142.878906 C 197.179688 143.644531 196.195312 144.246094 195.132812 144.667969 C 196.449219 144.578125 197.761719 144.332031 199.074219 143.828125 C 201.480469 142.902344 203.566406 141.355469 205.425781 139.402344 C 205.398438 139.324219 205.386719 139.234375 205.382812 139.125 C 204.816406 136.339844 205.851562 133.710938 207.761719 131.6875 C 208.738281 130.652344 209.886719 129.789062 211.089844 129.046875 C 211.402344 128.855469 213.988281 127.238281 214.511719 127.757812 C 214.539062 127.785156 214.5625 127.816406 214.578125 127.855469 C 214.59375 127.902344 214.582031 127.953125 214.570312 128 C 213.214844 132.828125 211.523438 138.34375 206.035156 139.617188 " fill-opacity="1" fill-rule="nonzero"/><g fill="#726962" fill-opacity="1"><g transform="translate(197.907545, 177.810077)"><g><path d="M -0.816406 0 L 4.617188 0 L 4.617188 -0.625 C 2.984375 -0.960938 2.789062 -2.550781 4.042969 -5.675781 L 6.878906 -12.703125 L 20.449219 -12.703125 L 23.382812 -5.628906 C 24.921875 -2.019531 25.308594 -1.058594 23.816406 -0.625 L 23.816406 0 L 31.273438 0 L 31.273438 -0.625 C 30.261719 -1.058594 29.109375 -2.019531 27.617188 -5.628906 L 15.78125 -34.0625 L 12.171875 -32.429688 L 12.605469 -31.417969 C 12.992188 -30.648438 13.039062 -30.023438 12.703125 -29.15625 L 3.222656 -5.675781 C 1.730469 -2.019531 0.527344 -1.058594 -0.816406 -0.625 Z M 7.167969 -13.421875 L 13.566406 -29.253906 L 20.160156 -13.421875 Z M 7.167969 -13.421875 "/></g></g></g><g fill="#726962" fill-opacity="1"><g transform="translate(150.91107, 130.433276)"><g><path d="M 2.40625 0 L 8.46875 0 L 8.46875 -0.625 C 6.351562 -1.203125 5.195312 -2.550781 5.195312 -8.035156 L 5.195312 -29.398438 L 17.511719 -9.140625 L 18.425781 -9.140625 L 30.648438 -29.78125 L 30.648438 -6.109375 C 30.648438 -2.164062 30.167969 -1.058594 28.722656 -0.625 L 28.722656 0 L 36.515625 0 L 36.515625 -0.625 C 35.027344 -1.058594 34.59375 -2.164062 34.59375 -6.109375 L 34.59375 -25.644531 C 34.59375 -31.128906 35.601562 -32.476562 37.527344 -33.054688 L 37.527344 -33.679688 L 32.089844 -33.679688 L 19.773438 -12.941406 L 7.21875 -33.679688 L 1.394531 -33.679688 L 1.394531 -33.054688 C 3.320312 -32.476562 4.332031 -31.128906 4.332031 -25.644531 L 4.332031 -6.109375 C 4.332031 -2.164062 3.898438 -1.058594 2.40625 -0.625 Z M 2.40625 0 "/></g></g></g><g fill="#726962" fill-opacity="1"><g transform="translate(154.452555, 231.900131)"><g/></g></g><g fill="#726962" fill-opacity="1"><g transform="translate(154.452555, 231.900131)"><g><path d="M -0.683594 0 L 4.476562 0 C 4.726562 0 4.90625 -0.0703125 5.0625 -0.277344 C 5.304688 -0.539062 5.640625 -1.007812 5.820312 -1.210938 L 5.722656 -1.285156 C 5.257812 -0.851562 5.027344 -0.707031 3.828125 -0.707031 L 0.445312 -0.707031 C 4.308594 -3.300781 7.019531 -5.351562 7.019531 -7.296875 C 7.019531 -8.148438 6.382812 -8.6875 5.398438 -8.6875 C 4.378906 -8.699219 3.445312 -8.027344 2.617188 -7.105469 L 2.710938 -7.007812 C 3.433594 -7.765625 4.164062 -8.0625 4.8125 -8.0625 C 5.605469 -8.0625 6.035156 -7.621094 6.035156 -6.960938 C 6.035156 -5.761719 4.738281 -3.71875 -0.15625 -0.515625 L -0.757812 -0.132812 Z M -0.683594 0 "/></g></g></g><g fill="#726962" fill-opacity="1"><g transform="translate(161.412565, 231.900131)"><g><path d="M 0.574219 0 L 1.332031 0 C 1.429688 0 1.5 -0.0351562 1.558594 -0.121094 L 7.65625 -8.554688 L 7.597656 -8.652344 C 7.296875 -8.507812 7.03125 -8.472656 6.707031 -8.472656 C 5.761719 -8.472656 4.738281 -8.722656 3.925781 -8.722656 C 3.191406 -8.722656 2.472656 -8.183594 1.726562 -7.332031 L 1.847656 -7.246094 C 2.28125 -7.765625 2.734375 -7.921875 3.214844 -7.921875 C 3.949219 -7.921875 5.160156 -7.667969 5.890625 -7.667969 C 6.226562 -7.667969 6.527344 -7.703125 6.851562 -7.777344 L 0.480469 -0.226562 C 0.371094 -0.109375 0.433594 0 0.574219 0 Z M 0.574219 0 "/></g></g></g><g fill="#726962" fill-opacity="1"><g transform="translate(167.004571, 231.900131)"><g/></g></g><g fill="#726962" fill-opacity="1"><g transform="translate(169.40458, 231.900131)"><g><path d="M -0.0976562 0 L 5.640625 0 C 5.878906 0 6.132812 -0.046875 6.300781 -0.179688 C 6.636719 -0.46875 6.949219 -0.898438 7.332031 -1.390625 L 7.222656 -1.464844 C 6.851562 -1.066406 6.625 -0.828125 5.988281 -0.828125 L 0.886719 -0.828125 L 1.414062 -1.140625 C 1.882812 -1.414062 2.148438 -1.714844 2.460938 -2.257812 C 2.976562 -3.15625 3.382812 -4.042969 3.804688 -4.933594 L 7.800781 -4.933594 L 7.800781 -5.125 L 3.886719 -5.125 C 4.285156 -5.953125 4.679688 -6.792969 5.171875 -7.632812 C 5.4375 -8.089844 5.640625 -8.460938 6.085938 -8.773438 L 9.132812 -8.773438 C 9.5625 -8.773438 9.71875 -8.710938 9.71875 -8.519531 C 9.71875 -8.328125 9.46875 -8.0625 8.941406 -7.667969 L 9.035156 -7.535156 C 9.9375 -8.21875 10.476562 -8.734375 10.476562 -9.179688 C 10.476562 -9.445312 10.261719 -9.601562 9.78125 -9.601562 L 3.589844 -9.601562 C 3.359375 -9.601562 3.132812 -9.550781 2.964844 -9.421875 C 2.617188 -9.132812 2.316406 -8.699219 1.933594 -8.207031 L 2.027344 -8.136719 C 2.410156 -8.53125 2.640625 -8.773438 3.277344 -8.773438 L 5.785156 -8.773438 L 5.269531 -8.53125 C 4.65625 -8.230469 4.332031 -7.824219 4.019531 -7.273438 C 3.601562 -6.550781 3.253906 -5.832031 2.902344 -5.125 L 1.714844 -5.125 L 1.714844 -4.933594 L 2.820312 -4.933594 C 2.316406 -3.886719 1.835938 -2.84375 1.234375 -1.789062 C 0.972656 -1.34375 0.769531 -0.996094 0.46875 -0.769531 L 0.226562 -0.574219 C 0.0117188 -0.40625 -0.253906 -0.191406 -0.253906 -0.121094 C -0.253906 -0.046875 -0.238281 0 -0.0976562 0 Z M -0.0976562 0 "/></g></g></g><g fill="#726962" fill-opacity="1"><g transform="translate(177.672593, 231.900131)"><g><path d="M -0.046875 0 L 0.527344 0 C 0.625 0 0.683594 -0.0351562 0.742188 -0.132812 C 0.875 -0.335938 1.164062 -0.828125 1.5 -1.429688 C 2.207031 -2.484375 3.097656 -3.515625 3.910156 -4.285156 C 4.667969 -5.003906 5.269531 -5.472656 5.699219 -5.472656 C 5.929688 -5.472656 6.023438 -5.328125 6.023438 -5.136719 C 6.023438 -4.308594 3.910156 -1.835938 3.910156 -0.601562 C 3.910156 -0.3125 4.054688 0.0976562 4.570312 0.0976562 C 4.933594 0.0976562 5.640625 -0.324219 6.515625 -1.128906 L 6.421875 -1.246094 C 5.914062 -0.792969 5.542969 -0.5625 5.292969 -0.5625 C 5.074219 -0.5625 4.957031 -0.683594 4.957031 -0.886719 C 4.957031 -1.714844 7.054688 -4.355469 7.054688 -5.4375 C 7.054688 -5.761719 6.863281 -6.097656 6.445312 -6.097656 C 5.867188 -6.097656 4.871094 -5.4375 3.816406 -4.402344 C 3.203125 -3.816406 2.578125 -3.132812 1.992188 -2.375 C 2.640625 -3.625 3.277344 -4.992188 3.277344 -5.472656 C 3.277344 -5.746094 3.121094 -6.097656 2.664062 -6.097656 C 2.257812 -6.097656 1.535156 -5.664062 0.660156 -4.871094 L 0.757812 -4.753906 C 1.296875 -5.242188 1.679688 -5.449219 1.933594 -5.449219 C 2.136719 -5.449219 2.242188 -5.328125 2.242188 -5.136719 C 2.242188 -4.476562 0.601562 -1.523438 -0.15625 -0.226562 C -0.226562 -0.0976562 -0.179688 0 -0.046875 0 Z M -0.046875 0 "/></g></g></g><g fill="#726962" fill-opacity="1"><g transform="translate(184.84861, 231.900131)"><g><path d="M 1.558594 0.0859375 C 2.160156 0.0859375 3.203125 -0.371094 4.261719 -1.34375 L 4.164062 -1.453125 C 3.335938 -0.707031 2.734375 -0.574219 2.316406 -0.574219 C 1.621094 -0.574219 1.273438 -0.972656 1.199219 -1.535156 C 4.789062 -3.792969 5.699219 -4.621094 5.699219 -5.398438 C 5.699219 -5.820312 5.386719 -6.097656 4.765625 -6.097656 C 2.867188 -6.097656 0.144531 -3.445312 0.144531 -1.320312 C 0.144531 -0.625 0.574219 0.0976562 1.558594 0.0859375 Z M 1.1875 -1.703125 L 1.1875 -1.714844 C 1.152344 -3.300781 2.449219 -5.640625 3.984375 -5.640625 C 4.378906 -5.640625 4.679688 -5.410156 4.679688 -5.015625 C 4.679688 -4.140625 3.71875 -3.289062 1.1875 -1.703125 Z M 1.1875 -1.703125 "/></g></g></g><g fill="#726962" fill-opacity="1"><g transform="translate(190.104618, 231.900131)"><g><path d="M -0.046875 0 L 0.527344 0 C 0.625 0 0.683594 -0.0351562 0.742188 -0.132812 C 0.960938 -0.457031 1.546875 -1.5 2.101562 -2.578125 C 2.785156 -3.816406 3.574219 -4.894531 4.246094 -5.328125 C 4.933594 -5.125 5.375 -5.050781 5.761719 -5.050781 C 6.203125 -5.050781 6.625 -5.554688 6.625 -5.84375 C 6.625 -6.035156 6.203125 -6.097656 5.914062 -6.097656 C 4.570312 -6.097656 3.574219 -5.136719 2.746094 -3.898438 C 3.058594 -4.597656 3.277344 -5.183594 3.277344 -5.472656 C 3.277344 -5.746094 3.121094 -6.097656 2.664062 -6.097656 C 2.257812 -6.097656 1.535156 -5.664062 0.660156 -4.871094 L 0.757812 -4.753906 C 1.296875 -5.242188 1.679688 -5.449219 1.933594 -5.449219 C 2.136719 -5.449219 2.242188 -5.328125 2.242188 -5.136719 C 2.242188 -4.476562 0.601562 -1.523438 -0.15625 -0.226562 C -0.226562 -0.0976562 -0.179688 0 -0.046875 0 Z M -0.046875 0 "/></g></g></g><g fill="#726962" fill-opacity="1"><g transform="translate(195.720634, 231.900131)"><g><path d="M 1.535156 0.0976562 C 3.109375 0.0976562 5.761719 -2.410156 5.761719 -4.714844 C 5.761719 -5.339844 5.460938 -6.097656 4.5 -6.097656 C 2.652344 -6.097656 0.167969 -3.324219 0.167969 -1.367188 C 0.167969 -0.433594 0.757812 0.0976562 1.535156 0.0976562 Z M 1.164062 -1.800781 C 1.164062 -3.203125 2.183594 -5.59375 3.695312 -5.59375 C 4.378906 -5.59375 4.789062 -5.171875 4.789062 -4.320312 C 4.789062 -3.035156 3.804688 -0.394531 2.292969 -0.394531 C 1.464844 -0.394531 1.164062 -0.996094 1.164062 -1.800781 Z M 1.164062 -1.800781 "/></g></g></g><g fill="#726962" fill-opacity="1"><g transform="translate(201.636645, 231.900131)"><g/></g></g><g fill="#726962" fill-opacity="1"><g transform="translate(204.036654, 231.900131)"><g><path d="M -0.683594 0 L 4.476562 0 C 4.726562 0 4.90625 -0.0703125 5.0625 -0.277344 C 5.304688 -0.539062 5.640625 -1.007812 5.820312 -1.210938 L 5.722656 -1.285156 C 5.257812 -0.851562 5.027344 -0.707031 3.828125 -0.707031 L 0.445312 -0.707031 C 4.308594 -3.300781 7.019531 -5.351562 7.019531 -7.296875 C 7.019531 -8.148438 6.382812 -8.6875 5.398438 -8.6875 C 4.378906 -8.699219 3.445312 -8.027344 2.617188 -7.105469 L 2.710938 -7.007812 C 3.433594 -7.765625 4.164062 -8.0625 4.8125 -8.0625 C 5.605469 -8.0625 6.035156 -7.621094 6.035156 -6.960938 C 6.035156 -5.761719 4.738281 -3.71875 -0.15625 -0.515625 L -0.757812 -0.132812 Z M -0.683594 0 "/></g></g></g><g fill="#726962" fill-opacity="1"><g transform="translate(210.996664, 231.900131)"><g><path d="M 1.234375 0.0976562 C 3.539062 0.0976562 6.9375 -4.703125 6.9375 -7.390625 C 6.9375 -8.050781 6.589844 -8.6875 5.699219 -8.6875 C 3.191406 -8.6875 -0.0234375 -3.875 -0.0234375 -1.34375 C -0.0234375 -0.457031 0.445312 0.0976562 1.234375 0.0976562 Z M 0.972656 -1.765625 C 0.972656 -4.054688 3.265625 -8.269531 4.945312 -8.269531 C 5.617188 -8.269531 5.929688 -7.824219 5.929688 -6.960938 C 5.929688 -4.753906 3.707031 -0.421875 1.96875 -0.421875 C 1.285156 -0.421875 0.972656 -0.972656 0.972656 -1.765625 Z M 0.972656 -1.765625 "/></g></g></g><g fill="#726962" fill-opacity="1"><g transform="translate(217.296682, 231.900131)"><g><path d="M -0.683594 0 L 4.476562 0 C 4.726562 0 4.90625 -0.0703125 5.0625 -0.277344 C 5.304688 -0.539062 5.640625 -1.007812 5.820312 -1.210938 L 5.722656 -1.285156 C 5.257812 -0.851562 5.027344 -0.707031 3.828125 -0.707031 L 0.445312 -0.707031 C 4.308594 -3.300781 7.019531 -5.351562 7.019531 -7.296875 C 7.019531 -8.148438 6.382812 -8.6875 5.398438 -8.6875 C 4.378906 -8.699219 3.445312 -8.027344 2.617188 -7.105469 L 2.710938 -7.007812 C 3.433594 -7.765625 4.164062 -8.0625 4.8125 -8.0625 C 5.605469 -8.0625 6.035156 -7.621094 6.035156 -6.960938 C 6.035156 -5.761719 4.738281 -3.71875 -0.15625 -0.515625 L -0.757812 -0.132812 Z M -0.683594 0 "/></g></g></g><g fill="#726962" fill-opacity="1"><g transform="translate(224.256692, 231.900131)"><g><path d="M 2.878906 0 L 3.457031 0 C 3.550781 0 3.625 -0.0351562 3.660156 -0.132812 L 4.644531 -2.183594 L 4.789062 -2.183594 C 5.519531 -2.183594 6.109375 -2.675781 6.730469 -3.347656 L 6.636719 -3.445312 C 6.238281 -3 5.878906 -2.773438 5.195312 -2.773438 C 5.113281 -2.773438 5.027344 -2.773438 4.933594 -2.785156 L 7.667969 -8.460938 C 7.691406 -8.519531 7.714844 -8.566406 7.714844 -8.605469 C 7.714844 -8.675781 7.558594 -8.699219 7.453125 -8.699219 C 7.367188 -8.699219 7.320312 -8.675781 7.273438 -8.628906 L 0.335938 -2.664062 L 0.0351562 -2.410156 L 0.109375 -2.292969 C 0.265625 -2.386719 0.503906 -2.519531 0.984375 -2.519531 C 1.691406 -2.519531 2.867188 -2.375 3.742188 -2.28125 L 2.746094 -0.214844 C 2.675781 -0.0976562 2.746094 0 2.878906 0 Z M 0.898438 -2.929688 L 6.265625 -7.5 L 4.03125 -2.878906 C 3.40625 -2.964844 2.675781 -3.058594 1.96875 -3.058594 C 1.632812 -3.058594 1.261719 -3.011719 0.898438 -2.929688 Z M 0.898438 -2.929688 "/></g></g></g></svg>