<svg xmlns="http://www.w3.org/2000/svg" xmlns:xlink="http://www.w3.org/1999/xlink" width="500" zoomAndPan="magnify" viewBox="0 0 375 374.999991" height="500" preserveAspectRatio="xMidYMid meet" version="1.0"><defs><g/></defs><g fill="#726962" fill-opacity="1"><g transform="translate(8.095676, 205.335415)"><g><path d="M 39.203125 0.519531 C 39.953125 0.519531 40.992188 -1.671875 42.605469 -5.304688 C 44.046875 -8.53125 47.503906 -15.855469 54.941406 -30.957031 C 58.863281 -38.972656 61.917969 -42.777344 64.914062 -43.699219 C 69.585938 -42.949219 72.238281 -42.257812 74.253906 -42.257812 C 75.925781 -42.257812 77.714844 -44.105469 77.714844 -45.429688 C 77.714844 -46.351562 75.179688 -46.582031 73.101562 -46.582031 C 62.207031 -46.582031 58.746094 -40.875 53.039062 -29.285156 C 47.910156 -18.738281 44.679688 -12.050781 42.144531 -6.628906 L 36.839844 -45.082031 C 36.78125 -45.832031 36.667969 -46.121094 35.917969 -46.121094 L 19.429688 -46.121094 C 18.277344 -46.121094 17.238281 -45.890625 16.375 -45.257812 C 14.757812 -43.871094 13.261719 -41.96875 11.414062 -39.605469 L 11.933594 -39.261719 C 13.722656 -41.164062 14.816406 -42.257812 17.871094 -42.316406 L 32.632812 -42.546875 C 29.460938 -35.398438 25.019531 -26.578125 20.640625 -19.429688 C 15.046875 -10.261719 10.203125 -4.785156 6.226562 -2.824219 C 1.960938 -3.34375 -1.09375 -4.09375 -3.226562 -4.09375 C -5.1875 -4.09375 -7.035156 -2.304688 -7.035156 -1.039062 C -7.035156 0 -3.632812 0.402344 -1.152344 0.402344 C 8.070312 0.347656 14.816406 -8.300781 21.445312 -18.96875 C 25.886719 -26.175781 30.152344 -34.707031 33.148438 -41.507812 L 38.625 -0.402344 C 38.742188 0.347656 38.914062 0.519531 39.203125 0.519531 Z M 39.203125 0.519531 "/></g></g></g><g fill="#726962" fill-opacity="1"><g transform="translate(61.300276, 205.335415)"><g><path d="M 7.378906 0.460938 C 14.933594 0.460938 27.671875 -11.589844 27.671875 -22.65625 C 27.671875 -25.65625 26.230469 -29.285156 21.621094 -29.285156 C 12.742188 -29.285156 0.808594 -15.96875 0.808594 -6.574219 C 0.808594 -2.074219 3.632812 0.460938 7.378906 0.460938 Z M 5.59375 -8.648438 C 5.59375 -15.394531 10.492188 -26.867188 17.757812 -26.867188 C 21.042969 -26.867188 23.003906 -24.847656 23.003906 -20.753906 C 23.003906 -14.585938 18.277344 -1.902344 11.011719 -1.902344 C 7.035156 -1.902344 5.59375 -4.785156 5.59375 -8.648438 Z M 5.59375 -8.648438 "/></g></g></g><g fill="#726962" fill-opacity="1"><g transform="translate(89.718334, 205.335415)"><g><path d="M 3.054688 0.402344 C 9.167969 0.402344 16.027344 -3.921875 16.316406 -9.222656 C 16.546875 -14.355469 11.011719 -19.023438 11.242188 -23.753906 C 11.355469 -25.136719 12.105469 -26.460938 14.125 -27.269531 C 17.8125 -25.539062 20.179688 -24.328125 22.023438 -24.328125 C 23.984375 -24.328125 25.597656 -26.175781 25.597656 -27.613281 C 25.597656 -28.652344 22.484375 -29.230469 20.234375 -29.230469 C 14.183594 -29.230469 7.667969 -25.65625 7.496094 -20.582031 C 7.320312 -16.316406 12.511719 -11.414062 12.511719 -6.917969 C 12.511719 -3.515625 9.742188 -1.269531 6.515625 -1.269531 C 2.882812 -1.324219 1.441406 -3.515625 1.441406 -5.765625 C 1.441406 -6.976562 1.902344 -8.070312 2.480469 -8.9375 L 2.074219 -9.28125 C -1.210938 -7.320312 -2.710938 -5.476562 -2.824219 -3.804688 C -2.996094 -1.382812 -1.152344 0.402344 3.054688 0.402344 Z M 3.054688 0.402344 "/></g></g></g><g fill="#726962" fill-opacity="1"><g transform="translate(110.98865, 205.335415)"><g/></g></g><g fill="#726962" fill-opacity="1"><g transform="translate(122.517272, 205.335415)"><g><path d="M 19.660156 0.460938 C 25.019531 0.460938 30.554688 -1.902344 36.261719 -7.839844 L 35.742188 -8.359375 C 31.996094 -4.667969 27.5 -3.054688 23.0625 -3.054688 C 13.835938 -3.054688 8.53125 -9.453125 8.707031 -17.871094 C 8.9375 -31.191406 19.660156 -42.199219 31.996094 -44.96875 C 37.761719 -42.375 44.21875 -39.953125 46.8125 -39.953125 C 49.292969 -39.953125 51.253906 -42.144531 51.253906 -43.527344 C 51.253906 -44.796875 45.3125 -46.582031 38.570312 -46.582031 C 21.390625 -46.582031 4.035156 -31.421875 4.035156 -14.644531 C 4.035156 -5.878906 10.203125 0.460938 19.660156 0.460938 Z M 19.660156 0.460938 "/></g></g></g><g fill="#726962" fill-opacity="1"><g transform="translate(162.463952, 205.335415)"><g><path d="M 21.445312 0.460938 C 23.234375 0.460938 26.578125 -1.613281 30.785156 -5.417969 L 30.324219 -5.996094 C 27.960938 -3.804688 26.175781 -2.824219 24.964844 -2.824219 C 23.925781 -2.824219 23.40625 -3.402344 23.40625 -4.496094 C 23.40625 -6.339844 24.386719 -9.453125 27.097656 -14.703125 C 29.34375 -18.96875 32.515625 -23.808594 34.304688 -26.460938 C 34.707031 -27.039062 34.535156 -27.5 33.898438 -27.671875 L 33.148438 -27.902344 C 30.152344 -28.882812 26.117188 -29.285156 23.925781 -29.285156 C 12.566406 -29.285156 0.402344 -14.757812 0.289062 -4.496094 C 0.289062 -2.074219 1.269531 0.347656 4.035156 0.460938 C 7.726562 0.519531 15.394531 -7.320312 24.789062 -18.621094 C 21.503906 -13.261719 18.332031 -7.089844 18.332031 -2.882812 C 18.332031 -1.5 18.96875 0.460938 21.445312 0.460938 Z M 5.074219 -5.996094 C 5.074219 -13.375 11.53125 -27.152344 19.773438 -27.152344 C 22.484375 -27.152344 26.347656 -26.058594 29 -25.019531 L 28.25 -23.925781 C 17.179688 -10.148438 9.628906 -2.710938 7.035156 -2.710938 C 5.476562 -2.710938 5.074219 -4.554688 5.074219 -5.996094 Z M 5.074219 -5.996094 "/></g></g></g><g fill="#726962" fill-opacity="1"><g transform="translate(196.127532, 205.335415)"><g><path d="M 3.054688 0.402344 C 9.167969 0.402344 16.027344 -3.921875 16.316406 -9.222656 C 16.546875 -14.355469 11.011719 -19.023438 11.242188 -23.753906 C 11.355469 -25.136719 12.105469 -26.460938 14.125 -27.269531 C 17.8125 -25.539062 20.179688 -24.328125 22.023438 -24.328125 C 23.984375 -24.328125 25.597656 -26.175781 25.597656 -27.613281 C 25.597656 -28.652344 22.484375 -29.230469 20.234375 -29.230469 C 14.183594 -29.230469 7.667969 -25.65625 7.496094 -20.582031 C 7.320312 -16.316406 12.511719 -11.414062 12.511719 -6.917969 C 12.511719 -3.515625 9.742188 -1.269531 6.515625 -1.269531 C 2.882812 -1.324219 1.441406 -3.515625 1.441406 -5.765625 C 1.441406 -6.976562 1.902344 -8.070312 2.480469 -8.9375 L 2.074219 -9.28125 C -1.210938 -7.320312 -2.710938 -5.476562 -2.824219 -3.804688 C -2.996094 -1.382812 -1.152344 0.402344 3.054688 0.402344 Z M 3.054688 0.402344 "/></g></g></g><g fill="#726962" fill-opacity="1"><g transform="translate(217.397848, 205.335415)"><g><path d="M 21.445312 0.460938 C 23.234375 0.460938 26.578125 -1.613281 30.785156 -5.417969 L 30.324219 -5.996094 C 27.960938 -3.804688 26.175781 -2.824219 24.964844 -2.824219 C 23.925781 -2.824219 23.40625 -3.402344 23.40625 -4.496094 C 23.40625 -6.339844 24.386719 -9.453125 27.097656 -14.703125 C 29.34375 -18.96875 32.515625 -23.808594 34.304688 -26.460938 C 34.707031 -27.039062 34.535156 -27.5 33.898438 -27.671875 L 33.148438 -27.902344 C 30.152344 -28.882812 26.117188 -29.285156 23.925781 -29.285156 C 12.566406 -29.285156 0.402344 -14.757812 0.289062 -4.496094 C 0.289062 -2.074219 1.269531 0.347656 4.035156 0.460938 C 7.726562 0.519531 15.394531 -7.320312 24.789062 -18.621094 C 21.503906 -13.261719 18.332031 -7.089844 18.332031 -2.882812 C 18.332031 -1.5 18.96875 0.460938 21.445312 0.460938 Z M 5.074219 -5.996094 C 5.074219 -13.375 11.53125 -27.152344 19.773438 -27.152344 C 22.484375 -27.152344 26.347656 -26.058594 29 -25.019531 L 28.25 -23.925781 C 17.179688 -10.148438 9.628906 -2.710938 7.035156 -2.710938 C 5.476562 -2.710938 5.074219 -4.554688 5.074219 -5.996094 Z M 5.074219 -5.996094 "/></g></g></g><g fill="#726962" fill-opacity="1"><g transform="translate(251.061417, 205.335415)"><g><path d="M 17.640625 0 L 20.464844 0 C 20.925781 0 21.273438 -0.171875 21.503906 -0.632812 C 22.65625 -2.996094 23.753906 -5.074219 24.734375 -6.917969 C 31.421875 -16.660156 40.527344 -26.289062 44.160156 -26.289062 C 45.199219 -26.289062 45.660156 -25.65625 45.660156 -24.734375 C 45.71875 -20.640625 35.398438 -8.820312 35.398438 -2.882812 C 35.398438 -1.5 36.148438 0.460938 38.625 0.460938 C 40.355469 0.460938 43.699219 -1.554688 47.910156 -5.417969 L 47.449219 -5.996094 C 45.082031 -3.804688 43.296875 -2.710938 42.144531 -2.710938 C 41.046875 -2.710938 40.472656 -3.285156 40.472656 -4.265625 C 40.472656 -8.300781 50.675781 -20.753906 50.675781 -26.117188 C 50.675781 -27.671875 49.695312 -29.285156 47.792969 -29.285156 C 43.296875 -29.285156 34.9375 -21.675781 27.382812 -11.761719 C 28.078125 -12.972656 28.652344 -14.066406 29.171875 -15.105469 C 32.917969 -22.542969 33.609375 -24.617188 33.609375 -26.117188 C 33.609375 -27.671875 32.6875 -29.285156 30.726562 -29.285156 C 27.960938 -29.285156 23.175781 -26.117188 18.046875 -21.15625 C 15.21875 -18.390625 12.394531 -15.164062 9.683594 -11.589844 C 12.742188 -17.527344 15.738281 -23.984375 15.738281 -26.289062 C 15.738281 -27.613281 14.988281 -29.285156 12.796875 -29.285156 C 10.839844 -29.285156 7.378906 -27.210938 3.171875 -23.40625 L 3.632812 -22.832031 C 6.226562 -25.195312 8.070312 -26.175781 9.28125 -26.175781 C 10.261719 -26.175781 10.78125 -25.597656 10.78125 -24.675781 C 10.78125 -21.503906 2.882812 -7.320312 -0.75 -1.09375 C -1.09375 -0.460938 -0.863281 0 -0.230469 0 L 2.535156 0 C 2.996094 0 3.285156 -0.171875 3.574219 -0.632812 C 4.207031 -1.613281 5.59375 -3.976562 7.207031 -6.859375 C 10.609375 -11.933594 14.585938 -16.890625 18.507812 -20.582031 C 22.195312 -24.039062 25.078125 -26.289062 27.097656 -26.289062 C 28.191406 -26.289062 28.59375 -25.597656 28.59375 -24.734375 C 28.59375 -23.40625 27.382812 -20.640625 24.90625 -15.738281 C 23.117188 -12.28125 20.003906 -6.574219 17.007812 -1.039062 C 16.660156 -0.402344 17.007812 0 17.640625 0 Z M 17.640625 0 "/></g></g></g><g fill="#726962" fill-opacity="1"><g transform="translate(302.133218, 205.335415)"><g><path d="M 7.378906 0.460938 C 14.933594 0.460938 27.671875 -11.589844 27.671875 -22.65625 C 27.671875 -25.65625 26.230469 -29.285156 21.621094 -29.285156 C 12.742188 -29.285156 0.808594 -15.96875 0.808594 -6.574219 C 0.808594 -2.074219 3.632812 0.460938 7.378906 0.460938 Z M 5.59375 -8.648438 C 5.59375 -15.394531 10.492188 -26.867188 17.757812 -26.867188 C 21.042969 -26.867188 23.003906 -24.847656 23.003906 -20.753906 C 23.003906 -14.585938 18.277344 -1.902344 11.011719 -1.902344 C 7.035156 -1.902344 5.59375 -4.785156 5.59375 -8.648438 Z M 5.59375 -8.648438 "/></g></g></g><g fill="#726962" fill-opacity="1"><g transform="translate(330.551277, 205.335415)"><g><path d="M 3.054688 0.402344 C 9.167969 0.402344 16.027344 -3.921875 16.316406 -9.222656 C 16.546875 -14.355469 11.011719 -19.023438 11.242188 -23.753906 C 11.355469 -25.136719 12.105469 -26.460938 14.125 -27.269531 C 17.8125 -25.539062 20.179688 -24.328125 22.023438 -24.328125 C 23.984375 -24.328125 25.597656 -26.175781 25.597656 -27.613281 C 25.597656 -28.652344 22.484375 -29.230469 20.234375 -29.230469 C 14.183594 -29.230469 7.667969 -25.65625 7.496094 -20.582031 C 7.320312 -16.316406 12.511719 -11.414062 12.511719 -6.917969 C 12.511719 -3.515625 9.742188 -1.269531 6.515625 -1.269531 C 2.882812 -1.324219 1.441406 -3.515625 1.441406 -5.765625 C 1.441406 -6.976562 1.902344 -8.070312 2.480469 -8.9375 L 2.074219 -9.28125 C -1.210938 -7.320312 -2.710938 -5.476562 -2.824219 -3.804688 C -2.996094 -1.382812 -1.152344 0.402344 3.054688 0.402344 Z M 3.054688 0.402344 "/></g></g></g><g fill="#726962" fill-opacity="1"><g transform="translate(351.821581, 205.335415)"><g><path d="M 3.691406 -9.859375 L 4.554688 -9.683594 C 13.203125 -28.191406 19.832031 -35.859375 20.925781 -39.203125 C 21.445312 -40.761719 20.464844 -41.625 18.390625 -41.625 C 17.296875 -41.625 16.027344 -41.222656 15.277344 -39.375 C 14.007812 -36.148438 12.105469 -27.902344 3.691406 -9.859375 Z M -2.019531 -1.671875 C -2.019531 -0.289062 -0.402344 0.75 0.460938 0.75 C 2.019531 0.75 3.976562 -1.671875 3.976562 -3.171875 C 3.976562 -4.496094 2.710938 -5.878906 1.671875 -5.878906 C 0 -5.878906 -2.019531 -3.34375 -2.019531 -1.671875 Z M -2.019531 -1.671875 "/></g></g></g></svg>