<svg xmlns="http://www.w3.org/2000/svg" xmlns:xlink="http://www.w3.org/1999/xlink" width="500" zoomAndPan="magnify" viewBox="0 0 375 374.999991" height="500" preserveAspectRatio="xMidYMid meet" version="1.0"><defs><g/><clipPath id="629d281404"><path d="M 52.054688 44.78125 L 215 44.78125 L 215 282.53125 L 52.054688 282.53125 Z M 52.054688 44.78125 " clip-rule="nonzero"/></clipPath></defs><path fill="#726962" d="M 302.242188 175.570312 C 304.128906 173.910156 308.339844 170.796875 310.40625 169.410156 C 308.496094 171.03125 304.300781 174.167969 302.242188 175.570312 Z M 307.484375 173.464844 C 306.90625 174.007812 306.3125 174.53125 305.6875 175.019531 C 304.460938 175.980469 303.125 176.789062 301.648438 177.324219 C 302.347656 177.070312 302.980469 176.460938 303.589844 176.042969 C 304.242188 175.589844 304.886719 175.121094 305.519531 174.640625 C 306.15625 174.160156 306.777344 173.660156 307.386719 173.148438 C 307.683594 172.902344 307.953125 172.628906 308.242188 172.378906 C 308.449219 172.203125 309.289062 171.582031 309.902344 171.203125 C 309.476562 171.835938 308.027344 172.957031 307.484375 173.464844 Z M 307.207031 169.882812 C 305.308594 171.160156 303.523438 172.617188 301.832031 174.203125 C 303.273438 172.238281 305.109375 170.882812 307.207031 169.882812 Z M 300.472656 185 C 298.890625 185.867188 297.382812 186.894531 295.933594 188.042969 C 297.226562 186.554688 298.769531 185.613281 300.472656 185 Z M 302.972656 184.941406 C 301.347656 186.097656 297.828125 188.273438 296.117188 189.226562 C 297.722656 188.039062 301.25 185.882812 302.972656 184.941406 Z M 300.339844 188.023438 C 299.84375 188.417969 299.332031 188.792969 298.808594 189.132812 C 298.566406 189.292969 298.320312 189.441406 298.070312 189.582031 C 298.167969 189.460938 298.191406 189.28125 298.15625 189.136719 C 298.34375 189.019531 298.53125 188.917969 298.71875 188.796875 C 299.25 188.460938 299.773438 188.113281 300.296875 187.75 C 300.542969 187.574219 300.777344 187.375 301.023438 187.195312 C 301.199219 187.070312 301.902344 186.640625 302.410156 186.386719 C 302.019531 186.871094 300.800781 187.65625 300.339844 188.023438 Z M 280.878906 190.386719 C 282.308594 193.148438 282.871094 196.613281 282.914062 199.691406 C 282.277344 196.582031 281.722656 193.449219 280.878906 190.386719 Z M 281.773438 199.097656 C 280.53125 196.457031 280.246094 193.644531 280.140625 190.734375 C 280.519531 193.566406 281.195312 196.351562 281.910156 199.125 C 281.863281 199.101562 281.820312 199.09375 281.773438 199.097656 Z M 279.582031 195.007812 C 279.9375 197.074219 280.628906 199.058594 281.84375 200.832031 C 281.851562 200.859375 281.855469 200.882812 281.863281 200.90625 C 280.34375 199.136719 279.734375 197.132812 279.582031 195.007812 Z M 283.804688 199.972656 C 283.871094 197.640625 283.609375 195.074219 282.875 192.726562 C 284.019531 195.023438 284.519531 197.480469 283.804688 199.972656 Z M 282.878906 154.6875 C 285.089844 156.9375 286.710938 159.585938 287.105469 163.070312 C 286.390625 159.898438 284.851562 157.140625 282.878906 154.6875 Z M 277.765625 151.246094 C 281.015625 154.320312 283.957031 157.5 285.558594 161.757812 C 283.105469 158.140625 280.625 154.535156 277.765625 151.246094 Z M 276.695312 151.707031 C 278.824219 154.960938 281.210938 158.035156 283.566406 161.128906 C 283.433594 161.035156 283.304688 160.9375 283.164062 160.847656 C 283.039062 160.769531 277.984375 155.027344 276.695312 151.707031 Z M 277.316406 156.0625 C 279.144531 159.066406 281.644531 161.773438 284.214844 163.910156 C 280.863281 162.320312 278.695312 159.460938 277.316406 156.0625 Z M 294.160156 109.644531 C 292.398438 112.96875 291.246094 116.628906 290.832031 120.339844 C 289.894531 116.296875 291.597656 112.75 294.160156 109.644531 Z M 296.101562 108.757812 C 295.65625 109.871094 295.261719 111.011719 294.84375 112.132812 C 294.070312 114.214844 293.191406 116.238281 292.285156 118.253906 C 293.121094 114.871094 294.363281 111.75 296.101562 108.757812 Z M 294.148438 116.59375 C 295.390625 113.632812 296.503906 110.613281 297.871094 107.710938 C 296.742188 110.738281 295.59375 113.722656 294.148438 116.59375 Z M 299.140625 107.457031 C 298.28125 112.492188 296.476562 117.316406 292.796875 120.820312 C 295.640625 116.785156 297.613281 112.167969 299.140625 107.457031 Z M 253.652344 107.914062 C 256.996094 106.625 260.390625 105.976562 263.808594 106.84375 C 260.425781 106.796875 256.984375 107.082031 253.652344 107.914062 Z M 261.234375 108.292969 C 261.1875 108.324219 257.097656 108.855469 255.042969 108.882812 C 257.304688 108.414062 259.5625 108.078125 261.863281 107.9375 C 261.652344 108.050781 261.441406 108.160156 261.234375 108.292969 Z M 251.332031 93.855469 C 255.347656 93.5625 259.226562 94.226562 261.980469 97.328125 C 258.714844 95.519531 255.0625 94.34375 251.332031 93.855469 Z M 246.667969 96.652344 C 251.390625 98.132812 256.300781 99.195312 261.234375 99.210938 C 256.25 100.183594 251.269531 98.867188 246.667969 96.652344 Z M 249.484375 94.925781 C 252.929688 95.242188 256.195312 96.03125 259.4375 97.308594 C 257.269531 96.882812 255.113281 96.425781 252.964844 95.851562 C 251.808594 95.542969 250.648438 95.203125 249.484375 94.925781 Z M 257.007812 97.867188 C 253.828125 97.382812 250.730469 96.597656 247.605469 95.761719 C 250.765625 96.328125 253.871094 97.164062 257.007812 97.867188 Z M 227.207031 76.3125 C 229.765625 76.128906 232.261719 75.515625 234.546875 74.1875 C 232.253906 75.878906 229.773438 76.382812 227.207031 76.3125 Z M 222.320312 75.171875 C 225.867188 75.054688 229.390625 74.535156 232.90625 73.988281 C 229.484375 75.394531 225.957031 75.40625 222.320312 75.171875 Z M 233.011719 72.992188 C 229.339844 73.375 225.648438 73.65625 222.003906 74.277344 C 225.367188 72.941406 229.445312 72.691406 233.011719 72.992188 Z M 233.445312 71.996094 C 230.75 71.648438 227.746094 71.660156 224.941406 72.234375 C 227.734375 71.171875 230.640625 70.878906 233.445312 71.996094 Z M 233.453125 64.550781 C 236.023438 65.699219 238.242188 67.128906 240.449219 68.761719 C 238.007812 67.558594 235.671875 66.210938 233.453125 64.550781 Z M 240.324219 69.984375 C 237.503906 69.03125 234.941406 67.632812 233.015625 65.3125 C 235.308594 67.09375 237.777344 68.699219 240.414062 69.9375 C 240.382812 69.953125 240.351562 69.96875 240.324219 69.984375 Z M 245.046875 61.230469 C 247.976562 62.605469 249.46875 65.183594 250.316406 68.019531 C 248.992188 65.515625 247.191406 63.183594 245.046875 61.230469 Z M 248.46875 67.234375 C 247.496094 65.84375 246.605469 64.425781 245.730469 62.996094 C 247.492188 65.023438 248.914062 67.15625 250.046875 69.492188 C 249.539062 68.730469 248.992188 67.984375 248.46875 67.234375 Z M 245.972656 64.777344 C 247.296875 66.835938 248.710938 68.847656 249.945312 70.941406 C 248.527344 68.917969 247.152344 66.902344 245.972656 64.777344 Z M 243.902344 62.078125 C 245.214844 65.503906 247.261719 68.726562 249.558594 71.75 C 246.773438 68.9375 244.523438 65.707031 243.902344 62.078125 Z M 271.433594 77.511719 C 273.101562 79.542969 273.835938 82.148438 274.0625 84.867188 C 273.53125 82.304688 272.625 79.8125 271.433594 77.511719 Z M 270.597656 77.902344 C 271.855469 80.558594 272.632812 83.25 273.078125 86.070312 C 272.195312 83.367188 271.375 80.648438 270.597656 77.902344 Z M 270.53125 81.460938 C 271.183594 83.878906 271.945312 86.273438 272.796875 88.617188 C 271.765625 86.261719 270.96875 83.914062 270.53125 81.460938 Z M 269.253906 79.726562 C 269.339844 81.191406 269.558594 82.640625 269.921875 84.046875 C 269.371094 82.601562 269.207031 81.179688 269.253906 79.726562 Z M 304.28125 119.675781 C 301.675781 121.910156 299.449219 124.550781 297.53125 127.335938 C 298.800781 124.046875 301.296875 121.652344 304.28125 119.675781 Z M 300.363281 126.0625 C 300.3125 126.054688 300.257812 126.054688 300.203125 126.078125 C 299.976562 126.167969 299.765625 126.277344 299.550781 126.386719 C 300.996094 124.589844 302.578125 122.941406 304.269531 121.367188 C 303.058594 123.03125 301.796875 124.589844 300.363281 126.0625 Z M 304.03125 142.382812 C 302.109375 145.53125 300.109375 148.640625 298.375 151.890625 C 299.4375 148.496094 301.691406 145.09375 304.03125 142.382812 Z M 303.582031 141.519531 C 301.734375 143.507812 299.953125 145.921875 298.6875 148.472656 C 299.601562 145.683594 301.125 143.199219 303.582031 141.519531 Z M 299.199219 152.097656 C 301.226562 149.1875 302.960938 146.089844 304.667969 142.984375 C 303.617188 146.460938 301.527344 149.296875 299.199219 152.097656 Z M 302.910156 148.757812 C 304.304688 146.613281 305.359375 144.289062 305.785156 141.765625 C 305.609375 144.484375 304.488281 146.734375 302.910156 148.757812 Z M 315.730469 166.515625 C 315.414062 166.191406 314.953125 166.289062 314.640625 166.300781 C 313.703125 166.335938 312.828125 166.558594 311.9375 166.738281 C 311.542969 166.820312 311.148438 166.90625 310.757812 167.003906 C 309.972656 167.199219 309.199219 167.429688 308.441406 167.703125 C 306.933594 168.242188 305.5 168.9375 304.195312 169.84375 C 302.917969 170.730469 301.769531 171.816406 300.847656 173.148438 C 300.386719 173.804688 299.988281 174.523438 299.652344 175.296875 C 299.332031 176.042969 298.941406 176.917969 298.863281 177.816406 C 298.855469 177.902344 298.851562 178.007812 298.855469 178.121094 C 297.300781 180.097656 295.980469 182.292969 294.730469 184.429688 C 294.140625 185.441406 293.585938 186.46875 293.042969 187.503906 C 295 178.609375 295.804688 169.476562 295.542969 160.414062 C 295.542969 160.359375 295.539062 160.300781 295.539062 160.246094 C 296.019531 159.207031 296.347656 158.105469 296.820312 157.0625 C 297.074219 156.503906 297.4375 155.941406 297.726562 155.363281 C 302.578125 151.027344 307.738281 146.832031 306.664062 139.742188 C 306.601562 139.355469 306.304688 139.328125 305.878906 139.535156 C 299.328125 141.5 297.109375 148.824219 296.695312 155.023438 C 296.324219 155.609375 295.839844 156.757812 295.605469 157.375 C 295.542969 157.546875 295.480469 157.703125 295.429688 157.851562 C 295.207031 153.382812 294.742188 148.925781 294.03125 144.503906 C 293.902344 142.640625 293.910156 140.769531 294.101562 138.898438 C 294.378906 136.21875 294.941406 133.078125 296.324219 130.566406 C 296.425781 130.582031 296.539062 130.5625 296.648438 130.511719 C 301.835938 128.144531 305.351562 122.890625 307.914062 118.183594 C 308.566406 116.917969 307.542969 116.746094 307.019531 116.980469 C 301.414062 119.472656 296.816406 123.550781 295.976562 129.621094 C 295.960938 129.726562 295.957031 129.824219 295.957031 129.910156 C 294.511719 132.367188 293.867188 135.453125 293.542969 138.144531 C 293.4375 138.980469 293.378906 139.820312 293.347656 140.660156 C 292.8125 137.90625 292.183594 135.167969 291.460938 132.449219 C 291.214844 129.332031 291.160156 126.242188 291.238281 123.101562 C 291.339844 123.117188 291.464844 123.097656 291.625 123.003906 C 293.082031 122.148438 294.371094 121.027344 295.453125 119.730469 C 297.472656 117.300781 298.761719 114.332031 299.597656 111.304688 C 299.609375 111.269531 299.621094 111.234375 299.628906 111.195312 C 300.214844 109.066406 300.5625 106.914062 300.941406 104.753906 C 301.042969 104.164062 301.480469 101.753906 300.242188 102.144531 C 299.515625 102.375 298.945312 103.160156 298.386719 103.640625 C 297.507812 104.398438 296.636719 105.167969 295.800781 105.972656 C 294.132812 107.578125 292.601562 109.34375 291.421875 111.347656 C 289.480469 114.667969 288.914062 118.460938 290.476562 121.96875 C 290.195312 123.726562 290.050781 125.550781 290.023438 127.429688 C 286.769531 116.988281 282.324219 106.507812 275.640625 97.519531 C 275.046875 95.820312 274.703125 94.335938 274.46875 92.640625 C 274.726562 92.230469 274.871094 91.519531 274.917969 91.292969 C 275.007812 90.835938 275.082031 90.378906 275.136719 89.921875 C 275.261719 88.957031 275.316406 87.984375 275.308594 87.015625 C 275.292969 85.015625 275.019531 83.015625 274.394531 81.132812 C 273.964844 79.835938 273.359375 78.589844 272.523438 77.496094 C 271.816406 76.582031 270.917969 75.902344 270.023438 75.167969 C 269.941406 75.097656 269.847656 75.027344 269.734375 75.03125 C 269.578125 75.039062 269.46875 75.1875 269.394531 75.324219 C 268.660156 76.640625 268.449219 78.046875 268.292969 79.476562 C 268.128906 80.964844 268.238281 82.394531 268.679688 83.820312 C 269.371094 86.042969 270.726562 87.96875 272.007812 89.894531 C 272.339844 90.390625 272.664062 90.886719 272.976562 91.390625 C 273.125 91.632812 273.269531 91.875 273.414062 92.117188 C 273.425781 92.140625 273.4375 92.175781 273.453125 92.207031 C 273.726562 93.472656 274.058594 94.722656 274.449219 95.960938 C 274.121094 95.546875 273.800781 95.136719 273.464844 94.730469 C 268.394531 88.613281 262.179688 83.574219 255.53125 79.035156 C 254.339844 77.742188 253.253906 76.351562 252.339844 74.820312 C 252.347656 74.695312 252.347656 74.539062 252.339844 74.335938 C 252.339844 74.316406 252.347656 74.300781 252.347656 74.277344 C 252.023438 68.910156 250.417969 61.472656 243.523438 60.125 C 243.453125 60.109375 243.070312 59.980469 243.035156 60.421875 C 242.628906 65.941406 247.308594 71.214844 251.605469 74.835938 C 251.617188 74.84375 251.628906 74.855469 251.640625 74.867188 C 252.234375 75.890625 252.910156 76.847656 253.632812 77.761719 C 253.554688 77.707031 253.476562 77.65625 253.398438 77.605469 C 252.433594 76.722656 251.445312 75.867188 250.417969 75.058594 C 249.203125 74.101562 247.949219 73.195312 246.660156 72.34375 C 246.101562 71.972656 245.480469 71.492188 244.832031 71.09375 C 244.769531 70.945312 244.652344 70.78125 244.457031 70.589844 C 240.867188 67.1875 236.320312 63.550781 231.292969 62.808594 C 230.917969 62.753906 230.632812 62.996094 231.015625 63.734375 C 232.941406 67.449219 236.238281 69.703125 240.023438 70.925781 C 240.074219 71 244.445312 71.6875 244.542969 71.75 C 246.796875 73.136719 248.695312 74.636719 251.101562 76.863281 C 247.6875 75.503906 240.050781 73.011719 236.34375 72.703125 C 233.496094 70.296875 229.800781 69.898438 226.285156 70.867188 C 224.523438 71.355469 222.851562 72.125 221.277344 73.035156 C 220.511719 73.476562 219.71875 73.933594 219.078125 74.519531 C 217.324219 76.117188 220.164062 76.460938 221.328125 76.707031 C 222.859375 77.03125 224.421875 77.320312 225.976562 77.480469 C 230.097656 77.898438 233.898438 76.8125 236.679688 73.632812 C 243.105469 74.351562 248.972656 77.121094 254.582031 80.371094 C 259.882812 84.085938 264.910156 88.117188 269.292969 92.777344 C 275.851562 99.742188 280.546875 108.105469 284.132812 116.78125 C 278.1875 108.867188 271.097656 101.734375 263.523438 97.996094 C 261.570312 94.683594 258.140625 92.945312 254.304688 92.609375 C 252 92.410156 249.667969 92.632812 247.398438 93.058594 C 246.273438 93.265625 245.164062 93.527344 244.0625 93.824219 C 243.496094 93.976562 242.914062 94.050781 242.335938 94.117188 C 241.726562 94.191406 241.121094 94.261719 240.535156 94.421875 C 240.46875 94.441406 240.386719 94.480469 240.390625 94.550781 C 240.390625 94.601562 240.4375 94.640625 240.480469 94.671875 C 240.875 94.9375 241.816406 95.445312 241.945312 95.523438 C 248.097656 99.289062 256.554688 102.738281 263.695312 99.519531 C 263.863281 99.445312 263.949219 99.351562 263.996094 99.261719 C 269.628906 103.046875 274.726562 107.171875 279.511719 112.710938 C 279.605469 112.824219 279.695312 112.9375 279.792969 113.046875 C 278.269531 111.847656 276.648438 110.773438 274.929688 109.84375 C 272.546875 108.550781 269.660156 107.289062 266.816406 107.046875 C 266.746094 106.996094 266.667969 106.949219 266.570312 106.898438 C 261.136719 104.066406 255.144531 105.460938 249.875 108.585938 C 249.382812 108.878906 248.925781 109.8125 250.335938 110.011719 C 255.660156 110.648438 261.976562 110.824219 266.910156 107.964844 C 267.015625 107.902344 267.09375 107.820312 267.140625 107.726562 C 269.992188 108.054688 272.878906 109.414062 275.222656 110.738281 C 277.835938 112.214844 280.210938 114.054688 282.316406 116.164062 C 283.476562 117.652344 284.597656 119.175781 285.683594 120.726562 C 286.203125 122.113281 286.699219 123.507812 287.171875 124.898438 C 292.703125 141.226562 294.875 158.710938 293.050781 175.796875 C 292.277344 172.066406 290.71875 168.535156 288.375 165.574219 C 288.378906 165.546875 288.390625 165.515625 288.390625 165.484375 C 289.332031 156.503906 281.820312 151.246094 275.195312 146.84375 C 275.132812 146.800781 275.058594 146.753906 274.980469 146.761719 C 274.917969 146.765625 274.859375 146.785156 274.808594 146.808594 C 273.777344 147.34375 274.941406 151.984375 275.074219 152.542969 C 275.601562 154.703125 276.339844 156.832031 277.410156 158.785156 C 279.5 162.601562 282.910156 165.417969 287.316406 165.929688 C 290.742188 170.273438 292.421875 175.890625 292.300781 181.472656 C 291.875 184.117188 291.355469 186.75 290.730469 189.359375 C 288.988281 196.648438 286.433594 203.722656 283.128906 210.492188 C 283.609375 207.929688 283.667969 205.347656 283.1875 202.875 C 283.269531 202.800781 283.34375 202.707031 283.410156 202.566406 C 285.199219 200.011719 285.304688 196.90625 284.261719 194.035156 C 283.730469 192.566406 282.957031 191.195312 282.066406 189.921875 C 281.835938 189.59375 279.9375 186.835938 279.179688 187.128906 C 279.144531 187.144531 279.109375 187.167969 279.078125 187.199219 C 279.035156 187.234375 279.027344 187.292969 279.019531 187.347656 C 278.289062 192.695312 277.609375 198.847656 282.269531 202.554688 C 283.105469 206.824219 282.375 211.144531 280.703125 215.171875 C 279.195312 217.898438 277.566406 220.570312 275.816406 223.179688 C 275.320312 223.917969 276.011719 224.332031 276.507812 223.683594 C 282.914062 215.269531 287.550781 206.207031 290.605469 196.585938 C 290.617188 196.625 290.628906 196.664062 290.636719 196.703125 C 291.585938 194.851562 292.886719 193.226562 294.46875 191.90625 C 294.722656 191.910156 294.980469 191.894531 295.230469 191.871094 C 295.902344 191.808594 296.550781 191.660156 297.183594 191.449219 C 298.464844 191.015625 299.652344 190.3125 300.773438 189.496094 C 303.023438 187.859375 305 185.742188 307.179688 183.980469 C 307.230469 183.9375 307.285156 183.898438 307.332031 183.855469 C 307.507812 183.722656 307.511719 183.335938 307.332031 183.082031 C 307.125 182.78125 306.761719 182.8125 306.519531 182.789062 C 305.796875 182.71875 305.105469 182.8125 304.402344 182.871094 C 304.09375 182.894531 303.785156 182.929688 303.472656 182.96875 C 302.851562 183.046875 302.238281 183.160156 301.628906 183.304688 C 300.421875 183.597656 299.253906 184.027344 298.167969 184.648438 C 297.101562 185.253906 296.117188 186.042969 295.277344 187.054688 C 294.863281 187.558594 294.484375 188.117188 294.15625 188.726562 C 293.839844 189.316406 293.453125 190.007812 293.304688 190.75 C 293.261719 190.960938 293.230469 191.308594 293.351562 191.554688 C 292.671875 192.175781 292.058594 192.871094 291.503906 193.621094 C 291.816406 192.507812 292.113281 191.390625 292.390625 190.269531 C 293.285156 188.390625 294.25 186.546875 295.296875 184.75 C 296.464844 182.757812 297.691406 180.714844 299.113281 178.847656 C 299.125 178.859375 299.128906 178.878906 299.144531 178.886719 C 299.226562 178.957031 299.332031 178.996094 299.449219 179.019531 C 299.707031 179.070312 300.007812 179.03125 300.191406 179.023438 C 300.640625 179.003906 301.078125 178.914062 301.5 178.824219 C 302.351562 178.640625 303.167969 178.359375 303.945312 178.007812 C 305.527344 177.289062 306.945312 176.269531 308.261719 175.128906 C 310.90625 172.835938 313.128906 170.023438 315.664062 167.59375 C 315.726562 167.535156 315.785156 167.480469 315.84375 167.425781 C 316.046875 167.234375 315.992188 166.785156 315.730469 166.515625 " fill-opacity="1" fill-rule="nonzero"/><g clip-path="url(#629d281404)"><path fill="#726962" d="M 161.386719 277.53125 C 164.558594 276.566406 167.726562 275.578125 170.769531 274.269531 C 167.777344 275.890625 164.792969 277.273438 161.386719 277.53125 Z M 160.070312 278.332031 C 162.484375 278.46875 164.820312 277.960938 167.046875 277.089844 C 164.902344 278.160156 162.625 278.75 160.070312 278.332031 Z M 167.488281 273.015625 C 164.90625 273.671875 162.367188 274.851562 160.210938 276.1875 C 162.179688 274.207031 164.742188 273.289062 167.488281 273.015625 Z M 170.710938 273.445312 C 167.40625 274.398438 164.183594 275.640625 160.9375 276.796875 C 163.847656 275.148438 167.382812 273.730469 170.710938 273.445312 Z M 125.15625 278.339844 C 127.234375 276.839844 129.035156 275.007812 130.28125 272.671875 C 129.222656 275.320312 127.378906 277.054688 125.15625 278.339844 Z M 120.402344 279.941406 C 123.355469 277.976562 126.078125 275.679688 128.78125 273.371094 C 126.609375 276.363281 123.617188 278.226562 120.402344 279.941406 Z M 128.351562 272.464844 C 125.425781 274.722656 122.433594 276.902344 119.660156 279.347656 C 121.820312 276.441406 125.152344 274.085938 128.351562 272.464844 Z M 128.191406 271.386719 C 125.714844 272.511719 123.167969 274.097656 121.085938 276.066406 C 122.902344 273.691406 125.21875 271.914062 128.191406 271.386719 Z M 124.3125 265.929688 C 127.410156 266.265625 130.578125 266.324219 133.671875 265.902344 C 130.542969 266.710938 127.398438 266.96875 124.3125 265.929688 Z M 132.449219 264.953125 C 129.738281 265.21875 127.042969 265.296875 124.28125 265.050781 C 127.074219 264.675781 129.714844 264.726562 132.449219 264.953125 Z M 122.410156 234.449219 C 123.90625 236.558594 124.382812 238.863281 124.363281 241.257812 C 124.164062 238.878906 123.59375 236.558594 122.410156 234.449219 Z M 123.46875 245.839844 C 123.308594 242.535156 122.796875 239.253906 122.269531 235.984375 C 123.535156 239.152344 123.605469 242.441406 123.46875 245.839844 Z M 121.410156 235.902344 C 121.800781 239.324219 122.105469 242.765625 122.707031 246.15625 C 121.496094 243.039062 121.210938 239.242188 121.410156 235.902344 Z M 89.527344 249.796875 C 92.058594 248.351562 94.871094 248.238281 97.765625 248.699219 C 94.96875 248.636719 92.191406 249.078125 89.527344 249.796875 Z M 89.652344 250.710938 C 92.039062 250.125 94.425781 249.882812 96.855469 249.828125 C 94.488281 250.394531 92.175781 250.761719 89.652344 250.710938 Z M 82.640625 238.171875 C 86.199219 238.726562 90.136719 240.007812 93.152344 242.285156 C 89.714844 240.710938 86.160156 239.492188 82.640625 238.171875 Z M 82.539062 239.269531 C 85.867188 240.730469 89.210938 242.164062 92.65625 243.171875 C 89.046875 242.519531 85.597656 241.632812 82.539062 239.269531 Z M 80.890625 239.074219 C 82.855469 241.074219 85.171875 242.355469 87.636719 243.183594 C 85.105469 242.628906 82.785156 241.46875 80.890625 239.074219 Z M 90.699219 239.355469 C 88.074219 238.035156 85.136719 237.28125 82.425781 236.988281 C 85.40625 236.480469 88.1875 237.515625 90.699219 239.355469 Z M 100.984375 241.921875 C 99.351562 240.992188 98.253906 239.675781 97.304688 238.152344 C 99.226562 240.179688 101.386719 241.964844 103.738281 243.347656 C 102.804688 242.902344 101.882812 242.433594 100.984375 241.921875 Z M 103.5625 241.640625 C 101.558594 240.292969 99.652344 238.835938 97.808594 237.171875 C 99.914062 238.445312 101.792969 239.957031 103.5625 241.640625 Z M 103.488281 239.863281 C 101.777344 238.425781 99.910156 237.214844 97.96875 236.199219 C 100.214844 236.734375 101.964844 238.109375 103.488281 239.863281 Z M 82.195312 209.839844 C 84.367188 211.0625 86.320312 212.589844 88.207031 214.335938 C 86.269531 212.761719 84.261719 211.253906 82.195312 209.839844 Z M 85.695312 213.753906 C 83.179688 212.40625 80.902344 210.789062 78.8125 208.730469 C 81.144531 210.363281 83.4375 212.03125 85.695312 213.753906 Z M 78.171875 209.390625 C 79.949219 211.273438 82.003906 212.949219 84.25 214.292969 C 81.757812 213.183594 79.535156 211.632812 78.171875 209.390625 Z M 84.835938 210.117188 C 83.628906 209.308594 82.335938 208.625 80.980469 208.0625 C 82.367188 208.496094 83.65625 209.121094 84.835938 210.117188 Z M 62.503906 180.019531 C 66.5 180.792969 70.164062 182.222656 72.929688 185.121094 C 69.699219 183.035156 66.214844 181.226562 62.503906 180.019531 Z M 63.257812 181.789062 C 66.4375 182.972656 69.484375 184.359375 72.398438 186.160156 C 69.054688 185.0625 66.152344 183.554688 63.257812 181.789062 Z M 60.214844 133.859375 C 63.246094 134.960938 65.828125 136.765625 67.335938 139.65625 C 65.375 137.472656 62.914062 135.363281 60.214844 133.859375 Z M 59.195312 138.789062 C 61.414062 140.441406 63.886719 141.699219 66.695312 142.222656 C 63.625 141.992188 61.242188 140.660156 59.195312 138.789062 Z M 56 134.417969 C 58.984375 136.820312 62.234375 138.875 65.492188 140.90625 C 61.699219 139.644531 58.8125 137.167969 56 134.417969 Z M 66.28125 140.167969 C 63.007812 137.890625 59.789062 135.519531 56.371094 133.460938 C 60.066406 134.738281 63.574219 137.402344 66.28125 140.167969 Z M 72.589844 133.570312 C 73.882812 136.320312 74.691406 139.054688 75.34375 141.941406 C 74.195312 139.242188 73.234375 136.492188 72.589844 133.570312 Z M 71.695312 133.886719 C 72.355469 137.179688 73.328125 140.460938 74.769531 143.511719 C 72.917969 140.554688 71.628906 137.398438 71.695312 133.886719 Z M 92.054688 87.683594 C 92.214844 91.234375 92.402344 94.792969 92.984375 98.292969 C 92.039062 94.773438 91.355469 91.316406 92.054688 87.683594 Z M 93.925781 98.425781 C 93.816406 94.730469 93.363281 91.058594 93.007812 87.378906 C 94.011719 90.820312 94.570312 94.863281 93.925781 98.425781 Z M 95.347656 95.140625 C 95.359375 92.277344 94.773438 89.335938 93.902344 86.757812 C 95.550781 89.289062 95.835938 92.195312 95.347656 95.140625 Z M 90.902344 93.726562 C 90.324219 91.226562 90.328125 88.695312 91.535156 86.113281 C 90.683594 88.617188 90.578125 91.183594 90.902344 93.726562 Z M 117.453125 66.828125 C 117.382812 69.410156 117.414062 72 117.542969 74.574219 C 117.253906 71.9375 117.175781 69.378906 117.453125 66.828125 Z M 116.1875 69.183594 C 116.085938 67.59375 116.324219 66.140625 116.769531 64.730469 C 116.445312 66.195312 116.242188 67.6875 116.1875 69.183594 Z M 118.496094 63.351562 C 118.910156 66.351562 118.875 69.238281 118.5 72.152344 C 118.441406 69.21875 118.449219 66.289062 118.496094 63.351562 Z M 119.726562 71.277344 C 119.953125 68.589844 119.816406 65.859375 119.363281 63.226562 C 120.324219 65.738281 120.273438 68.53125 119.726562 71.277344 Z M 125.503906 63.109375 C 125.667969 61.035156 126.390625 59.347656 127.359375 57.726562 C 126.335938 60.5625 125.628906 63.542969 125.359375 66.546875 C 125.378906 65.398438 125.414062 64.25 125.503906 63.109375 Z M 126.8125 65.652344 C 127.191406 63.019531 127.707031 60.4375 128.4375 57.835938 C 128.167969 60.542969 127.589844 63.113281 126.8125 65.652344 Z M 129.371094 57.59375 C 129.8125 60.132812 129.304688 62.519531 128.363281 64.828125 C 128.945312 62.460938 129.261719 60.023438 129.371094 57.59375 Z M 151.96875 47.25 C 150.964844 49.484375 149.71875 51.535156 148.308594 53.511719 C 149.3125 51.300781 150.429688 49.246094 151.96875 47.25 Z M 152.699219 47.652344 C 152.226562 50.480469 150.632812 52.800781 148.574219 54.867188 C 150.285156 52.660156 151.628906 50.183594 152.699219 47.652344 Z M 164.40625 47.855469 C 161.378906 49.71875 158.359375 51.609375 155.582031 53.820312 C 158.203125 51.285156 160.890625 49.003906 164.40625 47.855469 Z M 165.53125 46.640625 C 162.929688 47.113281 160.628906 48.265625 158.566406 49.785156 C 160.472656 48.0625 162.683594 46.839844 165.53125 46.640625 Z M 166.113281 49.023438 C 164.699219 51.691406 162.300781 53.351562 159.484375 54.355469 C 161.992188 52.976562 164.285156 51.039062 166.113281 49.023438 Z M 155.921875 54.707031 C 159.101562 52.816406 162.09375 50.636719 165.136719 48.542969 C 162.617188 51.089844 159.351562 53.542969 155.921875 54.707031 Z M 151.515625 61.1875 C 153.15625 60.394531 154.753906 60.238281 156.410156 60.316406 C 153.8125 60.738281 151.242188 61.488281 148.851562 62.609375 C 149.726562 62.109375 150.613281 61.625 151.515625 61.1875 Z M 150.179688 63.410156 C 152.339844 62.550781 154.519531 61.820312 156.8125 61.261719 C 154.644531 62.25 152.445312 62.921875 150.179688 63.410156 Z M 151.5 64.332031 C 153.546875 63.753906 155.527344 62.925781 157.414062 61.925781 C 155.691406 63.433594 153.664062 64.078125 151.5 64.332031 Z M 133.101562 76.644531 C 131.246094 77.695312 129.480469 78.917969 127.890625 80.332031 C 129.269531 78.644531 130.910156 77.285156 133.101562 76.644531 Z M 127.953125 81.9375 C 129.585938 80.296875 131.339844 78.800781 133.339844 77.511719 C 131.632812 79.140625 129.84375 80.582031 127.953125 81.9375 Z M 130.546875 82.011719 C 129.691406 82.535156 128.808594 83.023438 127.914062 83.488281 C 130.148438 82.078125 132.164062 80.320312 133.917969 78.355469 C 133.089844 79.796875 132.097656 81.058594 130.546875 82.011719 Z M 148.539062 77.351562 C 145.132812 78.785156 141.6875 80.132812 138.382812 81.792969 C 141.210938 79.53125 145.035156 78.101562 148.539062 77.351562 Z M 148.660156 76.269531 C 145.980469 76.726562 143.113281 77.609375 140.597656 78.980469 C 142.957031 77.148438 145.648438 76.023438 148.660156 76.269531 Z M 138.945312 82.554688 C 142.304688 81.410156 145.523438 79.882812 148.726562 78.335938 C 145.863281 80.679688 142.492188 81.71875 138.945312 82.554688 Z M 150.351562 78.042969 C 148.652344 80.335938 146.429688 81.539062 143.953125 82.21875 C 146.34375 81.296875 148.554688 79.984375 150.351562 78.042969 Z M 142.589844 88.308594 C 139.875 87.847656 137.070312 87.644531 134.285156 87.894531 C 137.136719 87.277344 139.949219 87.179688 142.589844 88.308594 Z M 135.285156 88.847656 C 137.710938 88.726562 140.105469 88.78125 142.53125 89.140625 C 140.023438 89.363281 137.6875 89.191406 135.285156 88.847656 Z M 109.8125 119.878906 C 106.3125 120.695312 102.804688 120.578125 99.640625 118.800781 C 102.800781 119.644531 106.378906 120.117188 109.8125 119.878906 Z M 113.640625 117.917969 C 109.417969 118.972656 104.519531 118.613281 100.316406 117.679688 C 104.753906 117.816406 109.199219 118.074219 113.640625 117.917969 Z M 113.40625 116.800781 C 109.164062 116.371094 104.878906 116.425781 100.605469 116.507812 C 104.910156 115.386719 109.109375 115.9375 113.40625 116.800781 Z M 104.386719 114.433594 C 105.511719 114.386719 106.636719 114.472656 107.765625 114.660156 C 106.632812 114.585938 105.5 114.589844 104.375 114.675781 C 104.394531 114.632812 104.40625 114.589844 104.410156 114.539062 C 104.414062 114.507812 104.402344 114.472656 104.386719 114.433594 Z M 103.085938 126.949219 C 101.472656 127.351562 96.179688 126.5 95.222656 126.179688 C 97.789062 126.8125 100.453125 127.042969 103.085938 126.949219 Z M 103.292969 125.945312 C 100.9375 125.84375 98.65625 125.554688 96.367188 125.132812 C 98.683594 125.167969 100.976562 125.398438 103.292969 125.945312 Z M 103.753906 125.175781 C 101.710938 124.566406 99.605469 124.136719 97.480469 123.972656 C 99.65625 123.796875 101.773438 124.035156 103.753906 125.175781 Z M 93.488281 154.207031 C 91.179688 157.175781 89.410156 160.578125 88.359375 164.164062 C 88.136719 160.019531 90.429688 156.820312 93.488281 154.207031 Z M 93.730469 156.773438 C 92.609375 158.691406 91.394531 160.53125 90.15625 162.359375 C 91.558594 159.171875 93.324219 156.3125 95.554688 153.664062 C 94.921875 154.683594 94.335938 155.738281 93.730469 156.773438 Z M 97.476562 152.941406 C 95.84375 155.730469 94.191406 158.46875 92.273438 161.046875 C 94.011719 158.34375 95.628906 155.5625 97.476562 152.941406 Z M 98.769531 152.914062 C 97.054688 157.722656 94.441406 162.160156 90.214844 164.976562 C 93.710938 161.496094 96.453125 157.285156 98.769531 152.914062 Z M 101.726562 165.835938 C 98.769531 167.582031 96.121094 169.800781 93.75 172.210938 C 95.570312 169.191406 98.441406 167.265625 101.726562 165.835938 Z M 96.761719 171.445312 C 96.710938 171.429688 96.65625 171.421875 96.597656 171.433594 C 96.359375 171.484375 96.128906 171.554688 95.902344 171.625 C 97.636719 170.105469 99.480469 168.753906 101.417969 167.5 C 99.9375 168.925781 98.425781 170.246094 96.761719 171.445312 Z M 101.472656 204.253906 C 101.421875 207.640625 101.152344 210.898438 100.296875 214.3125 C 100.328125 210.890625 100.777344 207.570312 101.472656 204.253906 Z M 99.136719 214.207031 C 98.15625 210.324219 98.902344 206.464844 100.375 202.667969 C 99.421875 206.453125 99.089844 210.363281 99.136719 214.207031 Z M 120.542969 235.519531 C 120.292969 238.042969 120.355469 240.84375 120.898438 243.449219 C 119.9375 240.863281 119.632812 238.160156 120.542969 235.519531 Z M 161.078125 250.308594 C 165.480469 252.894531 169.351562 256.296875 171.320312 260.976562 C 168.558594 256.890625 164.9375 253.40625 161.078125 250.308594 Z M 161.355469 255.742188 C 163.839844 258.566406 166.851562 260.945312 170.175781 262.644531 C 166.0625 262.089844 163.351562 259.238281 161.355469 255.742188 Z M 163.925781 255.984375 C 165.597656 257.445312 167.175781 258.984375 168.742188 260.546875 C 165.871094 258.566406 163.398438 256.296875 161.214844 253.609375 C 162.09375 254.425781 163.023438 255.195312 163.925781 255.984375 Z M 160.863281 251.585938 C 163.296875 253.714844 165.675781 255.847656 167.847656 258.21875 C 165.519531 256.003906 163.09375 253.894531 160.863281 251.585938 Z M 174.324219 249.832031 C 175.488281 253.058594 177.171875 256.078125 179.09375 258.859375 C 176.46875 256.507812 175.113281 253.324219 174.324219 249.832031 Z M 178.90625 255.757812 C 178.878906 255.804688 178.863281 255.855469 178.863281 255.917969 C 178.867188 256.160156 178.894531 256.398438 178.917969 256.636719 C 177.753906 254.648438 176.773438 252.582031 175.902344 250.445312 C 177.023438 252.167969 178.039062 253.898438 178.90625 255.757812 Z M 214.582031 269.320312 C 214.230469 269.320312 213.875 269.332031 213.523438 269.347656 C 212.347656 269.410156 211.175781 269.546875 209.988281 269.601562 C 208.484375 269.671875 206.972656 269.671875 205.464844 269.609375 C 201.867188 269.464844 198.273438 268.96875 194.769531 268.140625 C 192.722656 267.652344 190.578125 267.113281 188.6875 266.164062 C 186.28125 264.960938 183.546875 263.320312 181.683594 261.132812 C 181.734375 261.042969 181.757812 260.933594 181.75 260.808594 C 181.375 255.121094 177.710938 249.972656 174.214844 245.90625 C 173.261719 244.847656 172.742188 245.746094 172.773438 246.320312 C 173.117188 252.4375 175.300781 258.191406 180.679688 261.121094 C 180.773438 261.175781 180.859375 261.214844 180.941406 261.246094 C 182.726562 263.46875 185.382812 265.164062 187.785156 266.421875 C 189.535156 267.339844 191.359375 268.082031 193.230469 268.679688 C 193.058594 268.660156 192.886719 268.644531 192.71875 268.625 C 185.453125 267.742188 179.1875 265.800781 172.90625 263.238281 C 172.953125 263.148438 172.980469 263.027344 172.949219 262.847656 C 171.640625 255.125 164.0625 250.027344 157.507812 247.015625 C 157.371094 246.953125 156.425781 246.457031 155.984375 246.277344 C 155.933594 246.257812 155.875 246.238281 155.832031 246.269531 C 155.773438 246.308594 155.785156 246.394531 155.808594 246.460938 C 156 247.039062 156.28125 247.582031 156.558594 248.125 C 156.824219 248.644531 157.089844 249.167969 157.277344 249.722656 C 157.644531 250.804688 158.046875 251.871094 158.5 252.917969 C 159.414062 255.039062 160.527344 257.101562 161.976562 258.902344 C 164.394531 261.898438 167.738281 263.777344 171.574219 263.554688 C 178.613281 267.601562 188.015625 269.519531 197.511719 270.128906 C 177.992188 273.445312 152.695312 266.246094 152.367188 266.15625 C 142.6875 263.039062 133.492188 258.488281 125.132812 252.640625 C 124.941406 252.054688 124.742188 251.46875 124.597656 250.867188 C 124.457031 250.308594 124.402344 249.6875 124.285156 249.097656 C 125.46875 243.125 126.976562 237.082031 121.882812 232.449219 C 121.601562 232.195312 121.351562 232.347656 121.144531 232.746094 C 117.207031 237.925781 119.875 244.609375 123.273438 249.429688 C 123.332031 250.054688 123.625 251.121094 123.816406 251.722656 C 119.226562 248.402344 114.914062 244.675781 110.917969 240.582031 C 105.605469 233.917969 102.007812 226.007812 100.472656 217.601562 C 103.65625 212.023438 103.472656 204.910156 102.765625 198.902344 C 102.542969 197.300781 101.476562 197.816406 101.144531 198.375 C 97.582031 204.359375 95.988281 211.167969 99.195312 217.347656 C 99.332031 217.613281 99.46875 217.785156 99.601562 217.894531 C 100.773438 224.1875 103.09375 230.191406 106.398438 235.621094 C 104.433594 233.3125 102.550781 230.910156 100.785156 228.398438 C 98.800781 225.574219 93.515625 218.21875 90.175781 208.777344 C 88.96875 203.101562 87.800781 197.457031 87.128906 191.773438 C 87.15625 188.820312 87.558594 185.871094 88.371094 183.007812 C 89.105469 180.417969 90.203125 177.421875 92 175.183594 C 92.101562 175.21875 92.214844 175.21875 92.332031 175.1875 C 97.851562 173.753906 102.21875 169.1875 105.558594 164.992188 C 106.421875 163.859375 105.4375 163.515625 104.882812 163.652344 C 98.933594 165.136719 93.695312 168.359375 91.824219 174.195312 C 91.789062 174.296875 91.769531 174.386719 91.753906 174.472656 C 89.902344 176.644531 88.738281 179.574219 87.949219 182.167969 C 87.382812 184.035156 86.984375 185.941406 86.75 187.867188 C 86.738281 187.71875 86.722656 187.570312 86.710938 187.425781 C 86.214844 180.125 86.949219 173.605469 88.289062 166.957031 C 88.386719 166.988281 88.511719 166.988281 88.679688 166.925781 C 96.019531 164.191406 99.609375 155.792969 101.335938 148.789062 C 101.371094 148.640625 101.683594 147.621094 101.777344 147.152344 C 101.785156 147.101562 101.792969 147.042969 101.757812 147.003906 C 101.707031 146.953125 101.625 146.980469 101.5625 147.015625 C 101.03125 147.3125 100.550781 147.6875 100.070312 148.066406 C 99.609375 148.425781 99.144531 148.78125 98.636719 149.070312 C 97.644531 149.632812 96.667969 150.230469 95.722656 150.871094 C 93.816406 152.164062 91.996094 153.644531 90.5 155.410156 C 88.007812 158.34375 86.792969 161.980469 87.726562 165.707031 C 84.109375 176.164062 85.199219 190.1875 87.875 202.535156 C 84.839844 193.417969 82.984375 183.886719 81.976562 174.082031 C 80.867188 163.292969 79.765625 152.132812 81.21875 141.328125 C 81.503906 139.210938 81.894531 137.109375 82.371094 135.03125 C 83.820312 131.128906 86.441406 127.34375 90.070312 125.539062 C 90.097656 125.59375 90.136719 125.644531 90.164062 125.699219 C 90.367188 125.742188 90.5625 125.796875 90.765625 125.835938 C 91.066406 125.941406 91.367188 126.050781 91.664062 126.160156 C 92.464844 126.453125 93.257812 126.75 94.0625 127.03125 C 95.632812 127.585938 97.234375 128.082031 98.878906 128.328125 C 101.433594 128.707031 103.886719 127.894531 106.242188 126.855469 C 106.460938 126.757812 106.472656 126.472656 106.375 126.265625 C 106.351562 126.1875 106.320312 126.113281 106.257812 126.050781 C 103.90625 123.726562 100.738281 122.949219 97.609375 123.097656 C 96.421875 123.15625 95.242188 123.332031 94.074219 123.585938 C 92.929688 123.832031 91.738281 124.089844 90.664062 124.601562 C 87.488281 125.886719 84.96875 128.582031 83.230469 131.703125 C 85.660156 125.640625 90.308594 120.21875 96.074219 117.277344 C 96.125 117.324219 96.179688 117.375 96.242188 117.425781 C 99.140625 120.683594 103.332031 121.832031 107.582031 121.34375 C 109.746094 121.097656 111.867188 120.484375 113.890625 119.683594 C 114.414062 119.476562 118.777344 117.78125 118.621094 116.660156 C 118.613281 116.601562 118.59375 116.546875 118.5625 116.496094 C 118.523438 116.429688 118.449219 116.394531 118.375 116.367188 C 111.933594 113.875 104.554688 111.207031 98.332031 114.710938 C 94.898438 115.761719 91.871094 118 89.269531 120.453125 C 87.886719 121.753906 86.640625 123.1875 85.546875 124.710938 C 87.140625 120.59375 89.070312 116.601562 91.269531 112.78125 C 93.425781 109.046875 95.816406 105.507812 98.402344 102.140625 C 98.996094 101.824219 106.574219 93.726562 121.507812 90.070312 C 124.53125 89.328125 127.636719 88.996094 130.742188 88.761719 C 130.824219 88.914062 131.003906 89.058594 131.355469 89.164062 C 135.558594 90.34375 140.617188 91.277344 144.941406 89.597656 C 145.261719 89.472656 145.398438 89.140625 144.804688 88.699219 C 140.789062 85.738281 135.796875 86.109375 131.164062 87.960938 C 131.070312 87.996094 130.972656 88.0625 130.890625 88.140625 C 129.515625 88.238281 128.140625 88.382812 126.757812 88.558594 C 125.878906 88.625 125.015625 88.714844 124.164062 88.824219 C 128.058594 87.597656 131.878906 86.132812 135.59375 84.40625 C 135.640625 84.410156 135.683594 84.414062 135.738281 84.414062 C 140.785156 84.246094 146.863281 83.964844 150.40625 79.828125 C 151.164062 78.941406 151.769531 77.933594 152.246094 76.871094 C 152.417969 76.484375 152.1875 76.25 151.707031 76.132812 C 147.425781 74.25 143 75.835938 139.578125 78.679688 C 138.46875 79.59375 137.386719 80.621094 136.484375 81.734375 C 136.242188 82.039062 135.238281 83.230469 135.15625 83.917969 C 130.015625 86.296875 124.683594 88.210938 119.199219 89.621094 C 121.074219 88.710938 122.871094 87.667969 124.578125 86.464844 C 124.863281 86.324219 125.148438 86.179688 125.433594 86.042969 C 126.199219 85.667969 126.964844 85.300781 127.726562 84.921875 C 129.214844 84.167969 130.679688 83.359375 131.996094 82.34375 C 134.039062 80.765625 135.15625 78.433594 136.039062 76.015625 C 136.121094 75.792969 135.921875 75.585938 135.707031 75.511719 C 135.636719 75.472656 135.558594 75.445312 135.46875 75.449219 C 132.164062 75.53125 129.40625 77.277344 127.347656 79.636719 C 126.566406 80.53125 123.902344 84.675781 123.542969 85.882812 C 123.488281 86.066406 123.445312 86.265625 123.46875 86.457031 C 121.929688 87.488281 119.523438 88.902344 117.398438 90.140625 C 111.300781 91.785156 106.035156 94.542969 101.621094 98.164062 C 111.269531 86.785156 123.15625 77.414062 135.515625 68.941406 C 138.015625 67.667969 141.6875 65.742188 143.957031 64.753906 C 144.105469 64.875 144.296875 64.953125 144.480469 65.003906 C 145.691406 65.347656 146.992188 65.355469 148.230469 65.375 C 149.425781 65.398438 150.617188 65.339844 151.792969 65.164062 C 154.890625 64.699219 157.84375 63.320312 159.695312 60.578125 C 159.746094 60.503906 159.765625 60.425781 159.769531 60.34375 C 159.824219 60.121094 159.757812 59.84375 159.527344 59.792969 C 157.011719 59.230469 154.445312 58.914062 152.015625 59.785156 C 150.449219 60.347656 148.980469 61.148438 147.546875 61.996094 C 146.8125 62.429688 146.089844 62.878906 145.367188 63.324219 C 145.09375 63.488281 144.820312 63.652344 144.546875 63.816406 C 142.613281 64.605469 140.765625 65.558594 138.988281 66.644531 C 139.066406 66.574219 139.148438 66.503906 139.222656 66.433594 C 139.421875 66.300781 148.0625 59.042969 152.394531 56.277344 C 153.019531 56.578125 154.5625 56.378906 154.949219 56.332031 C 156.371094 56.171875 157.820312 55.816406 159.1875 55.378906 C 163.429688 54.023438 167.148438 51.152344 167.871094 46.53125 C 168.03125 46.0625 167.957031 45.742188 167.539062 45.679688 C 166.386719 45.507812 165.210938 45.476562 164.054688 45.636719 C 158.664062 46.390625 155.148438 51.359375 152.289062 55.519531 C 152.257812 55.566406 152.238281 55.605469 152.21875 55.648438 C 148.523438 57.996094 145.007812 60.597656 141.683594 63.433594 C 143.40625 61.574219 145.023438 59.628906 146.535156 57.59375 C 146.648438 57.566406 146.753906 57.523438 146.835938 57.460938 C 150.894531 54.558594 153.894531 50.550781 153.5625 45.574219 C 153.515625 44.835938 153.160156 44.769531 152.882812 44.976562 C 149.136719 47.710938 145.851562 57.234375 145.933594 57.386719 C 144.003906 59.957031 141.910156 62.390625 139.652344 64.675781 C 139.5 64.644531 127.71875 72.234375 122.289062 76.390625 C 123.1875 75.222656 123.976562 73.988281 124.59375 72.65625 C 124.816406 72.585938 125.011719 72.40625 125.179688 72.230469 C 126.152344 71.199219 126.863281 69.902344 127.550781 68.667969 C 128.214844 67.484375 128.808594 66.257812 129.285156 64.980469 C 130.535156 61.625 130.875 57.914062 129.375 54.574219 C 129.335938 54.480469 129.269531 54.417969 129.199219 54.371094 C 129.027344 54.195312 128.738281 54.113281 128.566406 54.316406 C 126.695312 56.53125 125.015625 58.941406 124.496094 61.847656 C 124.160156 63.71875 124.097656 65.628906 124.09375 67.527344 C 124.09375 68.496094 124.113281 69.464844 124.125 70.429688 C 124.128906 70.894531 124.136719 71.363281 124.136719 71.828125 C 123.203125 74.035156 121.746094 75.964844 120.117188 77.757812 C 119.714844 78.199219 119.308594 78.640625 118.886719 79.066406 C 118.46875 79.40625 118.046875 79.746094 117.628906 80.085938 C 117.84375 79.664062 118.03125 79.230469 118.191406 78.78125 C 118.445312 78.445312 118.65625 78.023438 118.738281 77.859375 C 118.945312 77.441406 119.136719 77.015625 119.316406 76.582031 C 119.695312 75.667969 120.011719 74.726562 120.273438 73.773438 C 120.808594 71.800781 121.113281 69.75 121.0625 67.703125 C 121.027344 66.296875 120.824219 64.878906 120.359375 63.546875 C 119.96875 62.429688 119.339844 61.480469 118.726562 60.480469 C 118.671875 60.386719 118.605469 60.289062 118.5 60.257812 C 118.355469 60.21875 118.21875 60.332031 118.113281 60.4375 C 117.082031 61.507812 116.503906 62.824219 115.964844 64.183594 C 115.40625 65.597656 115.109375 67.039062 115.121094 68.578125 C 115.136719 70.976562 115.839844 73.292969 116.472656 75.585938 C 116.636719 76.171875 116.796875 76.765625 116.941406 77.355469 C 117.011719 77.640625 117.078125 77.921875 117.136719 78.207031 C 117.179688 78.402344 117.183594 78.796875 117.277344 78.996094 C 116.933594 79.84375 116.472656 80.648438 115.898438 81.390625 C 115.855469 81.445312 115.835938 81.503906 115.828125 81.558594 C 115.757812 81.589844 115.695312 81.621094 115.625 81.652344 C 115.640625 81.667969 115.652344 81.683594 115.664062 81.699219 C 115.691406 81.683594 115.722656 81.675781 115.75 81.664062 C 107.488281 88.671875 99.988281 96.527344 93.851562 105.460938 C 93.882812 105.210938 93.917969 104.933594 93.957031 104.605469 C 94.03125 103.941406 94.125 102.683594 94.042969 101.996094 C 96.777344 96.09375 98.25 88.433594 92.578125 84.011719 C 92.246094 83.644531 91.929688 83.554688 91.671875 83.890625 C 86.96875 90.019531 90.085938 95.960938 92.820312 101.902344 C 92.824219 102.550781 92.90625 103.214844 92.878906 103.832031 C 92.828125 105.011719 92.59375 106.1875 92.5625 107.363281 C 87.382812 115.28125 83.300781 123.988281 80.976562 133.171875 C 79.3125 139.742188 78.792969 146.371094 78.828125 153.039062 C 78.554688 151.769531 78.253906 150.503906 77.902344 149.25 C 77.707031 148.554688 77.535156 147.726562 77.285156 146.941406 C 77.335938 146.773438 77.359375 146.558594 77.335938 146.265625 C 76.796875 140.949219 75.636719 134.773438 72.050781 130.625 C 71.785156 130.316406 71.378906 130.3125 71.171875 131.1875 C 69.765625 137.105469 72.257812 142.613281 76.15625 147.03125 C 76.265625 147.160156 76.433594 147.269531 76.605469 147.320312 C 77.191406 149.140625 77.691406 150.988281 78.101562 152.855469 C 78.453125 154.472656 78.722656 156.097656 78.9375 157.730469 C 78.945312 157.945312 78.953125 158.160156 78.964844 158.378906 C 76.640625 152.457031 73.691406 146.835938 69.207031 142.273438 C 68.574219 138.300781 65.832031 135.371094 62.273438 133.6875 C 60.492188 132.84375 58.582031 132.296875 56.648438 131.933594 C 55.714844 131.753906 54.746094 131.570312 53.804688 131.597656 C 53.320312 131.609375 52.621094 131.753906 52.210938 131.445312 C 52.144531 131.515625 52.128906 131.628906 52.15625 131.78125 C 52.425781 133.265625 56.742188 138.230469 57.363281 138.878906 C 60.4375 142.125 64.3125 143.914062 68.828125 143.277344 C 73.917969 148.753906 76.824219 155.707031 79.207031 162.8125 C 79.25 163.476562 79.296875 164.140625 79.34375 164.804688 C 80.175781 176.230469 81.671875 187.441406 84.671875 198.210938 C 82.210938 194.273438 79.234375 190.660156 75.796875 187.484375 C 75.773438 187.3125 75.703125 187.101562 75.554688 186.847656 C 72.035156 180.835938 65.425781 178.554688 58.460938 178.378906 C 57.8125 178.363281 56.808594 178.988281 58.042969 180.03125 C 62.75 183.832031 68.667969 187.78125 75.085938 188.0625 C 79.390625 192.015625 82.988281 196.664062 85.730469 201.785156 C 87.019531 205.898438 88.546875 209.941406 90.363281 213.902344 C 90.476562 214.371094 90.582031 214.84375 90.683594 215.316406 C 90.339844 214.890625 90.003906 214.453125 89.671875 214.015625 C 88.277344 212.167969 86.902344 210.253906 85.03125 208.871094 C 83.832031 207.980469 82.519531 207.40625 81.058594 207.070312 C 79.65625 206.75 78.261719 206.484375 76.773438 206.742188 C 76.625 206.769531 76.449219 206.820312 76.390625 206.96875 C 76.347656 207.070312 76.382812 207.183594 76.417969 207.285156 C 76.820312 208.375 77.164062 209.445312 77.796875 210.414062 C 78.550781 211.566406 79.53125 212.546875 80.609375 213.378906 C 82.183594 214.589844 83.980469 215.507812 85.863281 216.179688 C 86.777344 216.507812 87.710938 216.777344 88.667969 216.980469 C 89.117188 217.074219 89.574219 217.15625 90.03125 217.222656 C 90.316406 217.261719 91.335938 217.398438 91.734375 217.128906 C 91.820312 217.183594 91.90625 217.234375 91.992188 217.292969 C 93.171875 219.617188 94.457031 221.910156 95.859375 224.171875 C 102.359375 234.667969 110.742188 243.984375 120.492188 251.535156 C 118.675781 250.859375 116.785156 250.308594 114.820312 249.882812 C 112.589844 248.679688 110.054688 247.304688 108.429688 246.28125 C 108.433594 246.066406 108.375 245.847656 108.304688 245.652344 C 107.839844 244.347656 107.050781 243.1875 106.3125 242.074219 C 105.597656 241 104.824219 239.980469 103.96875 239.054688 C 101.707031 236.609375 98.808594 234.898438 95.503906 235.0625 C 95.417969 235.066406 95.34375 235.101562 95.273438 235.152344 C 95.066406 235.246094 94.886719 235.492188 94.984375 235.730469 C 96.074219 238.332031 97.394531 240.820312 99.566406 242.402344 C 100.96875 243.421875 102.5 244.199219 104.050781 244.910156 C 104.839844 245.277344 105.636719 245.621094 106.429688 245.972656 C 106.730469 246.105469 107.023438 246.238281 107.320312 246.375 C 109.128906 247.566406 111.011719 248.582031 112.960938 249.4375 C 107.367188 248.304688 101.886719 246.609375 96.554688 244.378906 C 96.410156 243.625 95.308594 242.390625 95.039062 242.074219 C 94.042969 240.917969 92.875 239.867188 91.691406 238.941406 C 88.03125 236.070312 83.484375 234.664062 79.375 237.070312 C 78.910156 237.234375 78.695312 237.511719 78.902344 237.925781 C 79.472656 239.0625 80.164062 240.128906 80.996094 241.046875 C 84.882812 245.335938 90.96875 245.175781 96.015625 244.972656 C 96.070312 244.96875 96.117188 244.960938 96.160156 244.953125 C 100.023438 246.574219 103.960938 247.898438 107.960938 248.949219 C 107.09375 248.894531 106.21875 248.859375 105.3125 248.851562 C 103.933594 248.761719 102.554688 248.710938 101.171875 248.710938 C 101.082031 248.628906 100.984375 248.566406 100.886719 248.53125 C 96.105469 246.84375 91.097656 246.824219 87.351562 250.402344 C 86.796875 250.929688 86.960938 251.289062 87.292969 251.402344 C 91.75 252.921875 96.714844 251.5 100.800781 249.875 C 101.140625 249.730469 101.304688 249.558594 101.375 249.386719 C 102.941406 249.394531 104.5 249.457031 106.058594 249.578125 C 106.136719 249.582031 106.214844 249.589844 106.292969 249.597656 C 107.835938 249.722656 109.375 249.902344 110.910156 250.140625 C 118.226562 251.375 130.53125 258.5 130.589844 258.417969 C 132.828125 259.746094 135.117188 261 137.457031 262.148438 C 139.585938 263.191406 141.746094 264.152344 143.9375 265.042969 C 142.5 264.886719 141.058594 264.78125 139.617188 264.734375 C 138.949219 264.714844 138.167969 264.632812 137.402344 264.632812 C 137.273438 264.542969 137.085938 264.464844 136.820312 264.402344 C 131.976562 263.394531 126.195312 262.695312 121.53125 264.703125 C 121.183594 264.855469 121.066406 265.210938 121.785156 265.640625 C 126.617188 268.53125 132.175781 267.867188 137.167969 265.660156 C 137.3125 265.597656 137.457031 265.480469 137.550781 265.339844 C 139.320312 265.332031 141.09375 265.40625 142.855469 265.566406 C 144.082031 265.679688 145.300781 265.851562 146.515625 266.046875 C 146.8125 266.160156 147.113281 266.273438 147.414062 266.386719 C 141.726562 266.8125 136.140625 267.867188 131.027344 270.46875 C 127.339844 269.917969 123.988281 271.523438 121.507812 274.199219 C 120.269531 275.535156 119.25 277.070312 118.386719 278.675781 C 117.972656 279.449219 117.535156 280.253906 117.296875 281.09375 C 117.171875 281.523438 117.105469 282.183594 116.71875 282.460938 C 116.761719 282.539062 116.859375 282.582031 117 282.601562 C 118.386719 282.777344 123.980469 280.347656 124.722656 279.980469 C 128.449219 278.171875 131.109375 275.25 131.804688 271.082031 C 137.585938 268.34375 143.960938 267.601562 150.367188 267.40625 C 158.238281 270 166.398438 271.640625 174.644531 272.296875 C 174.363281 272.363281 174.105469 272.4375 173.902344 272.515625 C 168.078125 271.585938 160.902344 272.132812 157.984375 277.945312 C 157.71875 278.308594 157.691406 278.597656 158.042969 278.738281 C 164.445312 281.273438 169.210938 277.257812 174.046875 273.570312 C 174.632812 273.414062 175.214844 273.1875 175.777344 273.066406 C 176.796875 272.847656 177.84375 272.765625 178.863281 272.542969 C 179.796875 272.582031 180.734375 272.589844 181.671875 272.582031 C 185.058594 272.558594 188.445312 272.347656 191.824219 272.089844 C 195.769531 271.792969 199.707031 271.425781 203.644531 271.039062 C 205.667969 270.839844 207.691406 270.640625 209.714844 270.441406 C 210.941406 270.320312 214.167969 269.964844 214.53125 269.8125 C 214.636719 269.769531 214.792969 269.773438 214.832031 269.644531 C 214.875 269.492188 214.722656 269.320312 214.582031 269.320312 " fill-opacity="1" fill-rule="nonzero"/></g><path fill="#726962" d="M 222.125 170.46875 C 220.34375 172.085938 218.179688 173.378906 216.078125 174.285156 C 218.585938 173.886719 220.5625 172.429688 222.125 170.46875 Z M 223.375 167.730469 C 221.007812 169.742188 218.457031 171.527344 215.960938 173.375 C 218.675781 172.066406 221.515625 170.140625 223.375 167.730469 Z M 222.761719 167.21875 C 220.03125 168.609375 217.488281 170.128906 215.613281 172.609375 C 217.921875 170.710938 220.25 168.824219 222.761719 167.21875 Z M 215.050781 171.835938 C 215.097656 171.839844 215.148438 171.847656 215.191406 171.859375 C 216.175781 170.53125 217.390625 169.425781 218.742188 168.488281 C 217.265625 169.308594 215.988281 170.363281 215.050781 171.835938 Z M 222.328125 153.882812 C 220.128906 157.535156 217.519531 160.929688 214.890625 164.300781 C 218.367188 161.53125 220.441406 157.835938 222.328125 153.882812 Z M 220.660156 159.679688 C 218.976562 162.253906 216.871094 164.515625 214.136719 166.136719 C 217.257812 164.722656 219.238281 162.414062 220.660156 159.679688 Z M 213.785156 163.832031 C 216.332031 160.195312 218.785156 156.484375 221.574219 153.027344 C 218.199219 155.773438 215.554688 159.90625 213.785156 163.832031 Z M 212.480469 163.699219 C 213.695312 160.664062 215.460938 157.519531 217.710938 154.914062 C 214.960938 157.226562 212.953125 160.101562 212.480469 163.699219 Z M 211.375 124.179688 C 211.492188 124.363281 211.605469 124.550781 211.710938 124.746094 C 215.097656 130.996094 210.058594 139.109375 205.402344 143.667969 C 210.746094 142.148438 215.324219 139.53125 216.390625 133.210938 C 217.097656 129.007812 215.578125 125.339844 211.375 124.179688 Z M 206.679688 165.773438 C 205.65625 167.40625 204.484375 168.945312 203.199219 170.410156 C 204.808594 169.148438 205.898438 167.566406 206.679688 165.773438 Z M 202.769531 168.988281 C 202.8125 168.992188 202.851562 169.003906 202.890625 169.015625 C 204.261719 167.191406 206.085938 164.519531 206.988281 163.074219 C 205.914062 164.425781 204.03125 167.097656 202.769531 168.988281 Z M 200.582031 170.65625 C 200.777344 170.054688 201.269531 169.511719 201.605469 168.988281 C 201.96875 168.425781 202.34375 167.871094 202.730469 167.324219 C 203.117188 166.777344 203.515625 166.242188 203.929688 165.710938 C 204.128906 165.460938 204.351562 165.222656 204.554688 164.972656 C 204.695312 164.796875 205.195312 164.074219 205.496094 163.546875 C 204.976562 163.925781 204.074219 165.171875 203.664062 165.640625 C 203.222656 166.144531 202.796875 166.65625 202.40625 167.195312 C 201.632812 168.253906 200.992188 169.398438 200.582031 170.65625 Z M 193.980469 155.097656 C 187.902344 143.574219 190.367188 126.234375 204.3125 122.097656 C 204.738281 121.96875 205.171875 121.863281 205.613281 121.777344 C 200.125 120.199219 193.792969 124.015625 190.558594 128.460938 C 186.78125 133.648438 185.730469 140.464844 188.085938 146.46875 C 189.386719 149.777344 191.484375 152.613281 193.980469 155.097656 Z M 196.292969 182.285156 C 192.917969 189.242188 187.996094 195.761719 180.996094 199.1875 C 175.816406 201.722656 168.316406 202.210938 163.890625 198.542969 C 167.519531 205.875 176.503906 208.445312 183.582031 203.957031 C 190.839844 199.359375 193.949219 190.621094 196.292969 182.285156 Z M 212.546875 167.996094 C 208.683594 172.746094 203.648438 175.558594 198.273438 176.582031 C 203.609375 177.46875 209.585938 177.960938 213.136719 174.066406 C 214.464844 168.34375 220.230469 166.394531 225.300781 164.828125 C 225.351562 164.8125 225.40625 164.796875 225.457031 164.816406 C 225.5 164.832031 225.53125 164.855469 225.5625 164.882812 C 226.132812 165.429688 224.472656 168.253906 224.277344 168.59375 C 223.511719 169.910156 222.617188 171.164062 221.535156 172.238281 C 219.417969 174.347656 216.621094 175.535156 213.617188 175.003906 C 213.578125 175.003906 213.546875 174.996094 213.507812 174.992188 C 210.324219 178.179688 205.328125 179.238281 200.882812 178.851562 C 200.144531 178.785156 199.40625 178.691406 198.671875 178.582031 C 196.230469 188.425781 193.035156 198.863281 184.640625 204.824219 C 178.777344 208.992188 171.570312 208.816406 166.039062 204.683594 C 159.597656 199.882812 158.691406 191.179688 160.894531 183.285156 C 165.199219 167.839844 180.09375 156.085938 194.773438 157.910156 C 190.058594 153.8125 186.246094 148.691406 185.449219 142.34375 C 184.585938 135.429688 187.617188 128.183594 193.035156 123.832031 C 197.175781 120.507812 204.160156 118.566406 208.761719 121.519531 C 211.03125 121.589844 213.277344 122.210938 215.132812 123.503906 C 218.433594 125.796875 218.773438 129.597656 218.023438 133.277344 C 216.34375 141.511719 209.46875 144.117188 202.007812 145.585938 C 201.273438 145.730469 201.066406 144.691406 201.78125 144.542969 C 202.457031 144.398438 203.132812 144.246094 203.804688 144.085938 C 203.808594 144.078125 203.808594 144.074219 203.8125 144.070312 C 208.324219 139.84375 215.234375 129.332031 209.246094 123.824219 C 206.054688 123.601562 202.859375 124.695312 200.347656 126.703125 C 190.65625 134.453125 191.085938 149.871094 198.871094 158.707031 C 199.175781 159.050781 199.144531 159.453125 198.953125 159.765625 C 198.777344 160.152344 198.363281 160.46875 197.867188 160.425781 C 188.679688 159.617188 179.449219 161.746094 172.285156 168.738281 C 166.265625 174.613281 161.273438 184.269531 162.332031 193.128906 C 166.277344 202.082031 177.21875 200.542969 184.050781 195.6875 C 190.078125 191.402344 193.832031 184.863281 196.878906 178.289062 C 194.386719 177.855469 191.910156 177.34375 189.382812 177.195312 C 184.289062 176.890625 180.25 178.269531 176.816406 182.089844 C 176.539062 182.402344 176.050781 182.113281 176.300781 181.738281 C 180.285156 175.71875 186.265625 174.695312 193.015625 175.679688 C 195.277344 175.136719 197.386719 174.058594 199.21875 172.550781 C 199.21875 172.550781 199.21875 172.550781 199.21875 172.546875 C 199.167969 172.332031 199.191406 172.078125 199.195312 171.921875 C 199.199219 171.546875 199.261719 171.175781 199.324219 170.816406 C 199.453125 170.097656 199.667969 169.40625 199.941406 168.742188 C 200.5 167.390625 201.316406 166.171875 202.242188 165.035156 C 204.09375 162.75 206.394531 160.804688 208.367188 158.605469 C 208.410156 158.554688 208.457031 158.5 208.503906 158.449219 C 208.65625 158.277344 209.039062 158.308594 209.273438 158.523438 C 209.550781 158.777344 209.480469 159.167969 209.480469 159.429688 C 209.476562 160.21875 209.316406 160.960938 209.1875 161.710938 C 209.132812 162.050781 209.070312 162.382812 209 162.710938 C 208.855469 163.378906 208.683594 164.035156 208.476562 164.675781 C 208.066406 165.957031 207.519531 167.183594 206.796875 168.304688 C 206.085938 169.402344 205.207031 170.398438 204.113281 171.210938 C 203.570312 171.613281 202.980469 171.972656 202.339844 172.273438 C 201.726562 172.5625 201.007812 172.910156 200.261719 173.003906 C 198.953125 174.179688 197.441406 175.105469 195.8125 175.753906 C 197.832031 175.617188 199.84375 175.238281 201.863281 174.460938 C 205.554688 173.042969 208.757812 170.667969 211.609375 167.671875 C 211.570312 167.550781 211.550781 167.40625 211.546875 167.246094 C 210.675781 162.96875 212.265625 158.929688 215.199219 155.824219 C 216.699219 154.238281 218.457031 152.910156 220.308594 151.769531 C 220.789062 151.476562 224.757812 148.996094 225.5625 149.792969 C 225.601562 149.835938 225.636719 149.882812 225.660156 149.9375 C 225.6875 150.011719 225.671875 150.089844 225.648438 150.167969 C 223.570312 157.578125 220.972656 166.046875 212.546875 167.996094 " fill-opacity="1" fill-rule="nonzero"/><g fill="#726962" fill-opacity="1"><g transform="translate(200.071704, 226.625468)"><g><path d="M -1.253906 0 L 7.089844 0 L 7.089844 -0.960938 C 4.578125 -1.476562 4.285156 -3.914062 6.203125 -8.714844 L 10.5625 -19.5 L 31.390625 -19.5 L 35.894531 -8.640625 C 38.257812 -3.101562 38.847656 -1.625 36.558594 -0.960938 L 36.558594 0 L 48.007812 0 L 48.007812 -0.960938 C 46.457031 -1.625 44.683594 -3.101562 42.394531 -8.640625 L 24.226562 -52.292969 L 18.6875 -49.78125 L 19.351562 -48.230469 C 19.941406 -47.046875 20.015625 -46.085938 19.5 -44.757812 L 4.949219 -8.714844 C 2.660156 -3.101562 0.8125 -1.625 -1.253906 -0.960938 Z M 11.003906 -20.605469 L 20.828125 -44.90625 L 30.945312 -20.605469 Z M 11.003906 -20.605469 "/></g></g></g><g fill="#726962" fill-opacity="1"><g transform="translate(127.926721, 153.896617)"><g><path d="M 3.691406 0 L 13 0 L 13 -0.960938 C 9.75 -1.847656 7.976562 -3.914062 7.976562 -12.335938 L 7.976562 -45.128906 L 26.882812 -14.03125 L 28.289062 -14.03125 L 47.046875 -45.71875 L 47.046875 -9.378906 C 47.046875 -3.324219 46.308594 -1.625 44.09375 -0.960938 L 44.09375 0 L 56.058594 0 L 56.058594 -0.960938 C 53.769531 -1.625 53.105469 -3.324219 53.105469 -9.378906 L 53.105469 -39.367188 C 53.105469 -47.785156 54.65625 -49.855469 57.609375 -50.742188 L 57.609375 -51.699219 L 49.261719 -51.699219 L 30.355469 -19.867188 L 11.078125 -51.699219 L 2.140625 -51.699219 L 2.140625 -50.742188 C 5.097656 -49.855469 6.648438 -47.785156 6.648438 -39.367188 L 6.648438 -9.378906 C 6.648438 -3.324219 5.984375 -1.625 3.691406 -0.960938 Z M 3.691406 0 "/></g></g></g><g fill="#726962" fill-opacity="1"><g transform="translate(133.363294, 309.659897)"><g/></g></g><g fill="#726962" fill-opacity="1"><g transform="translate(133.363294, 309.659897)"><g><path d="M -1.050781 0 L 6.871094 0 C 7.257812 0 7.535156 -0.109375 7.773438 -0.421875 C 8.140625 -0.828125 8.65625 -1.546875 8.933594 -1.859375 L 8.785156 -1.972656 C 8.070312 -1.308594 7.71875 -1.085938 5.875 -1.085938 L 0.679688 -1.085938 C 6.613281 -5.066406 10.777344 -8.214844 10.777344 -11.199219 C 10.777344 -12.507812 9.800781 -13.335938 8.289062 -13.335938 C 6.722656 -13.355469 5.285156 -12.324219 4.015625 -10.90625 L 4.164062 -10.757812 C 5.269531 -11.917969 6.390625 -12.378906 7.386719 -12.378906 C 8.601562 -12.378906 9.265625 -11.699219 9.265625 -10.683594 C 9.265625 -8.84375 7.277344 -5.710938 -0.238281 -0.792969 L -1.160156 -0.203125 Z M -1.050781 0 "/></g></g></g><g fill="#726962" fill-opacity="1"><g transform="translate(144.04771, 309.659897)"><g><path d="M 0.882812 0 L 2.042969 0 C 2.191406 0 2.300781 -0.0546875 2.394531 -0.183594 L 11.753906 -13.132812 L 11.660156 -13.28125 C 11.199219 -13.0625 10.796875 -13.003906 10.296875 -13.003906 C 8.84375 -13.003906 7.277344 -13.390625 6.023438 -13.390625 C 4.898438 -13.390625 3.792969 -12.5625 2.652344 -11.253906 L 2.835938 -11.125 C 3.5 -11.917969 4.199219 -12.15625 4.9375 -12.15625 C 6.0625 -12.15625 7.921875 -11.769531 9.042969 -11.769531 C 9.5625 -11.769531 10.019531 -11.828125 10.519531 -11.9375 L 0.738281 -0.351562 C 0.570312 -0.164062 0.664062 0 0.882812 0 Z M 0.882812 0 "/></g></g></g><g fill="#726962" fill-opacity="1"><g transform="translate(152.632083, 309.659897)"><g/></g></g><g fill="#726962" fill-opacity="1"><g transform="translate(156.316373, 309.659897)"><g><path d="M -0.148438 0 L 8.65625 0 C 9.027344 0 9.414062 -0.0742188 9.671875 -0.277344 C 10.1875 -0.71875 10.664062 -1.382812 11.253906 -2.136719 L 11.089844 -2.246094 C 10.519531 -1.640625 10.167969 -1.269531 9.191406 -1.269531 L 1.363281 -1.269531 L 2.171875 -1.75 C 2.890625 -2.171875 3.296875 -2.632812 3.777344 -3.464844 C 4.570312 -4.84375 5.195312 -6.207031 5.839844 -7.570312 L 11.972656 -7.570312 L 11.972656 -7.867188 L 5.96875 -7.867188 C 6.578125 -9.136719 7.183594 -10.425781 7.941406 -11.714844 C 8.34375 -12.414062 8.65625 -12.988281 9.339844 -13.464844 L 14.019531 -13.464844 C 14.683594 -13.464844 14.921875 -13.375 14.921875 -13.078125 C 14.921875 -12.785156 14.535156 -12.378906 13.722656 -11.769531 L 13.871094 -11.570312 C 15.253906 -12.617188 16.082031 -13.410156 16.082031 -14.09375 C 16.082031 -14.496094 15.75 -14.738281 15.011719 -14.738281 L 5.507812 -14.738281 C 5.15625 -14.738281 4.808594 -14.664062 4.550781 -14.460938 C 4.015625 -14.019531 3.554688 -13.355469 2.964844 -12.601562 L 3.113281 -12.488281 C 3.703125 -13.097656 4.050781 -13.464844 5.027344 -13.464844 L 8.878906 -13.464844 L 8.085938 -13.097656 C 7.148438 -12.636719 6.648438 -12.011719 6.171875 -11.164062 C 5.527344 -10.058594 4.992188 -8.953125 4.457031 -7.867188 L 2.632812 -7.867188 L 2.632812 -7.570312 L 4.328125 -7.570312 C 3.554688 -5.96875 2.820312 -4.367188 1.898438 -2.746094 C 1.492188 -2.0625 1.179688 -1.527344 0.71875 -1.179688 L 0.351562 -0.882812 C 0.0195312 -0.625 -0.386719 -0.292969 -0.386719 -0.183594 C -0.386719 -0.0742188 -0.367188 0 -0.148438 0 Z M -0.148438 0 "/></g></g></g><g fill="#726962" fill-opacity="1"><g transform="translate(169.008723, 309.659897)"><g><path d="M -0.0742188 0 L 0.808594 0 C 0.957031 0 1.050781 -0.0546875 1.140625 -0.203125 C 1.34375 -0.515625 1.785156 -1.269531 2.300781 -2.191406 C 3.390625 -3.8125 4.753906 -5.398438 6.003906 -6.578125 C 7.164062 -7.683594 8.085938 -8.398438 8.75 -8.398438 C 9.101562 -8.398438 9.246094 -8.179688 9.246094 -7.882812 C 9.246094 -6.613281 6.003906 -2.820312 6.003906 -0.921875 C 6.003906 -0.480469 6.226562 0.148438 7.019531 0.148438 C 7.570312 0.148438 8.65625 -0.496094 10.003906 -1.730469 L 9.855469 -1.914062 C 9.082031 -1.214844 8.511719 -0.867188 8.125 -0.867188 C 7.792969 -0.867188 7.609375 -1.050781 7.609375 -1.363281 C 7.609375 -2.632812 10.832031 -6.6875 10.832031 -8.34375 C 10.832031 -8.84375 10.535156 -9.359375 9.890625 -9.359375 C 9.007812 -9.359375 7.480469 -8.34375 5.859375 -6.761719 C 4.917969 -5.859375 3.960938 -4.808594 3.058594 -3.648438 C 4.050781 -5.5625 5.027344 -7.664062 5.027344 -8.398438 C 5.027344 -8.824219 4.789062 -9.359375 4.089844 -9.359375 C 3.464844 -9.359375 2.359375 -8.695312 1.011719 -7.480469 L 1.160156 -7.292969 C 1.988281 -8.050781 2.578125 -8.363281 2.964844 -8.363281 C 3.277344 -8.363281 3.445312 -8.179688 3.445312 -7.882812 C 3.445312 -6.871094 0.921875 -2.339844 -0.238281 -0.351562 C -0.351562 -0.148438 -0.277344 0 -0.0742188 0 Z M -0.0742188 0 "/></g></g></g><g fill="#726962" fill-opacity="1"><g transform="translate(180.024735, 309.659897)"><g><path d="M 2.394531 0.128906 C 3.316406 0.128906 4.917969 -0.570312 6.539062 -2.0625 L 6.390625 -2.230469 C 5.121094 -1.085938 4.199219 -0.882812 3.554688 -0.882812 C 2.488281 -0.882812 1.953125 -1.492188 1.84375 -2.359375 C 7.351562 -5.820312 8.75 -7.09375 8.75 -8.289062 C 8.75 -8.933594 8.269531 -9.359375 7.3125 -9.359375 C 4.402344 -9.359375 0.222656 -5.285156 0.222656 -2.027344 C 0.222656 -0.957031 0.882812 0.148438 2.394531 0.128906 Z M 1.824219 -2.617188 L 1.824219 -2.632812 C 1.769531 -5.066406 3.757812 -8.65625 6.117188 -8.65625 C 6.722656 -8.65625 7.183594 -8.308594 7.183594 -7.699219 C 7.183594 -6.355469 5.710938 -5.046875 1.824219 -2.617188 Z M 1.824219 -2.617188 "/></g></g></g><g fill="#726962" fill-opacity="1"><g transform="translate(188.093312, 309.659897)"><g><path d="M -0.0742188 0 L 0.808594 0 C 0.957031 0 1.050781 -0.0546875 1.140625 -0.203125 C 1.472656 -0.699219 2.375 -2.300781 3.222656 -3.960938 C 4.273438 -5.859375 5.488281 -7.515625 6.519531 -8.179688 C 7.570312 -7.867188 8.253906 -7.753906 8.84375 -7.753906 C 9.523438 -7.753906 10.167969 -8.527344 10.167969 -8.972656 C 10.167969 -9.265625 9.523438 -9.359375 9.082031 -9.359375 C 7.019531 -9.359375 5.488281 -7.882812 4.21875 -5.988281 C 4.699219 -7.054688 5.027344 -7.957031 5.027344 -8.398438 C 5.027344 -8.824219 4.789062 -9.359375 4.089844 -9.359375 C 3.464844 -9.359375 2.359375 -8.695312 1.011719 -7.480469 L 1.160156 -7.292969 C 1.988281 -8.050781 2.578125 -8.363281 2.964844 -8.363281 C 3.277344 -8.363281 3.445312 -8.179688 3.445312 -7.882812 C 3.445312 -6.871094 0.921875 -2.339844 -0.238281 -0.351562 C -0.351562 -0.148438 -0.277344 0 -0.0742188 0 Z M -0.0742188 0 "/></g></g></g><g fill="#726962" fill-opacity="1"><g transform="translate(196.714543, 309.659897)"><g><path d="M 2.359375 0.148438 C 4.769531 0.148438 8.84375 -3.703125 8.84375 -7.238281 C 8.84375 -8.199219 8.382812 -9.359375 6.90625 -9.359375 C 4.070312 -9.359375 0.257812 -5.101562 0.257812 -2.101562 C 0.257812 -0.664062 1.160156 0.148438 2.359375 0.148438 Z M 1.785156 -2.761719 C 1.785156 -4.917969 3.351562 -8.585938 5.671875 -8.585938 C 6.722656 -8.585938 7.351562 -7.941406 7.351562 -6.632812 C 7.351562 -4.660156 5.839844 -0.609375 3.519531 -0.609375 C 2.246094 -0.609375 1.785156 -1.527344 1.785156 -2.761719 Z M 1.785156 -2.761719 "/></g></g></g><g fill="#726962" fill-opacity="1"><g transform="translate(205.796301, 309.659897)"><g/></g></g><g fill="#726962" fill-opacity="1"><g transform="translate(209.480591, 309.659897)"><g><path d="M -1.050781 0 L 6.871094 0 C 7.257812 0 7.535156 -0.109375 7.773438 -0.421875 C 8.140625 -0.828125 8.65625 -1.546875 8.933594 -1.859375 L 8.785156 -1.972656 C 8.070312 -1.308594 7.71875 -1.085938 5.875 -1.085938 L 0.679688 -1.085938 C 6.613281 -5.066406 10.777344 -8.214844 10.777344 -11.199219 C 10.777344 -12.507812 9.800781 -13.335938 8.289062 -13.335938 C 6.722656 -13.355469 5.285156 -12.324219 4.015625 -10.90625 L 4.164062 -10.757812 C 5.269531 -11.917969 6.390625 -12.378906 7.386719 -12.378906 C 8.601562 -12.378906 9.265625 -11.699219 9.265625 -10.683594 C 9.265625 -8.84375 7.277344 -5.710938 -0.238281 -0.792969 L -1.160156 -0.203125 Z M -1.050781 0 "/></g></g></g><g fill="#726962" fill-opacity="1"><g transform="translate(220.165007, 309.659897)"><g><path d="M 1.898438 0.148438 C 5.433594 0.148438 10.648438 -7.222656 10.648438 -11.347656 C 10.648438 -12.359375 10.113281 -13.335938 8.75 -13.335938 C 4.898438 -13.335938 -0.0351562 -5.949219 -0.0351562 -2.0625 C -0.0351562 -0.699219 0.679688 0.148438 1.898438 0.148438 Z M 1.492188 -2.707031 C 1.492188 -6.226562 5.011719 -12.691406 7.589844 -12.691406 C 8.621094 -12.691406 9.101562 -12.011719 9.101562 -10.683594 C 9.101562 -7.292969 5.691406 -0.644531 3.019531 -0.644531 C 1.972656 -0.644531 1.492188 -1.492188 1.492188 -2.707031 Z M 1.492188 -2.707031 "/></g></g></g><g fill="#726962" fill-opacity="1"><g transform="translate(229.836259, 309.659897)"><g><path d="M -1.050781 0 L 6.871094 0 C 7.257812 0 7.535156 -0.109375 7.773438 -0.421875 C 8.140625 -0.828125 8.65625 -1.546875 8.933594 -1.859375 L 8.785156 -1.972656 C 8.070312 -1.308594 7.71875 -1.085938 5.875 -1.085938 L 0.679688 -1.085938 C 6.613281 -5.066406 10.777344 -8.214844 10.777344 -11.199219 C 10.777344 -12.507812 9.800781 -13.335938 8.289062 -13.335938 C 6.722656 -13.355469 5.285156 -12.324219 4.015625 -10.90625 L 4.164062 -10.757812 C 5.269531 -11.917969 6.390625 -12.378906 7.386719 -12.378906 C 8.601562 -12.378906 9.265625 -11.699219 9.265625 -10.683594 C 9.265625 -8.84375 7.277344 -5.710938 -0.238281 -0.792969 L -1.160156 -0.203125 Z M -1.050781 0 "/></g></g></g><g fill="#726962" fill-opacity="1"><g transform="translate(240.520675, 309.659897)"><g><path d="M 4.421875 0 L 5.304688 0 C 5.453125 0 5.5625 -0.0546875 5.617188 -0.203125 L 7.128906 -3.351562 L 7.351562 -3.351562 C 8.472656 -3.351562 9.375 -4.109375 10.335938 -5.140625 L 10.1875 -5.285156 C 9.578125 -4.605469 9.027344 -4.253906 7.976562 -4.253906 C 7.847656 -4.253906 7.71875 -4.253906 7.570312 -4.273438 L 11.769531 -12.988281 C 11.808594 -13.078125 11.84375 -13.152344 11.84375 -13.207031 C 11.84375 -13.320312 11.605469 -13.355469 11.441406 -13.355469 C 11.3125 -13.355469 11.238281 -13.320312 11.164062 -13.246094 L 0.515625 -4.089844 L 0.0546875 -3.703125 L 0.164062 -3.519531 C 0.40625 -3.664062 0.773438 -3.867188 1.511719 -3.867188 C 2.597656 -3.867188 4.402344 -3.648438 5.746094 -3.5 L 4.21875 -0.332031 C 4.109375 -0.148438 4.21875 0 4.421875 0 Z M 1.382812 -4.496094 L 9.617188 -11.511719 L 6.191406 -4.421875 C 5.230469 -4.550781 4.109375 -4.699219 3.019531 -4.699219 C 2.503906 -4.699219 1.933594 -4.625 1.382812 -4.496094 Z M 1.382812 -4.496094 "/></g></g></g></svg>